<?xml version="1.0" encoding="UTF-8"?>
<svg width="80px" height="80px" viewBox="0 0 80 80" version="1.1" xmlns="http://www.w3.org/2000/svg" xmlns:xlink="http://www.w3.org/1999/xlink">
    <!-- Generator: Sketch 46.2 (44496) - http://www.bohemiancoding.com/sketch -->
    <title>i-beacon</title>
    <desc>Created with Sketch.</desc>
    <defs></defs>
    <g id="graphics" stroke="none" stroke-width="1" fill="none" fill-rule="evenodd">
        <g id="Artboard" transform="translate(-326.000000, -695.000000)">
            <g id="i-beacon" transform="translate(326.000000, 695.000000)">
                <g id="Group-3" transform="translate(0.000000, 16.000000)">
                    <g id="noun_1119452_cc" fill-rule="nonzero" fill="#494949">
                        <g id="Group">
                            <path d="M23.8920114,9.72054054 C22.4167862,8.2372973 20.1117469,8.2372973 18.6365218,9.72054054 C14.6718541,13.7994595 12.4590164,19.1762162 12.4590164,24.8310811 C12.4590164,30.5786486 14.6718541,35.8627027 18.6365218,39.9416216 C19.3741343,40.6832432 20.2961501,41.0540541 21.2181658,41.0540541 C22.1401815,41.0540541 23.0621973,40.6832432 23.7998098,39.9416216 C25.275035,38.4583784 25.275035,36.1408108 23.7998098,34.6575676 C21.2181658,32.0618919 19.7429406,28.5391892 19.7429406,24.8310811 C19.7429406,21.122973 21.2181658,17.6002703 23.7998098,15.0045946 C25.275035,13.5213514 25.275035,11.2037838 23.8920114,9.72054054 Z" id="Shape"></path>
                            <path d="M58.8242359,41.0540541 C59.7369843,41.0540541 60.6497328,40.6832432 61.3799315,39.9416216 C69.5946676,31.5983784 69.5946676,18.0637838 61.3799315,9.72054054 C59.919534,8.2372973 57.6376629,8.2372973 56.1772654,9.72054054 C54.7168678,11.2037838 54.7168678,13.5213514 56.1772654,15.0045946 C61.5624812,20.4740541 61.5624812,29.2808108 56.1772654,34.7502703 C54.7168678,36.2335135 54.7168678,38.5510811 56.1772654,40.0343243 C56.9074641,40.6832432 57.8202126,41.0540541 58.8242359,41.0540541 Z" id="Shape"></path>
                            <path d="M9.50223917,47.8821293 C10.2358234,48.6273764 11.1528036,49 12.0697839,49 C12.9867641,49 13.9037444,48.6273764 14.6373286,47.8821293 C16.104497,46.391635 16.104497,44.0627376 14.6373286,42.5722433 C4.82563986,32.6045627 4.82563986,16.3954373 14.6373286,6.42775665 C16.104497,4.93726236 16.104497,2.60836502 14.6373286,1.11787072 C13.1701602,-0.372623574 10.8777096,-0.372623574 9.41054115,1.11787072 C-3.15208837,14.0665399 -3.15208837,35.026616 9.50223917,47.8821293 Z" id="Shape"></path>
                            <path d="M70.5619296,1.11787072 C69.1011448,-0.372623574 66.8186685,-0.372623574 65.3578837,1.11787072 C63.8970989,2.60836502 63.8970989,4.93726236 65.3578837,6.42775665 C75.1268822,16.3954373 75.1268822,32.6045627 65.3578837,42.5722433 C63.8970989,44.0627376 63.8970989,46.391635 65.3578837,47.8821293 C66.0882761,48.6273764 67.0012666,49 67.9142571,49 C68.8272477,49 69.7402382,48.6273764 70.4706306,47.8821293 C83.1611988,35.026616 83.1611988,14.0665399 70.5619296,1.11787072 Z" id="Shape"></path>
                        </g>
                    </g>
                    <g id="noun_800680_cc" transform="translate(30.163934, 3.972973)" stroke-linecap="round" stroke-width="1.96721311" stroke="#868686" stroke-linejoin="round">
                        <polyline id="Shape" points="0.453459294 14.9765766 19.4698527 26.4067568 8.15057093 34.113964 8.15057093 7.13873874 19.4698527 15.4990991 0.453459294 27.0599099"></polyline>
                    </g>
                </g>
            </g>
        </g>
    </g>
</svg>