<?xml version="1.0" encoding="UTF-8"?>
<svg width="77px" height="90px" viewBox="0 0 77 90" version="1.1" xmlns="http://www.w3.org/2000/svg" xmlns:xlink="http://www.w3.org/1999/xlink">
    <!-- Generator: Sketch 46.2 (44496) - http://www.bohemiancoding.com/sketch -->
    <title>i-business</title>
    <desc>Created with Sketch.</desc>
    <defs></defs>
    <g id="icons" stroke="none" stroke-width="1" fill="none" fill-rule="evenodd">
        <g id="i-business" fill="#FFCC00">
            <g id="noun_673729_cc-copy" transform="translate(2.000000, 0.000000)">
                <g id="Group">
                    <path d="M60.5113953,44.6494186 L49.3786047,28.6786047 L49.4236047,28.6786047 L49.4236047,26.8911628 L49.4236047,26.5855814 L22.3943023,26.5855814 L22.3943023,26.8911628 L22.3943023,28.6786047 L22.4403488,28.6786047 L11.3546512,44.5855814 C10.9140698,45.1538372 0.565116279,58.630814 0.338023256,69.3533721 C0.18,76.8003488 5.58104651,84.7109302 12.6334884,87.3627907 C16.967093,88.9932558 28.8230233,89.2402326 35.9089535,88.8948837 C37.6775581,88.9806977 39.7433721,89.0298837 41.9148837,89.0298837 C48.4451163,89.0298837 55.932907,88.5861628 59.1844186,87.3627907 C66.2368605,84.7109302 71.637907,76.8003488 71.4798837,69.3533721 C71.2538372,58.630814 60.9048837,45.1538372 60.5113953,44.6494186 Z M56.0458258,81.9347847 C52.9510773,83.0981669 43.1725842,83.500218 35.9803352,83.1437897 L35.91,83.1399878 L35.8396648,83.1437897 C28.6474158,83.500218 18.8689227,83.0981669 15.7741742,81.9347847 C10.518044,79.9577954 6.3369018,73.8443363 6.4538103,68.3068654 C6.64010352,59.5121145 15.7703723,47.6159618 15.9053398,47.4391733 L26.7169999,31.9283618 C26.8605217,31.7221086 26.9878854,31.5130039 27.1142987,31.3038993 L44.7057013,31.3038993 C44.8321146,31.5130039 44.9594783,31.7221086 45.1030001,31.9283618 L55.9574316,47.4971523 C56.0496277,47.6159618 65.1798965,59.4997584 65.3661897,68.3068654 C65.4830982,73.8452868 61.301956,79.9577954 56.0458258,81.9347847 Z" id="Shape" fill-rule="nonzero"></path>
                    <path d="M25.8839271,51.2201579 C25.8742467,46.9736177 28.8771,43.3165568 33.0443552,42.4997449 L33.0443552,40.6200114 C33.0443552,39.2821916 34.1288724,38.1976744 35.4666922,38.1976744 C36.8045119,38.1976744 37.8890291,39.2821916 37.8890291,40.6200114 L37.8890291,42.5578809 C40.7810086,43.3016754 43.1581772,45.3561514 44.3130667,48.1098773 C44.7817926,49.3323056 44.1943996,50.7059604 42.9867509,51.2115487 C41.7791021,51.717137 40.3882629,51.1716793 39.8462774,49.9799214 C39.1104454,48.2173123 37.3864162,47.070508 35.4763815,47.073117 C33.1896954,47.073117 30.7382904,48.3714896 30.7382904,51.2201579 C30.7382904,51.9662377 30.7382904,54.2141664 36.018985,55.4253349 L36.0964998,55.4253349 C43.847978,57.2372429 45.0591465,61.7815471 45.0591465,64.3298455 C45.068827,68.5763858 42.0659737,72.2334466 37.8987185,73.0502586 L37.8987185,74.9881282 C37.8987185,76.3259479 36.8142013,77.4104651 35.4763815,77.4104651 C34.1385617,77.4104651 33.0540445,76.3259479 33.0540445,74.9881282 L33.0540445,73.0502586 C30.162065,72.3064641 27.7848965,70.2519881 26.6300069,67.4982623 C26.2644872,66.6945303 26.3652361,65.7555785 26.8929519,65.0476902 C27.4206677,64.3398019 28.2917513,63.9751183 29.1663948,64.0959018 C30.0410382,64.2166853 30.7806834,64.8038017 31.0967963,65.6282181 C31.8360862,67.3923506 33.5636093,68.5389368 35.4763815,68.5350225 C37.7630676,68.5350225 40.2144726,67.2366499 40.2144726,64.3879816 C40.2144726,63.6419018 40.2144726,61.3939731 34.933778,60.1828047 L34.8562632,60.1828047 C27.0466489,58.3224499 25.8839271,53.7781457 25.8839271,51.2201579 Z" id="Path"></path>
                    <path d="M49.4236047,17.7781395 L47.8161628,17.7781395 C49.6988372,12.1855814 54.3003488,7.05348837 55.6472093,5.63232558 L54.3913953,4.44244186 C54.3913953,4.44244186 52.2240698,2.85174419 51.5574419,2.36406977 C50.7547674,1.77593023 49.6559302,0.971162791 47.6539535,0.971162791 C45.6509302,0.971162791 44.552093,1.77593023 43.7494186,2.36406977 C43.0827907,2.85174419 42.6809302,3.14686047 41.7139535,3.14686047 C40.7375581,3.14686047 40.3336047,2.85069767 39.6638372,2.36093023 C38.8632558,1.77488372 37.7665116,0.972209302 35.772907,0.972209302 C33.7698837,0.972209302 32.6710465,1.77697674 31.8694186,2.36511628 C31.2027907,2.8527907 30.8009302,3.14790698 29.832907,3.14790698 C28.8565116,3.14790698 28.4525581,2.85174419 27.7838372,2.36197674 C26.9832558,1.77593023 25.8865116,0.973255814 23.892907,0.973255814 C21.8898837,0.973255814 20.7910465,1.77802326 19.9894186,2.36616279 C19.3227907,2.85383721 17.4516279,4.42360465 17.4516279,4.42360465 L16.1727907,5.63546512 C17.5196512,7.05662791 22.1211628,12.1897674 24.0038372,17.7812791 L22.3963953,17.7812791 L22.3963953,19.3510465 L22.3963953,19.8743023 L49.4256977,19.8743023 L49.4256977,19.347907 L49.4236047,17.7781395 Z M25.1847483,7.34069404 C25.5731778,7.15773285 25.8795652,6.9377438 26.1380342,6.74897432 C26.6026975,6.40918925 26.8829476,6.20372093 27.5596136,6.20372093 C28.2304713,6.20372093 28.5099953,6.40773718 28.9724805,6.74679621 C29.5293505,7.15482871 30.2916888,7.71315075 31.6805966,7.71315075 C33.063696,7.71315075 33.8245823,7.15628078 34.3800002,6.74970036 C34.8446635,6.40991529 35.1249136,6.20444697 35.8015796,6.20444697 C36.4724373,6.20444697 36.7519613,6.40846321 37.2144465,6.74752225 C37.7713165,7.15555474 38.5336548,7.71387679 39.9232886,7.71387679 C41.3063881,7.71387679 42.0672743,7.15700682 42.6219662,6.75042639 C43.0866295,6.41064132 43.3668796,6.205173 44.0442716,6.205173 C44.7216636,6.205173 45.0019137,6.41064132 45.465851,6.75042639 C45.7540875,6.961703 46.1004069,7.21145955 46.5578099,7.40458525 C44.9169675,9.38666482 42.7860504,12.4178671 41.8589018,15.6872093 L29.9359309,15.6872093 C28.9986178,12.3822913 26.8328511,9.32132153 25.1847483,7.34069404 Z" id="Shape" fill-rule="nonzero"></path>
                    <polygon id="Shape" fill-rule="nonzero" points="49.4236047 23.7516279 49.4236047 22.4874419 49.4236047 22.1818605 22.3943023 22.1818605 22.3943023 22.4874419 22.3943023 23.7516279 22.3943023 24.2748837 49.4236047 24.2748837"></polygon>
                </g>
            </g>
        </g>
    </g>
</svg>