<?xml version="1.0" encoding="UTF-8"?>
<svg width="104px" height="89px" viewBox="0 0 104 89" version="1.1" xmlns="http://www.w3.org/2000/svg" xmlns:xlink="http://www.w3.org/1999/xlink">
    <!-- Generator: Sketch 46.2 (44496) - http://www.bohemiancoding.com/sketch -->
    <title>i-competition</title>
    <desc>Created with Sketch.</desc>
    <defs></defs>
    <g id="icons" stroke="none" stroke-width="1" fill="none" fill-rule="evenodd">
        <g id="i-competition" fill="#FFCC00">
            <g id="Group-2" transform="translate(0.000000, 57.000000)" fill-rule="nonzero">
                <path d="M0.791566265,20.8638554 L0.791566265,32 L8.38192771,32 L8.38192771,22.9024096 L35.6204819,22.9024096 C38.055381,22.896449 40.0277743,20.9240557 40.0337349,18.4891566 L40.0337349,7.83012048 L64.0843373,7.83012048 L64.0843373,18.4891566 C64.090298,20.9240557 66.0626913,22.896449 68.4975904,22.9024096 L95.7253012,22.9024096 L95.7253012,32 L103.315663,32 L103.315663,20.8855422 C103.315663,19.4073597 102.728457,17.9897197 101.683224,16.9444868 C100.637991,15.8992539 99.2203512,15.3120482 97.7421687,15.3120482 L71.7180723,15.3120482 L71.7180723,5.80240964 C71.7120919,2.72848936 69.2185044,0.239753219 66.1445783,0.239759036 L38.0168675,0.239759036 C34.9387117,0.239759036 32.4433735,2.73509729 32.4433735,5.81325301 L32.4433735,15.3228916 L6.35421687,15.3228916 C3.28029077,15.3228857 0.786703293,17.8116219 0.780722892,20.8855422 L0.791566265,20.8638554 Z" id="Shape"></path>
            </g>
            <polygon id="1" points="39 0 57 0 57 44.459364 47.459364 44.459364 47.459364 8.45936396 39 8.45936396"></polygon>
            <text id="2" font-family="Montserrat-Bold, Montserrat" font-size="44" font-weight="bold">
                <tspan x="0" y="61">2</tspan>
            </text>
            <text id="3" font-family="Montserrat-Bold, Montserrat" font-size="44" font-weight="bold">
                <tspan x="78" y="61">3</tspan>
            </text>
        </g>
    </g>
</svg>