<?xml version="1.0" encoding="UTF-8"?>
<svg width="77px" height="90px" viewBox="0 0 77 90" version="1.1" xmlns="http://www.w3.org/2000/svg" xmlns:xlink="http://www.w3.org/1999/xlink">
    <!-- Generator: Sketch 43.2 (39069) - http://www.bohemiancoding.com/sketch -->
    <title>Artboard</title>
    <desc>Created with Sketch.</desc>
    <defs></defs>
    <g id="icons" stroke="none" stroke-width="1" fill="none" fill-rule="evenodd">
        <g id="Artboard" fill-rule="nonzero" fill="#FFCC00">
            <path d="M57.4440777,4.25617374 C56.4907389,3.70336765 55.2717872,4.03139796 54.7213775,4.98888453 L50.735068,11.923443 C50.1846593,12.8809296 50.5112756,14.1051904 51.4646134,14.6579965 C52.4179503,15.2108026 53.636903,14.8827622 54.1873117,13.9252757 L58.1736232,6.99072719 C58.7240319,6.03324062 58.3974156,4.80896982 57.4440777,4.25617374 L57.4440777,4.25617374 Z M27.1963467,0.260645887 C26.754546,0.00446135315 26.2185199,-0.0716182968 25.6867652,0.071522747 C24.6235507,0.357654697 24.0004915,1.44151696 24.2853272,2.50945464 L26.3486171,10.2431347 C26.6333303,11.3108822 27.7126745,11.9367652 28.775889,11.6506333 C29.8391912,11.3645514 30.4622504,10.2806791 30.1773269,9.21270138 L28.1141247,1.47906133 C27.9717308,0.945052452 27.637974,0.516730329 27.1963467,0.260645887 L27.1963467,0.260645887 Z M76.0131666,28.5677607 C75.5715383,28.3116762 75.0354066,28.2356266 74.5036727,28.3786876 L66.8035777,30.4509447 C65.7402287,30.7371067 65.1171695,31.820979 65.4021408,32.8888766 C65.6870294,33.9567142 66.7662878,34.5825371 67.8294146,34.2963652 L75.5295943,32.2241581 C76.5928597,31.9379461 77.2159189,30.8540738 76.9310333,29.7862262 C76.7885506,29.2521773 76.4550549,28.8239953 76.0131666,28.5677607 L76.0131666,28.5677607 Z M49.4714587,18.1252707 C38.0535022,11.5044094 21.9068219,14.0288405 14.652503,26.6483935 C10.0776756,34.6067293 10.2546359,41.4528368 10.7759933,47.1545166 C11.2973767,52.8561364 12.0243221,57.2441536 9.35089964,61.8948112 L3.37143834,72.2966339 C1.68005717,75.2389276 2.81060744,78.9059847 5.56006578,80.5003443 L6.42313268,81.0008025 C4.78406585,83.8520127 5.77281711,87.5582057 8.61176012,89.2044128 C11.450729,90.8506199 15.1408099,89.8575107 16.7798758,87.0062003 L17.6429417,87.5066585 C20.3923761,89.1010181 24.1196502,88.2508398 25.8110314,85.3085462 L31.7904937,74.9067234 C34.4639162,70.2560658 38.6110115,68.6944362 43.7880965,66.2970414 C48.9651824,63.8996466 54.9568588,60.6305538 59.5317011,52.672168 C66.7860091,40.052675 60.8894152,24.746142 49.4714587,18.1252707 L49.4714587,18.1252707 Z M47.4783029,21.592555 C57.1107595,27.1780584 62.1616289,40.089879 56.0794364,50.6704354 C52.0020656,57.7633289 47.151582,60.3431907 42.1354493,62.6660172 C37.6311826,64.7517267 32.8278371,66.6160334 29.4427139,71.2337609 L13.6918333,62.1004995 C15.9810283,56.8472902 15.1869295,51.7371119 14.7332506,46.7764705 C14.2280158,41.2521431 14.0273629,35.7432097 18.1047507,28.6502262 C24.1869302,18.0697199 37.8458484,16.0070415 47.4783029,21.592555 Z M2.99007807,18.9105997 C2.03673919,18.3577936 0.817787529,18.6858339 0.267377841,19.6433205 C-0.283032844,20.6008171 0.0435854275,21.8250678 0.996924306,22.3778739 L7.90141172,26.3815492 C8.8547496,26.9343553 10.0737043,26.606305 10.624113,25.6488184 C11.1745226,24.6913319 10.8479064,23.4670711 9.89456848,22.914265 L2.99007807,18.9105997 L2.99007807,18.9105997 Z M65.1305047,54.9435474 C64.1771419,54.3907413 62.9582022,54.7187416 62.4077815,55.6763182 C61.8573878,56.6336947 62.1839881,57.8580155 63.1373509,58.4108216 L70.0418304,62.4144869 C70.9951662,62.967293 72.2141329,62.6391927 72.7645276,61.6818162 C73.3149463,60.7242395 72.98832,59.5000188 72.0349841,58.9472127 L65.1305047,54.9435474 Z M11.8065759,65.6302309 L27.3416636,74.6385779 L25.3485099,78.1058522 L9.81342117,69.0975052 L11.8065759,65.6302309 L11.8065759,65.6302309 Z M7.8202674,72.5647794 L23.3553571,81.5731264 L22.3587927,83.3067135 C21.7599364,84.3484672 20.5296128,84.5575586 19.6360954,84.0393843 L7.55322054,77.0330701 C6.65970521,76.5148957 6.22484667,75.3402203 6.82367706,74.2984666 L7.8202674,72.5647794 L7.8202674,72.5647794 Z M9.8753724,83.0026351 L13.327637,85.0043677 C12.7582834,85.9948745 11.5910551,86.308962 10.6049139,85.7371385 C9.61879957,85.165315 9.30604469,83.9929417 9.8753724,83.0026351 L9.8753724,83.0026351 Z" id="Shape"></path>
        </g>
    </g>
</svg>