<?xml version="1.0" encoding="UTF-8"?>
<svg width="67px" height="78px" viewBox="0 0 67 78" version="1.1" xmlns="http://www.w3.org/2000/svg" xmlns:xlink="http://www.w3.org/1999/xlink">
    <!-- Generator: Sketch 44.1 (41455) - http://www.bohemiancoding.com/sketch -->
    <title>Artboard Copy</title>
    <desc>Created with Sketch.</desc>
    <defs></defs>
    <g id="icons" stroke="none" stroke-width="1" fill="none" fill-rule="evenodd">
        <g id="Artboard-Copy" fill-rule="nonzero" fill="#1A1A1A">
            <path d="M33.436913,2.87012814e-06 C32.5558621,-0.00164868 31.8430162,0.709670592 31.8446748,1.58884078 L31.8566942,7.95619173 C31.8583535,8.83536153 32.573886,9.549367 33.4549361,9.55101895 C34.3359856,9.55267129 35.0488281,8.84134472 35.0471689,7.96217493 L35.0351548,1.59483008 C35.0334956,0.715660287 34.3179591,0.00164791658 33.436913,2.87012822e-06 L33.436913,2.87012814e-06 Z M10.8968923,9.2848684 C11.3050331,9.28563419 11.7073378,9.44807621 12.0193949,9.75954623 L16.539385,14.2699212 C17.1635772,14.8927797 17.1654568,15.8879968 16.5436104,16.5084443 C15.9218447,17.1288913 14.9243387,17.1270138 14.3003841,16.5042303 L9.78031731,11.9938626 C9.15620187,11.3709968 9.15432623,10.3757866 9.77609194,9.75533957 C10.0870469,9.4450056 10.4885914,9.28410262 10.8968923,9.2848684 L10.8968923,9.2848684 Z M56.0121341,9.36946537 C56.4205157,9.37023074 56.8225836,9.53268007 57.1347181,9.8441424 C57.7588321,10.4669263 57.7607117,11.4621434 57.1389428,12.0826658 L52.6358681,16.5761217 C52.0141792,17.1965614 51.0167565,17.1946912 50.3926445,16.5719154 C49.7684512,15.9491311 49.7665716,14.953914 50.3884185,14.3333928 L54.8914145,9.83993614 C55.202387,9.5296657 55.6039926,9.36869997 56.0121341,9.36946537 L56.0121341,9.36946537 Z M33.4609438,12.734691 C44.0131277,12.7544844 54.2144887,20.9598334 54.2363398,32.5471359 C54.2501416,39.8545664 51.4084432,44.4931281 48.7822924,48.2065115 C46.1561423,51.9198946 43.9090411,54.647137 43.9170976,58.9173997 L43.9351221,68.468415 C43.9402131,71.1700507 41.699388,73.2397177 39.1584072,73.2349105 L38.3607851,73.2334167 C38.365728,75.8515056 36.2077904,78.0049054 33.5840923,77.9999916 C30.9604121,77.9950675 28.7942949,75.8335612 28.7893928,73.2155409 L27.99177,73.2140475 C25.4507726,73.2092499 23.2021215,71.1311636 23.1970305,68.4295278 L23.1790053,58.8785129 C23.1709488,54.6082502 20.9135449,51.8724876 18.2733626,48.1493063 C15.6331742,44.4260733 12.7739604,39.7767909 12.7601683,32.4694008 C12.7383007,20.8820525 22.908764,12.7149044 33.4609438,12.734691 L33.4609438,12.734691 Z M33.4669549,15.9183703 C24.5648896,15.9016777 15.9323126,22.7602983 15.9506458,32.4753824 C15.9629342,38.9882034 18.3040249,42.7062055 20.8621547,46.3135887 C23.1592583,49.5528866 25.7518373,52.7597794 26.2667904,57.2925095 L40.8233041,57.3197314 C41.3211764,52.7888953 43.9016567,49.591782 46.1865573,46.3610747 C48.7310761,42.7631623 51.0581549,39.0539821 51.0458907,32.5412301 C51.0275464,22.8261062 42.3690176,15.9350552 33.4669549,15.9183703 Z M1.59223706,31.7769041 C0.711186241,31.7752525 -0.00165565863,32.4865787 2.88830345e-06,33.3657489 C0.00166474633,34.2449264 0.717194656,34.9589241 1.59824547,34.9605757 L7.97919883,34.972549 C8.86024895,34.9742009 9.57308892,34.2628667 9.57142969,33.3836969 C9.56977114,32.5045267 8.85423861,31.7905212 7.97318848,31.7888693 L1.59223706,31.7769041 L1.59223706,31.7769041 Z M59.0207929,31.884558 C58.1397255,31.882916 57.4268759,32.5942098 57.4285628,33.4734465 C57.4301884,34.3525344 58.1457339,35.0665876 59.0268013,35.0682297 L65.4077451,35.0801992 C66.2887939,35.081852 67.0016221,34.3704784 66.9999972,33.4913901 C66.9983089,32.6121542 66.2827855,31.8981803 65.4017367,31.8965276 L59.0207929,31.884558 Z M26.3724707,60.4762936 L26.3784784,63.6599657 L40.735649,63.6869622 L40.7296406,60.5032906 L26.3724707,60.4762936 L26.3724707,60.4762936 Z M26.3844869,66.8436373 L26.3875017,68.435513 C26.3893202,69.3920498 27.1599757,70.0287877 27.9857623,70.0303755 L39.1523988,70.0512389 C39.9781867,70.0528258 40.7464514,69.4189769 40.7446509,68.4624298 L40.7416581,66.8706334 L26.3844869,66.8436373 L26.3844869,66.8436373 Z M31.9798647,73.2215257 C31.9815445,74.1308519 32.666738,74.8146033 33.5780838,74.81632 C34.4894483,74.818026 35.1720557,74.1369061 35.1703139,73.2274315 L31.9798647,73.2215257 L31.9798647,73.2215257 Z" id="Shape"></path>
        </g>
    </g>
</svg>