<?xml version="1.0" encoding="UTF-8"?>
<svg width="77px" height="90px" viewBox="0 0 77 90" version="1.1" xmlns="http://www.w3.org/2000/svg" xmlns:xlink="http://www.w3.org/1999/xlink">
    <!-- Generator: Sketch 46.2 (44496) - http://www.bohemiancoding.com/sketch -->
    <title>i-next-steps</title>
    <desc>Created with Sketch.</desc>
    <defs></defs>
    <g id="icons" stroke="none" stroke-width="1" fill="none" fill-rule="evenodd">
        <g id="i-next-steps" fill="#FFCC00">
            <path d="M26.4011297,85.0018829 C28.8312866,85.0018829 30.801318,83.0318515 30.801318,80.6016946 L30.801318,67.4011297 L50.6021653,67.4011297 C53.0323222,67.4011297 55.0023536,65.4310983 55.0023536,63.0009415 L55.0023536,49.8003766 L74.8032009,49.8003766 C76.0164596,49.8003766 77,48.8249578 77,47.57967 L77,43.2207066 C77,41.9942441 76.0123333,41 74.7834404,41 L50.6021653,41 C48.1720084,41 46.201977,42.9700314 46.201977,45.4001883 L46.201977,58.6007532 L26.4011297,58.6007532 C23.9709729,58.6007532 22.0009415,60.5707846 22.0009415,63.0009415 L22.0009415,76.2015063 L2.20553562,76.2015063 C0.987451935,76.2015063 0,77.1769251 0,78.4222129 L0,82.7811763 C0,84.0076388 0.989929628,85.0018829 2.21515482,85.0018829 L26.4011297,85.0018829 Z" id="Shape"></path>
            <path d="M26.9813585,19.5942833 C27.7536223,18.8144741 27.739838,17.5565524 26.9554274,16.7797316 L24.1675582,14.0188369 C23.3711074,13.2300924 22.1205869,13.2450715 21.34755,14.0256614 L9.54907077,25.9394143 C8.77661661,26.7194156 8.77661681,27.9800506 9.55037306,28.7538068 L21.3598294,40.5632631 C22.1330022,41.336436 23.3936606,41.3314514 24.1742855,40.5508265 L26.9487001,37.7764119 C27.7413072,36.9838048 27.7299354,35.7307544 26.9500634,34.9508824 L23.2413553,31.2421741 L51.2926325,31.2421741 C52.3938429,31.2421741 53.2865503,30.3641748 53.2865503,29.2432592 L53.2865503,25.3196442 C53.2865503,24.215674 52.3954892,23.3207292 51.2926325,23.3207292 L23.2909683,23.3207292 L26.9813585,19.5942833 Z" id="Shape" transform="translate(31.128222, 27.286729) scale(-1, 1) rotate(31.000000) translate(-31.128222, -27.286729) "></path>
        </g>
    </g>
</svg>