<?xml version="1.0" encoding="UTF-8"?>
<svg width="77px" height="90px" viewBox="0 0 77 90" version="1.1" xmlns="http://www.w3.org/2000/svg" xmlns:xlink="http://www.w3.org/1999/xlink">
    <!-- Generator: Sketch 46.2 (44496) - http://www.bohemiancoding.com/sketch -->
    <title>i-pilot</title>
    <desc>Created with Sketch.</desc>
    <defs></defs>
    <g id="icons" stroke="none" stroke-width="1" fill="none" fill-rule="evenodd">
        <g id="i-pilot" fill-rule="nonzero" fill="#FFCC00">
            <g id="noun_688426_cc" transform="translate(11.000000, 0.000000)">
                <path d="M52.1,75.4 L48.8,72 C48.8,72 45.4,68.6333333 38.6,61.9 C36.4,59.7 35.3,56.9 35.3,53.8 L35.3,37.6 C35.3,37.3 35.6,37.2 35.8,37.1 C37.7,37.1 39.2,35.5 39.2,33.6 L39.2,31.8 C39.2,29.9 37.7,28.3 35.7,28.3 L20.3,28.3 C18.4,28.3 16.8,29.8 16.8,31.8 L16.8,33.6 C16.8,35.5 18.3,37 20.3,37.1 C20.5,37.1 20.7,37.3 20.7,37.6 L20.7,53.9 C20.7,56.9 19.5,59.8 17.4,62 L7.2,72 C7.2,72 6.06666667,73.1333333 3.8,75.4 C1.4,77.8 0.1,80.9 0.1,84.3 L0.1,85.3 C0.1,87.5 1.9,89.3 4.1,89.3 L51.7,89.3 C53.9,89.3 55.7,87.5 55.7,85.3 L55.7,84.3 C55.8,81 54.5,77.8 52.1,75.4 Z M20.5985294,63.8986007 C22.9516254,61.5455047 24.2589009,58.4080434 24.2589009,55.009127 L24.2589009,36.8905512 C24.2589009,35.2346688 22.9516254,33.9273933 21.295743,33.8402416 C21.0342879,33.8402416 20.8599845,33.6659382 20.8599845,33.4044831 L20.8599845,31.8357524 C20.8599845,31.661449 21.0342879,31.3999939 21.295743,31.3999939 L34.804257,31.3999939 C34.9785604,31.3999939 35.2400155,31.5742973 35.2400155,31.8357524 L35.2400155,33.4044831 C35.2400155,33.5787865 35.0657121,33.7530899 34.8914087,33.8402416 C33.2355263,33.8402416 31.8410991,35.2346688 31.8410991,36.8905512 L31.8410991,55.0962787 C31.8410991,58.4080434 33.1483746,61.6326564 35.5014706,63.9857524 L42.125,70.6092818 L13.975,70.6092818 L20.5985294,63.8986007 Z M28.5,21.6 C28.5,24.4 30.7,26.6 33.5,26.6 C36.3,26.6 38.5,24.4 38.5,21.6 C38.5,18.8 36.3,16.6 33.5,16.6 C30.7,16.6 28.5,18.8 28.5,21.6 Z M33.5,19.6 C34.6,19.6 35.5,20.5 35.5,21.6 C35.5,22.7 34.6,23.6 33.5,23.6 C32.4,23.6 31.5,22.7 31.5,21.6 C31.5,20.5 32.4,19.6 33.5,19.6 Z M26,10.6 C28.8,10.6 31,8.4 31,5.6 C31,2.8 28.8,0.6 26,0.6 C23.2,0.6 21,2.8 21,5.6 C21,8.3 23.2,10.6 26,10.6 Z M26,3.6 C27.1,3.6 28,4.5 28,5.6 C28,6.7 27.1,7.6 26,7.6 C24.9,7.6 24,6.7 24,5.6 C24,4.5 24.9,3.6 26,3.6 Z M22.5,22.3 C25.3,22.3 27.5,20.1 27.5,17.3 C27.5,14.5 25.3,12.3 22.5,12.3 C19.7,12.3 17.5,14.5 17.5,17.3 C17.5,20 19.7,22.3 22.5,22.3 Z M22.5,15.3 C23.6,15.3 24.5,16.2 24.5,17.3 C24.5,18.4 23.6,19.3 22.5,19.3 C21.4,19.3 20.5,18.4 20.5,17.3 C20.5,16.2 21.4,15.3 22.5,15.3 Z" id="Shape"></path>
            </g>
        </g>
    </g>
</svg>