<?xml version="1.0" encoding="UTF-8"?>
<svg width="77px" height="90px" viewBox="0 0 77 90" version="1.1" xmlns="http://www.w3.org/2000/svg" xmlns:xlink="http://www.w3.org/1999/xlink">
    <!-- Generator: Sketch 46.2 (44496) - http://www.bohemiancoding.com/sketch -->
    <title>i-product</title>
    <desc>Created with Sketch.</desc>
    <defs></defs>
    <g id="icons" stroke="none" stroke-width="1" fill="none" fill-rule="evenodd">
        <g id="i-product" fill-rule="nonzero" fill="#FFCC00">
            <g id="noun_928516_cc" transform="translate(14.000000, 0.000000)">
                <path d="M47.78,15.246 L2.22,15.246 C1.27,15.246 0.5,14.475 0.5,13.524 L0.5,11.66 C0.5,5.23 5.752,0 12.207,0 L37.793,0 C44.248,0 49.5,5.23 49.5,11.66 L49.5,13.524 C49.5,14.475 48.73,15.246 47.78,15.246 Z M3.939,11.803 L46.06,11.803 L46.06,11.66 C46.06,7.129 42.351,3.442 37.792,3.442 L12.207,3.442 C7.648,3.442 3.939,7.129 3.939,11.66 L3.939,11.803 Z" id="Shape"></path>
                <path d="M37.793,90 L12.207,90 C5.752,90 0.5,84.77 0.5,78.34 L0.5,70.962 C0.5,70.012 1.27,69.24 2.22,69.24 L47.78,69.24 C48.73,69.24 49.5,70.011 49.5,70.962 L49.5,78.34 C49.5,84.77 44.248,90 37.793,90 Z M3.939,72.684 L3.939,78.34 C3.939,82.871 7.648,86.558 12.207,86.558 L37.793,86.558 C42.352,86.558 46.061,82.871 46.061,78.34 L46.061,72.684 L3.939,72.684 Z" id="Shape"></path>
                <circle id="Oval" cx="25" cy="79.232" r="3.287"></circle>
                <path d="M33.17,7.623 C33.17,8.234 32.675,8.729 32.065,8.729 L17.936,8.729 C17.326,8.729 16.831,8.234 16.831,7.623 L16.831,7.623 C16.831,7.012 17.326,6.517 17.936,6.517 L32.065,6.517 C32.675,6.517 33.17,7.012 33.17,7.623 L33.17,7.623 Z" id="Shape"></path>
                <path d="M47.78,72.684 L2.22,72.684 C1.27,72.684 0.5,71.913 0.5,70.962 L0.5,13.524 C0.5,12.574 1.27,11.802 2.22,11.802 L47.78,11.802 C48.73,11.802 49.5,12.573 49.5,13.524 L49.5,70.962 C49.5,71.912 48.73,72.684 47.78,72.684 Z M3.939,69.24 L46.06,69.24 L46.06,15.246 L3.939,15.246 L3.939,69.24 Z" id="Shape"></path>
            </g>
        </g>
    </g>
</svg>