<?xml version="1.0" encoding="UTF-8"?>
<svg width="120px" height="120px" viewBox="0 0 120 120" version="1.1" xmlns="http://www.w3.org/2000/svg" xmlns:xlink="http://www.w3.org/1999/xlink">
    <!-- Generator: Sketch 46.2 (44496) - http://www.bohemiancoding.com/sketch -->
    <title>rj-icon</title>
    <desc>Created with Sketch.</desc>
    <defs></defs>
    <g id="icons" stroke="none" stroke-width="1" fill="none" fill-rule="evenodd">
        <g id="rj-icon">
            <g id="rolando-copy">
                <path d="M28.1975663,0.0898999554 L92.000534,0.0898999554 C107.41361,0.0898999554 119.959138,12.635554 119.959138,28.0487861 L119.959138,91.852398 C119.959138,107.26563 107.41361,119.811284 92.000534,119.811284 L28.1975663,119.811284 C12.7844898,119.811284 0.238962426,107.26563 0.238962426,91.852398 L0.238962426,28.0487861 C0.238962426,12.635554 12.7844898,0.0898999554 28.1975663,0.0898999554 L28.1975663,0.0898999554 Z" id="XMLID_3_" fill="#19191A"></path>
                <path d="M73.9588708,98.1849662 C72.405615,95.7953178 72.7640587,92.5692925 71.4497653,89.9406793 C69.7770284,86.3562067 67.7458477,85.6393122 64.6393362,85.5198298 C61.5328247,85.4003474 58.0678695,87.0731012 56.9925386,87.7899957 C55.9172077,88.6263727 51.7353652,91.4939507 52.4522525,98.6628959 C53.1691398,105.831841 62.7276368,108.340972 64.8782986,108.221489 C63.5640053,107.504595 62.2497119,105.831841 62.4886744,104.27857 C68.7016974,109.177349 73.7199084,107.385113 73.7199084,107.385113 C70.8523593,104.637017 70.4939156,99.4992728 70.6133969,95.3173882 C71.6887278,96.7511772 72.405615,97.4680717 73.9588708,98.1849662 L73.9588708,98.1849662 Z M66.5510356,101.530474 C61.174381,101.769439 54.2444707,95.3173882 54.6029143,92.6887749 C54.961358,90.0601617 57.1120198,88.6263727 57.3509822,88.5068903 C57.5899446,88.3874078 60.3380125,86.3562067 62.6081556,87.4315485 C65.1172611,89.1043024 65.4757047,91.0160211 65.5951859,93.0472222 C65.7146671,95.556353 66.6705168,97.3485893 66.6705168,97.3485893 C66.6705168,97.3485893 64.8782986,96.8706596 63.9224489,94.8394585 C63.8029677,97.5875541 65.5951859,100.574615 66.5510356,101.530474 L66.5510356,101.530474 Z M74.6757581,43.700983 L74.6757581,43.700983 C71.6887278,45.2542545 68.3432538,46.2101138 64.7588174,46.2101138 C58.4263131,46.2101138 52.6912149,43.3425358 48.8678161,38.9216862 L48.8678161,38.9216862 C44.8054549,45.7321841 37.7560633,66.1636778 51.1379591,88.148443 C54.0055083,85.2808649 56.8730574,82.7717341 61.174381,82.0548396 C61.174381,61.5038635 66.3120732,54.5738832 74.6757581,43.700983 L74.6757581,43.700983 Z M64.4003738,41.0723698 C72.2861338,41.0723698 78.6186381,34.6203191 78.6186381,26.614997 C78.6186381,18.609675 72.2861338,12.1576243 64.4003738,12.1576243 C56.5146137,12.1576243 50.1821094,18.609675 50.1821094,26.614997 C50.1821094,34.6203191 56.5146137,41.0723698 64.4003738,41.0723698 L64.4003738,41.0723698 Z M73.6004272,50.7504458 C74.9147205,55.7687074 80.1718939,58.8752503 83.7563303,57.7999085 C83.2784054,60.3090393 82.5615181,67.358502 84.5926988,71.062457 C85.4290673,64.1324767 87.1018042,60.786969 92.9563837,53.1400941 C80.1718939,55.5297425 78.8576005,53.0206117 73.6004272,50.7504458 L73.6004272,50.7504458 Z M33.5742208,37.6073796 C34.4105893,32.3501532 33.096296,27.2124091 30.2287469,24.7032783 C30.7066717,31.3942938 30.7066717,37.3684148 26.5248293,43.5815006 C32.4988899,40.2359929 37.039176,40.4749577 42.5353118,43.700983 C41.2210185,38.3242741 37.6365821,36.8904851 33.5742208,37.6073796 L33.5742208,37.6073796 Z" id="rolando" fill="#FFCC00"></path>
            </g>
        </g>
    </g>
</svg>