<?xml version="1.0" encoding="UTF-8"?>
<svg width="77px" height="90px" viewBox="0 0 77 90" version="1.1" xmlns="http://www.w3.org/2000/svg" xmlns:xlink="http://www.w3.org/1999/xlink">
    <!-- Generator: Sketch 46.2 (44496) - http://www.bohemiancoding.com/sketch -->
    <title>i-strategy</title>
    <desc>Created with Sketch.</desc>
    <defs></defs>
    <g id="icons" stroke="none" stroke-width="1" fill="none" fill-rule="evenodd">
        <g id="i-strategy" fill-rule="nonzero" fill="#FFCC00">
            <path d="M62.2878483,83.5288454 C64.0727078,81.9568389 64.8436262,79.5277291 64.2919146,77.2141729 C63.7402029,74.9006167 61.9560499,73.0808125 59.6538607,72.4834408 L59.6538607,71.7788762 C59.6538607,69.3842899 57.712665,67.4430942 55.3180787,67.4430942 C54.8110454,67.4591372 54.3607012,67.1213791 54.2341332,66.6301351 C51.4070195,55.3214687 49.9763884,43.7089672 49.9742274,32.0522737 L49.9742274,27.1203217 C52.7231679,26.3987683 54.6852198,23.9758317 54.8194638,21.1369425 L59.5996634,2.01614397 C59.7193708,1.53195923 59.6102272,1.01961937 59.3035772,0.626261418 C58.9969272,0.232903464 58.5267015,0.00205234003 58.0279425,5.34653293e-06 L49.9959063,5.34653293e-06 C49.2021058,-0.000513270012 48.5239669,0.572239102 48.391667,1.35493722 L47.0150562,9.63628082 L45.1940278,9.63628082 L45.1940278,1.62592359 C45.1940278,0.727953741 44.4660794,5.34653293e-06 43.5681095,5.34653293e-06 L33.9426735,5.34653293e-06 C33.0447037,5.34653293e-06 32.3167553,0.727953741 32.3167553,1.62592359 L32.3167553,9.63628082 L30.4957268,9.63628082 L29.1191161,1.35493722 C28.9868161,0.572239102 28.3086773,-0.000513270012 27.5148767,5.34653293e-06 L19.4828406,5.34653293e-06 C18.9821783,-0.00127698197 18.5088437,0.228170306 18.1997098,0.621998397 C17.8905759,1.01582649 17.7801192,1.53011346 17.9002802,2.01614397 L22.6913193,21.1369425 C22.8244845,23.9595609 24.7650449,26.3732151 27.4931978,27.1094822 L27.4931978,32.0414343 C27.4945813,43.7126347 26.0639236,55.3399132 23.233292,66.6626534 C23.106724,67.1538975 22.6563798,67.4916556 22.1493465,67.4756126 C19.7547602,67.4756126 17.8135645,69.4168083 17.8135645,71.8113946 L17.8135645,72.5159591 C15.5113753,73.1133308 13.7272223,74.9331351 13.1755107,77.2466913 C12.623799,79.5602474 13.3947174,81.9893573 15.179577,83.5613637 C13.8012025,84.7812134 13.0119097,86.5334434 13.011686,88.3740818 C13.011686,89.2720516 13.7396344,90 14.6376042,90 L62.8406605,90 C63.7386303,90 64.4665787,89.2720516 64.4665787,88.3740818 C64.4729615,86.5204 63.6787685,84.7542097 62.2878483,83.5288454 Z M30.7450343,27.3371108 L46.7657487,27.3371108 L46.7657487,28.8979923 L30.7450343,28.8979923 L30.7450343,27.3371108 Z M26.1382659,3.25184184 L27.5148767,11.5331854 C27.6471767,12.3158836 28.3253155,12.8886359 29.1191161,12.8881173 L33.9318341,12.8881173 C34.8298039,12.8881173 35.5577523,12.1601689 35.5577523,11.2621991 L35.5577523,3.25184184 L41.9421913,3.25184184 L41.9421913,11.2621991 C41.9421913,12.1601689 42.6701397,12.8881173 43.5681095,12.8881173 L48.3808275,12.8881173 C49.1746281,12.8886359 49.8527669,12.3158836 49.9850669,11.5331854 L51.3616777,3.25184184 L55.9359277,3.25184184 L51.9361688,19.2725563 L25.5746143,19.2725563 L21.5640159,3.25184184 L26.1382659,3.25184184 Z M26.3767339,22.5243928 L51.1340491,22.5243928 C50.5505206,23.4830619 49.5138984,24.0730762 48.391667,24.0852743 L29.1191161,24.0852743 C27.9968847,24.0730762 26.9602624,23.4830619 26.3767339,22.5243928 Z M21.1087588,71.7788762 C21.1087588,71.1802296 21.5940578,70.6949307 22.1927043,70.6949307 C24.1726445,70.698403 25.9034301,69.3601668 26.3984129,67.4430942 C29.2742947,55.909951 30.7303422,44.0686449 30.7341948,32.1823472 L46.7657487,32.1823472 C46.7696014,44.0686449 48.2256489,55.909951 51.1015307,67.4430942 C51.5965135,69.3601668 53.3272991,70.698403 55.3072393,70.6949307 C55.9058858,70.6949307 56.3911848,71.1802296 56.3911848,71.7788762 L56.3911848,72.2666517 L21.1087588,72.2666517 L21.1087588,71.7788762 Z M16.2960408,78.7052879 C16.3306153,76.9597888 17.7373414,75.5530626 19.4828406,75.5184882 L58.0279425,75.5184882 C59.7909566,75.5184882 61.220162,76.9476935 61.220162,78.7107076 C61.220162,80.4737218 59.7909566,81.9029271 58.0279425,81.9029271 L19.4828406,81.9029271 C17.733218,81.8681651 16.3248616,80.4550184 16.2960408,78.7052879 Z M16.7404585,86.7156451 C17.323987,85.756976 18.3606092,85.1669617 19.4828406,85.1547636 L58.0279425,85.1547636 C59.1501738,85.1669617 60.1867961,85.756976 60.7703246,86.7156451 L16.7404585,86.7156451 Z" id="Shape"></path>
        </g>
    </g>
</svg>