<?xml version="1.0" encoding="UTF-8"?>
<svg width="131px" height="90px" viewBox="0 0 131 90" version="1.1" xmlns="http://www.w3.org/2000/svg" xmlns:xlink="http://www.w3.org/1999/xlink">
    <!-- Generator: Sketch 46.2 (44496) - http://www.bohemiancoding.com/sketch -->
    <title>i-team</title>
    <desc>Created with Sketch.</desc>
    <defs></defs>
    <g id="icons" stroke="none" stroke-width="1" fill="none" fill-rule="evenodd">
        <g id="i-team" fill-rule="nonzero" fill="#FFCC00">
            <path d="M39.1935484,0 C28.0213723,0 18.8709677,9.15008226 18.8709677,20.3225806 C18.8709677,26.9789647 22.138364,32.939894 27.1270161,36.6532258 C11.4533506,41.4108827 0,55.1654042 0,71.6733871 L0,85.6451613 C0.000240465072,88.0501727 1.94982731,89.9997595 4.35483871,90 L126.290323,90 C128.695334,89.9997595 130.644921,88.0501727 130.645161,85.6451613 L130.645161,71.71875 C130.645161,55.2108847 119.192661,41.4223708 103.518145,36.6532258 C108.506797,32.939894 111.774194,26.9789647 111.774194,20.3225806 C111.774194,9.15008226 102.623789,0 91.4516129,0 C80.2794063,0 71.1290323,9.15011129 71.1290323,20.3225806 C71.1290323,26.9560873 74.3801444,32.8920648 79.3397177,36.6078629 C79.0692518,36.6896424 78.7909442,36.7472163 78.5231855,36.8346774 C76.2402301,37.5932467 75.0003343,40.0549221 75.7498266,42.3408736 C76.4993189,44.626825 78.9560482,45.8764921 81.2449597,45.1360887 C84.4242692,44.0974597 87.8510831,43.5483871 91.4516129,43.5483871 C108.572751,43.5483871 121.935484,56.2123306 121.935484,71.71875 L121.935484,81.2903226 L78.3870968,81.2903226 L78.3870968,71.6733871 C78.3870968,55.1654042 66.9337461,41.4108827 51.2600806,36.6532258 C56.2487298,32.9398911 59.516129,26.9789574 59.516129,20.3225806 C59.516129,9.15011129 50.365755,0 39.1935484,0 Z M39.1935484,8.70967742 C45.6588827,8.70967742 50.8064516,13.8569661 50.8064516,20.3225806 C50.8064516,26.7877452 45.6587826,31.9354839 39.1935484,31.9354839 C32.7283679,31.9354839 27.5806452,26.7877306 27.5806452,20.3225806 C27.5806452,13.8569952 32.7282677,8.70967742 39.1935484,8.70967742 Z M91.4516129,8.70967742 C97.9168935,8.70967742 103.064516,13.8569952 103.064516,20.3225806 C103.064516,26.7877306 97.9167934,31.9354839 91.4516129,31.9354839 C84.9863787,31.9354839 79.8387097,26.7877452 79.8387097,20.3225806 C79.8387097,13.8569661 84.9862785,8.70967742 91.4516129,8.70967742 Z M39.1935484,43.5483871 C56.3178571,43.5483871 69.6774194,56.1669677 69.6774194,71.6733871 L69.6774194,81.2903226 L8.70967742,81.2903226 L8.70967742,71.6733871 C8.70967742,56.1669677 22.0692397,43.5483871 39.1935484,43.5483871 Z" id="Shape"></path>
        </g>
    </g>
</svg>