<?xml version="1.0" encoding="UTF-8"?>
<svg width="80px" height="80px" viewBox="0 0 80 80" version="1.1" xmlns="http://www.w3.org/2000/svg" xmlns:xlink="http://www.w3.org/1999/xlink">
    <!-- Generator: Sketch 46.2 (44496) - http://www.bohemiancoding.com/sketch -->
    <title>i-turnstile</title>
    <desc>Created with Sketch.</desc>
    <defs></defs>
    <g id="graphics" stroke="none" stroke-width="1" fill="none" fill-rule="evenodd">
        <g id="Artboard" transform="translate(-326.000000, -604.000000)">
            <g id="i-turnstile" transform="translate(326.000000, 604.000000)">
                <g id="noun_75198_cc" transform="translate(26.440000, 0.000000)" fill-rule="nonzero" fill="#494949">
                    <g id="Group" transform="translate(21.280000, 40.000000) scale(-1, 1) rotate(-180.000000) translate(-21.280000, -40.000000) ">
                        <path d="M2.12192814,78.6841304 C1.26622529,78.1724033 0.765027902,77.5144685 0.349400803,76.2717027 C0.129362927,75.6503198 0.32495215,30.9960402 0.544990026,30.569601 C0.679457617,30.3259214 20.2506042,0.901614377 20.3850718,0.75540664 C20.7151287,0.389887298 21.4730369,0 21.8397667,0 C21.9864586,0 40.0662374,3.37496193 40.5674348,4.36186415 C40.8241456,4.88577521 40.8608186,5.14163875 40.9341646,7.24946695 C41.4720349,23.1617423 42.596673,62.0408163 42.5477757,63.1130064 C42.3032891,68.0231496 40.6285564,71.5321352 37.84141,72.9211087 C36.7289963,73.4815717 16.8400172,79.9390801 16.0698846,79.987816 C15.7031548,80.012184 2.64757417,78.9887298 2.12192814,78.6841304 Z M34.1863364,69.8507463 C34.0763175,69.8141943 22.8421615,68.7176363 22.5976749,68.7176363 C22.5121046,68.7176363 22.2553938,69.0587877 22.0475802,69.4730429 C21.4974855,70.557417 20.6417827,71.4102955 19.6393879,71.8489187 C19.1870878,72.0560463 11.3635189,75.4919281 11.4124162,75.5162961 C11.4979865,75.540664 14.7496573,75.8452635 15.5197899,75.8939994 C15.6542575,75.9061834 34.2352337,69.8629302 34.1863364,69.8507463 Z M18.294712,67.7307341 C18.8448067,67.0118794 19.3582284,64.8187633 19.6027149,62.2601279 C19.7738555,60.4812671 19.9327718,8.91867195 19.7616312,9.07706366 C19.6882852,9.15016753 14.5988907,16.7895218 4.49344747,31.9951264 C4.27340959,59.9532948 4.1715402,73.9526856 4.18783931,73.9932988 C4.21228796,74.0420347 4.26118526,74.0785867 4.31008257,74.0785867 C4.35897988,74.0785867 18.1357958,67.9378617 18.294712,67.7307341 Z M38.1592425,65.2452026 C38.2448128,64.8431313 38.3548317,63.880597 38.3915047,63.1130064 C38.4526263,62.0773683 36.8879125,7.15199513 36.8023422,6.98141943 C36.7860431,6.96517413 32.523828,6.16915423 24.0156968,4.59335973 C23.8608553,43.4521271 23.7426868,63.157681 23.6611913,63.7100213 C23.575621,64.1973804 23.5389481,64.6238197 23.5511724,64.6360037 C23.6245183,64.6969235 37.1812964,66.0127932 37.5846991,65.9884252 C38.0003262,65.9762412 38.0125506,65.9640573 38.1592425,65.2452026 Z" id="Shape"></path>
                    </g>
                </g>
                <g id="Group-2" transform="translate(12.000000, 14.476190)">
                    <ellipse id="Oval-6" fill="#868686" cx="25.9313263" cy="7.12299267" rx="4.30055706" ry="7.12299267"></ellipse>
                    <path d="M24.3009507,6.4695071 L0,6.4695071" id="Line" stroke="#868686" stroke-width="6.85714286" stroke-linecap="round"></path>
                    <path d="M26.6985307,6.40415854 L7.8693172,23.721526" id="Line-Copy" stroke="#868686" stroke-width="6.85714286" stroke-linecap="round"></path>
                    <path d="M26.0153846,6.20811287 L26.0153846,33.0254161" id="Line-Copy-2" stroke="#868686" stroke-width="6.85714286" stroke-linecap="round"></path>
                </g>
            </g>
        </g>
    </g>
</svg>