<?xml version="1.0" encoding="UTF-8"?>
<svg width="21px" height="21px" viewBox="0 0 21 21" version="1.1" xmlns="http://www.w3.org/2000/svg" xmlns:xlink="http://www.w3.org/1999/xlink">
    <!-- Generator: Sketch 43.2 (39069) - http://www.bohemiancoding.com/sketch -->
    <title>bullet-3</title>
    <desc>Created with Sketch.</desc>
    <defs></defs>
    <g id="Investors-Web" stroke="none" stroke-width="1" fill="none" fill-rule="evenodd">
        <g id="bullet-assets" transform="translate(-84.000000, -10.000000)" fill="#FC61B2">
            <path d="M94.5,31 C88.7010101,31 84,26.2989899 84,20.5 C84,14.7010101 88.7010101,10 94.5,10 C100.29899,10 105,14.7010101 105,20.5 C105,26.2989899 100.29899,31 94.5,31 Z M94.726808,14.6666667 C94.187939,14.6666667 93.6841601,14.7410407 93.2154563,14.889791 C92.7467525,15.0385413 92.3313806,15.2602601 91.9693279,15.5549541 C91.6072753,15.8496481 91.3055693,16.2173085 91.0642009,16.6579462 C90.8228325,17.0985839 90.6600515,17.6107824 90.5758533,18.1945572 L91.6704255,18.3882123 C91.7714634,18.405052 91.8668867,18.4134717 91.9566982,18.4134717 C92.1475477,18.4134717 92.3019089,18.3671633 92.4197865,18.2745452 C92.5376641,18.1819271 92.6302808,18.0289691 92.6976395,17.8156668 C92.8267435,17.4059018 93.0540755,17.070517 93.3796422,16.8095023 C93.7052089,16.5484876 94.1149677,16.4179823 94.608931,16.4179823 C95.1534132,16.4179823 95.5828181,16.565327 95.8971583,16.860021 C96.2114986,17.1547151 96.3686664,17.5911363 96.3686664,18.1692978 C96.3686664,18.4387324 96.3293744,18.6857103 96.2507894,18.9102391 C96.1722043,19.1347678 96.0332792,19.3270177 95.8340099,19.4869944 C95.6347406,19.6469712 95.3667135,19.7718634 95.0299203,19.8616749 C94.6931272,19.9514864 94.2693355,19.9991981 93.7585326,20.0048113 L93.7585326,21.4866937 C94.3759866,21.4866937 94.8685392,21.5344054 95.2362051,21.6298301 C95.6038709,21.7252548 95.885931,21.8571635 96.0823936,22.0255601 C96.2788563,22.1939566 96.4079584,22.3974328 96.4697038,22.6359946 C96.5314492,22.8745564 96.5623215,23.139777 96.5623215,23.4316644 C96.5623215,23.6618064 96.5188197,23.8905416 96.4318148,24.117877 C96.3448099,24.3452124 96.2129012,24.5514951 96.0360848,24.7367313 C95.8592684,24.9219675 95.6389529,25.0721189 95.3751316,25.1871899 C95.1113103,25.3022609 94.8025878,25.3597955 94.448955,25.3597955 C94.1346148,25.3597955 93.863781,25.3134872 93.6364456,25.220869 C93.4091103,25.1282509 93.2112473,25.0075685 93.0428507,24.8588182 C92.8744541,24.7100679 92.7299159,24.5402706 92.6092317,24.3494211 C92.4885475,24.1585717 92.3776881,23.9649185 92.2766501,23.7684559 C92.2149047,23.6505783 92.1264978,23.5607681 92.0114269,23.4990227 C91.8963559,23.4372773 91.7658505,23.4064051 91.6199068,23.4064051 C91.4571234,23.4064051 91.2971491,23.4400839 91.139979,23.5074425 L90.2222222,23.8863329 C90.3906188,24.4083623 90.5926916,24.8686393 90.8284469,25.2671779 C91.0642021,25.6657164 91.3504719,26.0025045 91.6872651,26.2775522 C92.0240582,26.5526 92.4197842,26.760286 92.874455,26.9006164 C93.3291257,27.0409469 93.8623735,27.1111111 94.4742144,27.1111111 C95.0355363,27.1111111 95.5673808,27.0297207 96.0697639,26.8669373 C96.5721471,26.7041539 97.0141814,26.4641924 97.3958803,26.1470456 C97.7775792,25.8298987 98.0806885,25.4383825 98.3052173,24.9724853 C98.529746,24.5065882 98.6420087,23.9705338 98.6420087,23.3643061 C98.6420087,22.6514273 98.4623884,22.0592416 98.1031424,21.5877312 C97.7438964,21.1162208 97.1994223,20.7653998 96.4697038,20.5352579 C96.7728176,20.4342199 97.0436514,20.3079244 97.2822132,20.1563675 C97.520775,20.0048105 97.7228479,19.8195771 97.8884378,19.6006616 C98.0540278,19.381746 98.1803233,19.1249451 98.2673282,18.8302511 C98.3543331,18.5355571 98.3978349,18.1945591 98.3978349,17.807247 C98.3978349,17.3638027 98.3122346,16.9512373 98.1410314,16.5695384 C97.9698282,16.1878395 97.7242536,15.8552613 97.4043001,15.5717937 C97.0843466,15.2883262 96.6984436,15.0666073 96.2465795,14.9066306 C95.7947153,14.7466538 95.2881299,14.6666667 94.726808,14.6666667 Z" id="bullet-3"></path>
        </g>
    </g>
</svg>