<?xml version="1.0" encoding="UTF-8"?>
<svg width="21px" height="21px" viewBox="0 0 21 21" version="1.1" xmlns="http://www.w3.org/2000/svg" xmlns:xlink="http://www.w3.org/1999/xlink">
    <!-- Generator: Sketch 43.2 (39069) - http://www.bohemiancoding.com/sketch -->
    <title>bullet-2</title>
    <desc>Created with Sketch.</desc>
    <defs></defs>
    <g id="Investors-Web" stroke="none" stroke-width="1" fill="none" fill-rule="evenodd">
        <g id="bullet-assets" transform="translate(-47.000000, -10.000000)" fill="#FC61B2">
            <path d="M57.5,31 C51.7010101,31 47,26.2989899 47,20.5 C47,14.7010101 51.7010101,10 57.5,10 C63.2989899,10 68,14.7010101 68,20.5 C68,26.2989899 63.2989899,31 57.5,31 Z M57.3558292,14.6666667 C56.8451107,14.6666667 56.3676493,14.7371554 55.9234306,14.878135 C55.4792119,15.0191146 55.085539,15.2292508 54.7424001,15.5085499 C54.3992611,15.7878491 54.1133162,16.1363028 53.8845569,16.5539216 C53.6557976,16.9715403 53.5015204,17.4569816 53.4217206,18.0102599 L54.4591123,18.1937984 C54.554872,18.2097584 54.6426505,18.2177383 54.7224502,18.2177383 C54.9033297,18.2177383 55.052287,18.173849 55.1693266,18.0860693 C55.2863663,17.9982896 55.3741447,17.8533222 55.4326645,17.6511628 C55.5550242,17.246844 55.7691503,16.9249898 56.0750494,16.6855905 C56.3809485,16.4461912 56.7706315,16.3264934 57.24411,16.3264934 C57.4994693,16.3264934 57.7295551,16.3624027 57.9343745,16.4342225 C58.1391939,16.5060423 58.3160807,16.6137704 58.4650403,16.7574099 C58.6139998,16.9010495 58.7283778,17.0779363 58.8081775,17.2880757 C58.8879773,17.4982151 58.9278766,17.7416007 58.9278766,18.0182399 C58.9278766,18.3214789 58.8866473,18.6100837 58.8041876,18.8840629 C58.7217278,19.1580421 58.60203,19.4280272 58.4450904,19.6940264 C58.2881509,19.9600256 58.0939744,20.2286808 57.8625551,20.5 C57.6311358,20.7713192 57.3691305,21.0559341 57.0765314,21.3538532 L53.5733394,24.8650251 C53.4509798,24.9873847 53.3618714,25.1203823 53.3060116,25.2640219 C53.2501517,25.4076615 53.2222222,25.545979 53.2222222,25.6789786 L53.2222222,26.3333333 L61.1383189,26.3333333 L61.1383189,25.1523028 C61.1383189,24.9554634 61.07581,24.7971962 60.9507904,24.6774966 C60.8257708,24.5577969 60.6568638,24.497948 60.4440644,24.497948 L57.4835081,24.497948 C57.2600688,24.497948 57.025993,24.5178977 56.7812737,24.5577975 C56.5365545,24.5976974 56.286519,24.6548864 56.0311598,24.7293662 L58.6326189,22.0720474 C58.941178,21.7528484 59.2364327,21.438974 59.5183919,21.130415 C59.800351,20.8218559 60.0463966,20.5026616 60.2565359,20.1728226 C60.4666753,19.8429836 60.6342523,19.4971898 60.7592719,19.1354309 C60.8842916,18.773672 60.9468004,18.3799991 60.9468004,17.9544004 C60.9468004,17.4596418 60.859022,17.0101099 60.6834625,16.6057912 C60.5079031,16.2014724 60.2631875,15.8556786 59.9493084,15.5683995 C59.6354293,15.2811203 59.2577161,15.0590143 58.8161575,14.9020748 C58.3745988,14.7451353 57.8878276,14.6666667 57.3558292,14.6666667 Z" id="bullet-2"></path>
        </g>
    </g>
</svg>