<?xml version="1.0" encoding="UTF-8"?>
<svg width="21px" height="21px" viewBox="0 0 21 21" version="1.1" xmlns="http://www.w3.org/2000/svg" xmlns:xlink="http://www.w3.org/1999/xlink">
    <!-- Generator: Sketch 43.2 (39069) - http://www.bohemiancoding.com/sketch -->
    <title>bullet-1</title>
    <desc>Created with Sketch.</desc>
    <defs></defs>
    <g id="Investors-Web" stroke="none" stroke-width="1" fill="none" fill-rule="evenodd">
        <g id="bullet-assets" transform="translate(-10.000000, -10.000000)" fill="#FC61B2">
            <path d="M20.5,31 C14.7010101,31 10,26.2989899 10,20.5 C10,14.7010101 14.7010101,10 20.5,10 C26.2989899,10 31,14.7010101 31,20.5 C31,26.2989899 26.2989899,31 20.5,31 Z M17.1170108,24.7554081 L17.1170108,26.3470993 L24,26.3470993 L24,24.7554081 L21.7630285,24.7554081 L21.7630285,13.8888889 L20.01647,13.8888889 L16.2222222,17.1152901 L16.8933137,18.0358899 C16.9392005,18.0989843 17.0094636,18.154908 17.1041052,18.2036627 C17.1987468,18.2524175 17.3034245,18.2767945 17.4181416,18.2767945 C17.4927077,18.2767945 17.5687066,18.265323 17.6461406,18.2423795 C17.7235746,18.2194361 17.7995735,18.1764179 17.8741396,18.1133235 L19.6637168,16.6162734 C19.6465093,16.9260094 19.6379056,17.2214014 19.6379056,17.5024582 L19.6379056,24.7554081 L17.1170108,24.7554081 Z" id="bullet-1"></path>
        </g>
    </g>
</svg>