<?xml version="1.0" encoding="UTF-8"?>
<svg width="452px" height="80px" viewBox="0 0 452 80" version="1.1" xmlns="http://www.w3.org/2000/svg" xmlns:xlink="http://www.w3.org/1999/xlink">
    <!-- Generator: Sketch 46.2 (44496) - http://www.bohemiancoding.com/sketch -->
    <title>logo-rj</title>
    <desc>Created with Sketch.</desc>
    <defs></defs>
    <g id="icons" stroke="none" stroke-width="1" fill="none" fill-rule="evenodd">
        <g id="logo-rj">
            <g id="rolando-copy">
                <path d="M18.7983775,0.0599333036 L61.3336893,0.0599333036 C71.6090736,0.0599333036 79.9727585,8.42370266 79.9727585,18.6991907 L79.9727585,61.234932 C79.9727585,71.5104201 71.6090736,79.8741894 61.3336893,79.8741894 L18.7983775,79.8741894 C8.52299319,79.8741894 0.159308284,71.5104201 0.159308284,61.234932 L0.159308284,18.6991907 C0.159308284,8.42370266 8.52299319,0.0599333036 18.7983775,0.0599333036 L18.7983775,0.0599333036 Z" id="XMLID_3_" fill="#19191A"></path>
                <path d="M49.3059139,65.4566442 C48.27041,63.8635452 48.5093725,61.7128617 47.6331769,59.9604529 C46.5180189,57.5708045 45.1638985,57.0928748 43.0928908,57.0132199 C41.0218831,56.9335649 38.711913,58.0487342 37.9950257,58.5266638 C37.2781384,59.0842485 34.4902435,60.9959672 34.9681683,65.7752639 C35.4460932,70.5545607 41.8184245,72.2273146 43.2521991,72.1476596 C42.3760035,71.66973 41.499808,70.5545607 41.6591162,69.5190464 C45.8011316,72.7848992 49.1466056,71.590075 49.1466056,71.590075 C47.2349062,69.7580113 46.9959438,66.3328486 47.0755979,63.5449254 C47.7924852,64.5007848 48.27041,64.9787145 49.3059139,65.4566442 L49.3059139,65.4566442 Z M44.3673571,67.6869826 C40.7829207,67.8462925 36.1629805,63.5449254 36.4019429,61.7925166 C36.6409053,60.0401078 38.0746799,59.0842485 38.2339881,59.0045935 C38.3932964,58.9249386 40.2253417,57.5708045 41.7387704,58.287699 C43.4115074,59.4028682 43.6504698,60.6773474 43.7301239,62.0314815 C43.8097781,63.7042353 44.4470112,64.8990595 44.4470112,64.8990595 C44.4470112,64.8990595 43.2521991,64.5804397 42.614966,63.2263057 C42.5353118,65.0583694 43.7301239,67.0497431 44.3673571,67.6869826 L44.3673571,67.6869826 Z M49.7838387,29.1339887 L49.7838387,29.1339887 C47.7924852,30.169503 45.5621692,30.8067425 43.1725449,30.8067425 C38.9508754,30.8067425 35.1274766,28.8950238 32.5785441,25.9477908 L32.5785441,25.9477908 C29.8703032,30.4881228 25.1707089,44.1091186 34.0919728,58.7656287 C36.0036722,56.85391 37.9153716,55.1811561 40.7829207,54.7032264 C40.7829207,41.0025757 44.2080488,36.3825888 49.7838387,29.1339887 L49.7838387,29.1339887 Z M42.9335825,27.3815799 C48.1907559,27.3815799 52.4124254,23.0802128 52.4124254,17.7433314 C52.4124254,12.40645 48.1907559,8.10508287 42.9335825,8.10508287 C37.6764092,8.10508287 33.4547396,12.40645 33.4547396,17.7433314 C33.4547396,23.0802128 37.6764092,27.3815799 42.9335825,27.3815799 L42.9335825,27.3815799 Z M49.0669515,33.8336305 C49.943147,37.1791382 53.4479293,39.2501668 55.8375535,38.5332723 C55.518937,40.2060262 55.0410121,44.905668 56.3951325,47.3749714 C56.9527115,42.7549845 58.0678695,40.524646 61.9709225,35.4267294 C53.4479293,37.0198284 52.5717337,35.3470745 49.0669515,33.8336305 L49.0669515,33.8336305 Z M22.3828139,25.0715864 C22.9403929,21.5667688 22.0641973,18.1416061 20.1524979,16.4688522 C20.4711145,20.9295292 20.4711145,24.9122765 17.6832195,29.0543337 C21.6659266,26.8239952 24.692784,26.9833051 28.3568745,29.1339887 C27.480679,25.5495161 25.0910547,24.5936567 22.3828139,25.0715864 L22.3828139,25.0715864 Z" id="rolando" fill="#FFCC00"></path>
            </g>
            <path d="M108.190079,37.4033404 C108.71569,37.4033404 109.091127,37.0279001 109.091127,36.5022836 L109.091127,30.5703267 C109.091127,30.0447102 108.71569,29.6692699 108.190079,29.6692699 L105.93746,29.6692699 C103.309404,29.819446 100.681349,30.4952386 97.5276818,33.423673 L97.077158,30.945767 C96.851896,30.3450625 96.5515468,30.0447102 96.0259357,30.0447102 L91.9712212,30.0447102 C91.4456101,30.0447102 91.0701736,30.4201505 91.0701736,30.945767 L91.0701736,59.1788785 C91.0701736,59.704495 91.4456101,60.0799353 91.9712212,60.0799353 L98.6539913,60.0799353 C99.1796025,60.0799353 99.555039,59.704495 99.555039,59.1788785 L99.555039,44.161266 C99.555039,40.7072151 100.606261,37.7036926 105.93746,37.4033404 L108.190079,37.4033404 Z M125.213444,29.6692699 C116.653491,29.6692699 109.520197,36.5022836 109.520197,44.9121466 C109.520197,53.3220096 116.653491,60.4553756 125.213444,60.4553756 C133.39796,60.4553756 140.305992,53.3220096 140.305992,44.9121466 C140.305992,36.5022836 133.39796,29.6692699 125.213444,29.6692699 L125.213444,29.6692699 Z M125.138356,52.9465693 C121.233816,52.9465693 118.005062,49.5676065 118.005062,44.9872347 C118.005062,40.3317748 121.233816,37.5535165 125.138356,37.5535165 C128.742547,37.5535165 131.821126,40.4068629 131.821126,44.9872347 C131.821126,49.5676065 128.742547,52.9465693 125.138356,52.9465693 L125.138356,52.9465693 Z M158.230404,52.9465693 C154.325864,52.9465693 151.09711,49.5676065 151.09711,44.9872347 C151.09711,40.3317748 154.325864,37.5535165 158.230404,37.5535165 C159.882325,37.5535165 162.735642,37.6286046 164.237388,38.8300136 C164.687912,39.1303658 165.063349,39.2805419 165.363698,39.2805419 C165.58896,39.2805419 165.739134,39.2054539 165.889309,39.0552777 L169.19315,34.7001701 C169.343325,34.549994 169.4935,34.3247298 169.4935,34.0243775 C169.4935,33.7991134 169.418412,33.423673 169.268238,33.1984089 C166.565095,30.5703267 162.285118,29.6692699 158.305491,29.6692699 C149.745539,29.6692699 142.612245,36.5022836 142.612245,44.9121466 C142.612245,53.3220096 149.745539,60.4553756 158.305491,60.4553756 C162.285118,60.4553756 166.339833,59.779583 169.19315,56.6258844 C169.343325,56.4006202 169.418412,56.0251799 169.418412,55.7999157 C169.418412,55.4995635 169.268238,55.2742993 169.118063,55.1241231 L165.889309,51.0693678 C165.739134,50.9191916 165.58896,50.8441036 165.363698,50.8441036 C165.063349,50.8441036 164.687912,50.9942797 164.237388,51.294632 C162.285118,52.9465693 159.882325,52.9465693 158.230404,52.9465693 L158.230404,52.9465693 Z M200.650885,30.945767 C200.650885,30.4201505 200.275448,30.0447102 199.749837,30.0447102 L191.715496,30.0447102 C191.114797,30.0447102 190.814448,30.4952386 190.514099,30.945767 L181.503622,42.959857 L181.503622,18.3309725 C181.503622,17.805356 181.128186,17.4299157 180.602575,17.4299157 L173.919805,17.4299157 C173.394193,17.4299157 173.018757,17.805356 173.018757,18.3309725 L173.018757,59.1788785 C173.018757,59.704495 173.394193,60.0799353 173.919805,60.0799353 L180.602575,60.0799353 C181.128186,60.0799353 181.503622,59.704495 181.503622,59.1788785 L181.503622,46.564084 L190.514099,59.1788785 C190.739361,59.6294069 191.340059,60.0799353 191.940758,60.0799353 L199.749837,60.0799353 C200.275448,60.0799353 200.650885,59.704495 200.650885,59.1788785 L190.288837,44.4616183 L200.650885,30.945767 Z M229.780913,46.7142601 C229.780913,45.4377631 229.856,45.6630273 229.856,44.6117944 C229.856,35.0005224 223.548667,29.6692699 215.289063,29.6692699 C205.152277,29.6692699 200.797213,36.952812 200.797213,45.2875869 C200.797213,55.8750038 207.930507,60.4553756 216.49046,60.4553756 C220.470087,60.4553756 224.825151,59.779583 227.453207,56.4757083 C227.603381,56.2504441 227.678468,55.8750038 227.678468,55.6497396 C227.678468,55.3493873 227.603381,55.0490351 227.453207,54.898859 L225.200587,51.1444558 C225.050413,50.9942797 224.900238,50.9191916 224.674976,50.9191916 C224.374627,50.9191916 223.999191,51.0693678 223.548667,51.36972 C221.971833,52.7963932 218.592905,53.3970977 216.415373,53.3970977 C214.237841,53.3970977 209.357166,52.6462171 209.357166,47.6153169 L228.879865,47.6153169 C229.405476,47.6153169 229.780913,47.2398766 229.780913,46.7142601 L229.780913,46.7142601 Z M215.439238,37.5535165 C217.691857,37.5535165 221.596397,38.6798374 221.596397,42.2840644 L209.357166,42.2840644 C209.357166,38.7549255 213.111531,37.5535165 215.439238,37.5535165 L215.439238,37.5535165 Z M252.102334,37.4033404 C252.627946,37.4033404 253.003382,37.0279001 253.003382,36.5022836 L253.003382,30.5703267 C253.003382,30.0447102 252.627946,29.6692699 252.102334,29.6692699 L245.644826,29.6692699 L245.644826,18.3309725 C245.644826,17.805356 245.26939,17.4299157 244.743779,17.4299157 L238.061008,17.4299157 C237.535397,17.4299157 237.159961,17.805356 237.159961,18.3309725 L237.159961,29.6692699 L232.054024,29.6692699 C231.528413,29.6692699 231.152976,30.0447102 231.152976,30.5703267 L231.152976,36.5022836 C231.152976,37.0279001 231.528413,37.4033404 232.054024,37.4033404 L237.159961,37.4033404 L237.159961,47.6904049 C237.159961,57.6771173 240.914326,60.4553756 247.371834,60.4553756 C249.99989,60.4553756 250.82585,60.4553756 253.003382,59.704495 C253.078469,59.704495 253.453906,59.3290547 253.453906,58.9536143 C253.453906,58.8034382 253.453906,58.578174 253.378819,58.4279979 L252.177422,53.3220096 C252.102334,53.0216574 251.651811,52.7213051 251.351461,52.7213051 C251.126199,52.7213051 250.976025,52.7213051 250.82585,52.7963932 C249.849715,52.9465693 249.249017,52.9465693 248.498144,52.9465693 C245.945175,52.9465693 245.644826,51.7451603 245.644826,46.0384676 L245.644826,37.4033404 L252.102334,37.4033404 Z M258.721705,60.5304637 C258.721705,66.2371564 258.196094,67.4385654 256.318912,67.4385654 C254.892253,67.4385654 253.615769,67.4385654 252.489459,66.988037 C252.339284,66.912949 252.18911,66.912949 251.963848,66.912949 C251.663499,66.912949 251.36315,66.988037 251.212975,67.2133012 L249.636142,71.7936731 C249.561054,71.9438492 249.561054,72.1691134 249.561054,72.3192895 C249.561054,72.6947298 249.936491,72.9950821 250.011578,73.0701701 C252.864896,74.9473717 254.366642,74.9473717 256.994697,74.9473717 C263.452206,74.9473717 267.206571,72.4694656 267.206571,61.3564323 L267.206571,30.945767 C267.206571,30.4201505 266.831134,30.0447102 266.305523,30.0447102 L259.622753,30.0447102 C259.097142,30.0447102 258.721705,30.4201505 258.721705,30.945767 L258.721705,60.5304637 Z M258.04592,21.9351995 C258.04592,24.6383697 260.223451,26.8159235 262.926594,26.8159235 C265.704825,26.8159235 267.957444,24.6383697 267.957444,21.9351995 C267.957444,19.1569411 265.704825,16.9042993 262.926594,16.9042993 C260.223451,16.9042993 258.04592,19.1569411 258.04592,21.9351995 L258.04592,21.9351995 Z M286.542107,29.6692699 C277.982155,29.6692699 270.848861,36.5022836 270.848861,44.9121466 C270.848861,53.3220096 277.982155,60.4553756 286.542107,60.4553756 C294.726624,60.4553756 301.634656,53.3220096 301.634656,44.9121466 C301.634656,36.5022836 294.726624,29.6692699 286.542107,29.6692699 L286.542107,29.6692699 Z M286.46702,52.9465693 C282.56248,52.9465693 279.333726,49.5676065 279.333726,44.9872347 C279.333726,40.3317748 282.56248,37.5535165 286.46702,37.5535165 C290.071211,37.5535165 293.14979,40.4068629 293.14979,44.9872347 C293.14979,49.5676065 290.071211,52.9465693 286.46702,52.9465693 L286.46702,52.9465693 Z M327.226777,59.1788785 C327.452039,59.779583 327.752388,60.0799353 328.277999,60.0799353 L332.482888,60.0799353 C333.008499,60.0799353 333.383936,59.704495 333.383936,59.1788785 L333.383936,30.945767 C333.383936,30.4201505 333.008499,30.0447102 332.482888,30.0447102 L325.800118,30.0447102 C325.274507,30.0447102 324.89907,30.4201505 324.89907,30.945767 L324.89907,46.1886437 C324.89907,49.8679588 323.322237,52.9465693 319.567872,52.9465693 C314.236673,52.9465693 313.786149,49.8679588 313.786149,46.1886437 L313.786149,30.945767 C313.786149,30.4201505 313.410713,30.0447102 312.885102,30.0447102 L306.202331,30.0447102 C305.67672,30.0447102 305.301284,30.4201505 305.301284,30.945767 L305.301284,47.0146124 C305.301284,54.1479783 309.055649,60.4553756 317.540514,60.4553756 C320.468919,60.4553756 323.397324,60.0048472 326.926427,56.7009725 L327.226777,59.1788785 Z M354.706957,37.4033404 C355.232568,37.4033404 355.608005,37.0279001 355.608005,36.5022836 L355.608005,30.5703267 C355.608005,30.0447102 355.232568,29.6692699 354.706957,29.6692699 L352.454338,29.6692699 C349.826283,29.819446 347.198227,30.4952386 344.04456,33.423673 L343.594036,30.945767 C343.368774,30.3450625 343.068425,30.0447102 342.542814,30.0447102 L338.4881,30.0447102 C337.962488,30.0447102 337.587052,30.4201505 337.587052,30.945767 L337.587052,59.1788785 C337.587052,59.704495 337.962488,60.0799353 338.4881,60.0799353 L345.17087,60.0799353 C345.696481,60.0799353 346.071917,59.704495 346.071917,59.1788785 L346.071917,44.161266 C346.071917,40.7072151 347.12314,37.7036926 352.454338,37.4033404 L354.706957,37.4033404 Z M365.005606,30.945767 C364.780344,30.3450625 364.479995,30.0447102 363.954384,30.0447102 L359.824582,30.0447102 C359.298971,30.0447102 358.923535,30.4201505 358.923535,30.945767 L358.923535,59.1788785 C358.923535,59.704495 359.298971,60.0799353 359.824582,60.0799353 L366.507352,60.0799353 C367.032963,60.0799353 367.4084,59.704495 367.4084,59.1788785 L367.4084,44.161266 C367.4084,40.4819509 368.985233,37.4033404 372.739599,37.4033404 C378.070797,37.4033404 378.521321,40.4819509 378.521321,44.161266 L378.521321,59.1788785 C378.521321,59.704495 378.896758,60.0799353 379.422369,60.0799353 L386.105139,60.0799353 C386.63075,60.0799353 387.006186,59.704495 387.006186,59.1788785 L387.006186,43.1100331 C387.006186,35.9766672 383.251821,29.6692699 374.766956,29.6692699 C371.838551,29.6692699 368.910146,30.1197983 365.381043,33.423673 L365.005606,30.945767 Z M419.656514,46.7142601 C419.656514,45.4377631 419.731601,45.6630273 419.731601,44.6117944 C419.731601,35.0005224 413.424268,29.6692699 405.164664,29.6692699 C395.027878,29.6692699 390.672815,36.952812 390.672815,45.2875869 C390.672815,55.8750038 397.806108,60.4553756 406.366061,60.4553756 C410.345688,60.4553756 414.700752,59.779583 417.328808,56.4757083 C417.478982,56.2504441 417.55407,55.8750038 417.55407,55.6497396 C417.55407,55.3493873 417.478982,55.0490351 417.328808,54.898859 L415.076188,51.1444558 C414.926014,50.9942797 414.775839,50.9191916 414.550577,50.9191916 C414.250228,50.9191916 413.874792,51.0693678 413.424268,51.36972 C411.847434,52.7963932 408.468506,53.3970977 406.290974,53.3970977 C404.113442,53.3970977 399.232767,52.6462171 399.232767,47.6153169 L418.755466,47.6153169 C419.281078,47.6153169 419.656514,47.2398766 419.656514,46.7142601 L419.656514,46.7142601 Z M405.314839,37.5535165 C407.567458,37.5535165 411.471998,38.6798374 411.471998,42.2840644 L399.232767,42.2840644 C399.232767,38.7549255 402.987132,37.5535165 405.314839,37.5535165 L405.314839,37.5535165 Z M422.305062,30.0447102 C421.779451,30.0447102 421.404014,30.4201505 421.404014,30.945767 L431.916237,52.7213051 L422.530324,72.0189372 C422.530324,72.5445537 422.90576,72.919994 423.431371,72.919994 L430.71484,72.919994 C431.315538,72.919994 431.690975,72.4694656 431.916237,72.0189372 L451.739285,30.945767 C451.739285,30.4201505 451.363849,30.0447102 450.838237,30.0447102 L443.704943,30.0447102 C443.104245,30.0447102 442.728808,30.4952386 442.503547,30.945767 L436.57165,43.4854734 L430.639752,30.945767 C430.414491,30.4952386 430.039054,30.0447102 429.438356,30.0447102 L422.305062,30.0447102 Z" id="rocketjourney-copy" fill="#1A1A1A"></path>
        </g>
    </g>
</svg>