<?xml version="1.0" encoding="UTF-8"?>
<svg width="212px" height="322px" viewBox="0 0 212 322" version="1.1" xmlns="http://www.w3.org/2000/svg" xmlns:xlink="http://www.w3.org/1999/xlink">
    <!-- Generator: Sketch 43.2 (39069) - http://www.bohemiancoding.com/sketch -->
    <title>mechanics-positive</title>
    <desc>Created with Sketch.</desc>
    <defs>
        <circle id="path-1" cx="73" cy="73" r="73"></circle>
        <circle id="path-3" cx="73" cy="73" r="73"></circle>
        <path d="M94.9,21.754 L135.634,32.996 C140.306,34.602 143.956,38.106 146,42.632 L146,56.94 L0,56.94 L0,42.632 C1.898,38.106 5.694,34.602 10.366,32.996 L51.1,21.754 L51.1,0 L94.9,0 L94.9,21.754 Z" id="path-5"></path>
        <path d="M94.9,21.754 L135.634,32.996 C140.306,34.602 143.956,38.106 146,42.632 L146,56.94 L0,56.94 L0,42.632 C1.898,38.106 5.694,34.602 10.366,32.996 L51.1,21.754 L51.1,0 L94.9,0 L94.9,21.754 Z" id="path-7"></path>
        <path d="M94.9,21.754 L135.634,32.996 C140.306,34.602 143.956,38.106 146,42.632 L146,56.94 L0,56.94 L0,42.632 C1.898,38.106 5.694,34.602 10.366,32.996 L51.1,21.754 L51.1,0 L94.9,0 L94.9,21.754 Z" id="path-9"></path>
        <rect id="path-11" x="0" y="0" width="45.26" height="7.3"></rect>
        <rect id="path-13" x="0" y="0" width="45.26" height="7.3"></rect>
    </defs>
    <g id="Investors-Web" stroke="none" stroke-width="1" fill="none" fill-rule="evenodd">
        <g id="mechanics-positive">
            <g id="journey-ui" transform="translate(0.000000, 20.000000)">
                <g id="user-ui">
                    <g id="profile-pic" transform="translate(33.000000, 34.000000)">
                        <g>
                            <circle id="Oval" fill="#F5EEE5" fill-rule="nonzero" cx="73" cy="73" r="73"></circle>
                            <g id="Group">
                                <g id="Clipped">
                                    <mask id="mask-2" fill="white">
                                        <use xlink:href="#path-1"></use>
                                    </mask>
                                    <g id="SVGID_1_"></g>
                                    <path d="M94.9,110.814 L135.634,122.056 C140.306,123.662 143.956,127.166 146,131.692 L146,146 L0,146 L0,131.692 C1.898,127.166 5.694,123.662 10.366,122.056 L51.1,110.814 L51.1,89.06 L94.9,89.06 L94.9,110.814 Z" id="Shape" fill="#E6C19C" fill-rule="nonzero" mask="url(#mask-2)"></path>
                                </g>
                                <g id="Clipped">
                                    <mask id="mask-4" fill="white">
                                        <use xlink:href="#path-3"></use>
                                    </mask>
                                    <g id="SVGID_1_"></g>
                                    <g id="Group" mask="url(#mask-4)">
                                        <g transform="translate(0.000000, 89.060000)" id="Clipped">
                                            <g>
                                                <mask id="mask-6" fill="white">
                                                    <use xlink:href="#path-5"></use>
                                                </mask>
                                                <g id="SVGID_3_"></g>
                                                <path d="M0,-4.38 L146,-4.38 L146,56.94 L0,56.94 L0,-4.38 Z M73,39.42 C89.06,39.42 102.2,30.222 102.2,18.98 C102.2,7.738 89.06,-1.46 73,-1.46 C56.94,-1.46 43.8,7.738 43.8,18.98 C43.8,30.222 56.94,39.42 73,39.42 Z" id="Shape" fill="#A2D16F" fill-rule="nonzero" mask="url(#mask-6)"></path>
                                            </g>
                                            <g>
                                                <mask id="mask-8" fill="white">
                                                    <use xlink:href="#path-7"></use>
                                                </mask>
                                                <g id="SVGID_3_"></g>
                                                <path d="M73,24.82 C70.518,24.82 67.306,24.236 65.116,23.214 C62.634,21.9 53.436,14.308 50.224,11.096 C46.136,6.716 44.092,1.168 43.508,-8.322 C42.924,-17.812 40.442,-51.684 40.442,-59.422 C40.442,-70.372 48.764,-87.454 72.708,-87.454 L72.854,-87.454 L72.854,-87.454 L72.854,-87.454 L73,-87.454 C97.09,-87.308 105.266,-70.372 105.266,-59.422 C105.266,-51.684 102.784,-17.812 102.2,-8.322 C101.616,1.168 99.572,6.57 95.484,11.096 C92.418,14.454 83.22,21.9 80.592,23.214 C78.694,24.236 75.482,24.82 73,24.82 L73,24.82 Z" id="Shape" fill="#D4B08C" fill-rule="nonzero" mask="url(#mask-8)"></path>
                                            </g>
                                            <g>
                                                <mask id="mask-10" fill="white">
                                                    <use xlink:href="#path-9"></use>
                                                </mask>
                                                <g id="SVGID_3_"></g>
                                                <path d="M73,-4.38 C54.458,-4.38 39.42,6.424 39.42,19.71 C39.42,32.996 54.458,43.8 73,43.8 C91.542,43.8 106.58,32.996 106.58,19.71 C106.58,6.424 91.542,-4.38 73,-4.38 Z M73,37.96 C57.67,37.96 45.26,29.2 45.26,18.25 C45.26,7.3 57.67,-1.46 73,-1.46 C88.33,-1.46 100.74,7.3 100.74,18.25 C100.74,29.2 88.33,37.96 73,37.96 Z" id="Shape" fill="#77A545" fill-rule="nonzero" mask="url(#mask-10)"></path>
                                            </g>
                                        </g>
                                    </g>
                                </g>
                            </g>
                            <path d="M73,108.04 C70.81,108.04 67.89,107.602 65.992,106.726 C63.656,105.704 55.48,100.01 52.706,97.528 C49.056,94.17 47.158,90.082 46.574,82.928 C45.99,75.774 43.8,50.37 43.8,44.53 C43.8,36.208 51.246,23.36 73,23.36 L73,23.36 L73,23.36 L73,23.36 L73,23.36 C94.754,23.36 102.2,36.208 102.2,44.53 C102.2,50.37 100.01,75.92 99.426,83.074 C98.842,90.228 97.09,94.316 93.294,97.674 C90.52,100.156 82.198,105.85 80.008,106.872 C78.11,107.602 75.19,108.04 73,108.04 L73,108.04 Z" id="Shape" fill="#F2CEA5" fill-rule="nonzero"></path>
                            <path d="M83.22,89.79 C80.446,92.71 75.628,94.17 71.394,93.294 C67.452,92.418 64.532,90.374 63.072,87.016 L83.22,89.79 Z" id="Shape" fill="#A3705F" fill-rule="nonzero"></path>
                            <path d="M83.22,89.79 C80.446,92.71 75.628,94.17 71.394,93.294 C67.452,92.418 64.532,90.374 63.072,87.016 L83.22,89.79 Z" id="Shape" stroke="#A3705F" stroke-linecap="round" stroke-linejoin="round"></path>
                            <g id="Group" transform="translate(49.640000, 59.860000)">
                                <g id="Clipped">
                                    <mask id="mask-12" fill="white">
                                        <use xlink:href="#path-11"></use>
                                    </mask>
                                    <g id="SVGID_5_"></g>
                                    <circle id="Oval" fill="#291F21" fill-rule="nonzero" mask="url(#mask-12)" cx="36.5" cy="5.84" r="2.92"></circle>
                                </g>
                                <g id="Clipped">
                                    <mask id="mask-14" fill="white">
                                        <use xlink:href="#path-13"></use>
                                    </mask>
                                    <g id="SVGID_5_"></g>
                                    <circle id="Oval" fill="#291F21" fill-rule="nonzero" mask="url(#mask-14)" cx="10.22" cy="5.84" r="2.92"></circle>
                                </g>
                            </g>
                            <path d="M51.1,61.32 C51.1,61.32 52.706,56.94 60.006,56.94 C64.97,56.94 67.89,59.13 69.35,61.32" id="Shape" stroke="#CC9872" stroke-width="2"></path>
                            <path d="M95.046,61.32 C95.046,61.32 93.44,56.94 86.14,56.94 C79.132,56.94 75.92,61.32 75.92,64.24 L75.92,77.38" id="Shape" stroke="#BB8660" stroke-width="2"></path>
                            <path d="M100.448,70.372 C100.448,70.372 101.616,61.174 105.85,59.86 C106.434,57.232 108.04,49.64 108.04,45.406 C108.04,41.172 107.602,37.084 105.266,33.58 C102.638,29.784 97.09,27.594 94.17,27.594 C90.812,29.638 82.928,34.31 80.446,37.084 C79.132,38.544 81.03,39.712 81.03,39.712 C81.03,39.712 82.782,38.982 83.512,38.836 C87.162,37.814 95.192,37.084 97.674,40.734 C100.74,45.114 100.74,57.962 100.74,59.86 C100.74,61.612 100.448,70.372 100.448,70.372 Z" id="Shape" fill="#452228" fill-rule="nonzero"></path>
                            <path d="M40.15,59.86 C44.384,61.32 45.552,70.372 45.552,70.372 C45.552,70.372 45.26,61.612 45.26,59.86 C45.26,57.524 45.552,46.574 50.224,41.318 C55.48,35.478 62.488,33.58 66.43,36.208 C68.474,37.522 75.336,44.238 82.636,38.69 C87.016,35.332 95.046,27.74 95.046,27.74 C95.046,27.74 90.812,14.746 71.54,16.206 C63.364,16.936 54.312,14.892 54.312,14.892 C54.312,14.892 54.166,18.542 55.626,20.44 C43.508,23.944 39.566,32.704 38.398,39.42 C38.106,40.734 37.96,42.048 37.96,43.362 L37.96,45.406 C37.96,49.64 39.566,57.086 40.15,59.86 Z" id="Shape" fill="#6B363E" fill-rule="nonzero"></path>
                        </g>
                    </g>
                    <g id="crown" stroke="#FFFFFF" stroke-opacity="0.2" stroke-width="0.5">
                        <path d="M211.678315,109.889273 C211.678315,90.4629229 206.383756,71.1031833 197.158928,55.5143423 L187.368288,61.3427128 C195.367346,74.9812704 199.953288,92.033757 199.953288,108.987348 C199.953288,146.001392 178.093889,176.7399 146.580373,191.337592 L152.169675,203.142706 C187.36771,186.295056 211.678315,151.516187 211.678315,109.889273 Z" id="3"></path>
                        <path d="M77.891051,4.88428655 C59.217245,10.2389143 42.0668469,20.6646377 29.6245984,33.8289784 L37.9258538,40.633829 C48.8312375,29.185345 63.959083,21.0767527 80.2559203,16.4037098 C115.836103,6.20125645 152.409121,17.741178 175.127625,44.0102453 L183.934808,36.3835326 C158.037914,7.19285109 117.905409,-6.58964608 77.891051,4.88428655 Z" id="2" fill="#FFCC00"></path>
                        <path d="M65.6783145,109.889273 C65.6783145,90.4629229 60.3837564,71.1031833 51.1589283,55.5143423 L41.3682883,61.3427128 C49.3673464,74.9812704 53.9532879,92.033757 53.9532879,108.987348 C53.9532879,146.001392 32.0938892,176.7399 0.580372703,191.337592 L6.16967502,203.142706 C41.3677104,186.295056 65.6783145,151.516187 65.6783145,109.889273 Z" id="1" fill="#FFCC00" transform="translate(33.129344, 129.328524) scale(-1, 1) translate(-33.129344, -129.328524) "></path>
                    </g>
                    <g id="streak" transform="translate(86.685000, 184.594000)" font-weight="bold" font-family="Lato-Bold, Lato" fill="#FFFFFF">
                        <text id="WEEKS" opacity="0.5" font-size="9.36" letter-spacing="1.17">
                            <tspan x="0.04132" y="58">WEEKS</tspan>
                        </text>
                        <text id="6" font-size="43.29">
                            <tspan x="6.4459" y="43">6</tspan>
                        </text>
                    </g>
                </g>
                <g id="cheat-days" transform="translate(38.440000, 262.590000)">
                    <g id="Arriba">
                        <g id="star-placeholders" transform="translate(0.000000, -0.000000)" stroke="#40AAD1">
                            <g id="do" transform="translate(15.000000, 20.000000)">
                                <path d="M102.402316,11.9998729 C102.802512,10.7135273 105.831025,8.22168269 105.390061,6.94809152 C104.949512,5.67450034 101.012028,5.5409903 99.8985921,4.76687891 C98.7851559,3.99256181 97.3247718,0.373801942 95.9638128,0.394990747 C94.6028538,0.416179551 93.257911,4.0781399 92.169227,4.88640023 C91.080751,5.69466056 87.1497157,5.95016052 86.7493113,7.23671184 C86.3491149,8.52326316 89.4550051,10.9200667 89.8957619,12.1936579 C90.3365188,13.4672491 89.3672281,17.2439992 90.4808724,18.0181106 C91.5945166,18.792222 94.8591126,16.6112151 96.2200716,16.590232 C97.5808226,16.5692489 100.913227,18.6480147 102.001495,17.8397544 C103.090179,17.0312883 102.001911,13.2868356 102.402316,11.9998729 L102.402316,11.9998729 Z" id="do-4" transform="translate(96.073808, 9.289577) rotate(1.000000) translate(-96.073808, -9.289577) "></path>
                                <path d="M73.4023157,11.9998729 C73.8025121,10.7135273 76.8310255,8.22168269 76.3900606,6.94809152 C75.9495118,5.67450034 72.0120284,5.5409903 70.8985921,4.76687891 C69.7851559,3.99256181 68.3247718,0.373801942 66.9638128,0.394990747 C65.6028538,0.416179551 64.257911,4.0781399 63.169227,4.88640023 C62.080751,5.69466056 58.1497157,5.95016052 57.7493113,7.23671184 C57.3491149,8.52326316 60.4550051,10.9200667 60.8957619,12.1936579 C61.3365188,13.4672491 60.3672281,17.2439992 61.4808724,18.0181106 C62.5945166,18.792222 65.8591126,16.6112151 67.2200716,16.590232 C68.5808226,16.5692489 71.9132273,18.6480147 73.0014953,17.8397544 C74.0901793,17.0312883 73.0019113,13.2868356 73.4023157,11.9998729 L73.4023157,11.9998729 Z" id="do-3" transform="translate(67.073808, 9.289577) rotate(1.000000) translate(-67.073808, -9.289577) "></path>
                                <path d="M44.4023157,11.9998729 C44.8025121,10.7135273 47.8310255,8.22168269 47.3900606,6.94809152 C46.9495118,5.67450034 43.0120284,5.5409903 41.8985921,4.76687891 C40.7851559,3.99256181 39.3247718,0.373801942 37.9638128,0.394990747 C36.6028538,0.416179551 35.257911,4.0781399 34.169227,4.88640023 C33.080751,5.69466056 29.1497157,5.95016052 28.7493113,7.23671184 C28.3491149,8.52326316 31.4550051,10.9200667 31.8957619,12.1936579 C32.3365188,13.4672491 31.3672281,17.2439992 32.4808724,18.0181106 C33.5945166,18.792222 36.8591126,16.6112151 38.2200716,16.590232 C39.5808226,16.5692489 42.9132273,18.6480147 44.0014953,17.8397544 C45.0901793,17.0312883 44.0019113,13.2868356 44.4023157,11.9998729 L44.4023157,11.9998729 Z" id="do-2" transform="translate(38.073808, 9.289577) rotate(1.000000) translate(-38.073808, -9.289577) "></path>
                                <path d="M16.0685077,11.9998729 C16.4687041,10.7135273 19.4972175,8.22168269 19.0562527,6.94809152 C18.6157038,5.67450034 14.6782204,5.5409903 13.5647842,4.76687891 C12.4513479,3.99256181 10.9909638,0.373801942 9.6300048,0.394990747 C8.26904581,0.416179551 6.92410299,4.0781399 5.83541899,4.88640023 C4.746943,5.69466056 0.81590769,5.95016052 0.415503279,7.23671184 C0.0153068695,8.52326316 3.12119709,10.9200667 3.56195395,12.1936579 C4.0027108,13.4672491 3.03342012,17.2439992 4.14706439,18.0181106 C5.26070866,18.792222 8.52530463,16.6112151 9.88626362,16.590232 C11.2470146,16.5692489 14.5794193,18.6480147 15.6676873,17.8397544 C16.7563713,17.0312883 15.6681033,13.2868356 16.0685077,11.9998729 L16.0685077,11.9998729 Z" id="do-1" transform="translate(9.740000, 9.289577) rotate(1.000000) translate(-9.740000, -9.289577) "></path>
                            </g>
                            <g id="up">
                                <path d="M131.688508,12.6049748 C132.088704,11.3186292 135.117218,8.82678461 134.676253,7.55319344 C134.235704,6.27960226 130.29822,6.14609222 129.184784,5.37198084 C128.071348,4.59766373 126.610964,0.978903864 125.250005,1.00009267 C123.889046,1.02128147 122.544103,4.68324182 121.455419,5.49150215 C120.366943,6.29976249 116.435908,6.55526244 116.035503,7.84181376 C115.635307,9.12836508 118.741197,11.5251686 119.181954,12.7987598 C119.622711,14.072351 118.65342,17.8491012 119.767064,18.6232125 C120.880709,19.3973239 124.145305,17.216317 125.506264,17.195334 C126.867015,17.1743509 130.199419,19.2531166 131.287687,18.4448563 C132.376371,17.6363902 131.288103,13.8919376 131.688508,12.6049748 L131.688508,12.6049748 Z" id="up-5" transform="translate(125.360000, 9.894679) rotate(1.000000) translate(-125.360000, -9.894679) "></path>
                                <path d="M102.688508,12.6049748 C103.088704,11.3186292 106.117218,8.82678461 105.676253,7.55319344 C105.235704,6.27960226 101.29822,6.14609222 100.184784,5.37198084 C99.0713479,4.59766373 97.6109638,0.978903864 96.2500048,1.00009267 C94.8890458,1.02128147 93.544103,4.68324182 92.455419,5.49150215 C91.366943,6.29976249 87.4359077,6.55526244 87.0355033,7.84181376 C86.6353069,9.12836508 89.7411971,11.5251686 90.1819539,12.7987598 C90.6227108,14.072351 89.6534201,17.8491012 90.7670644,18.6232125 C91.8807087,19.3973239 95.1453046,17.216317 96.5062636,17.195334 C97.8670146,17.1743509 101.199419,19.2531166 102.287687,18.4448563 C103.376371,17.6363902 102.288103,13.8919376 102.688508,12.6049748 L102.688508,12.6049748 Z" id="up-4" transform="translate(96.360000, 9.894679) rotate(1.000000) translate(-96.360000, -9.894679) "></path>
                                <path d="M74.6885077,12.6049748 C75.0887041,11.3186292 78.1172175,8.82678461 77.6762527,7.55319344 C77.2357038,6.27960226 73.2982204,6.14609222 72.1847842,5.37198084 C71.0713479,4.59766373 69.6109638,0.978903864 68.2500048,1.00009267 C66.8890458,1.02128147 65.544103,4.68324182 64.455419,5.49150215 C63.366943,6.29976249 59.4359077,6.55526244 59.0355033,7.84181376 C58.6353069,9.12836508 61.7411971,11.5251686 62.1819539,12.7987598 C62.6227108,14.072351 61.6534201,17.8491012 62.7670644,18.6232125 C63.8807087,19.3973239 67.1453046,17.216317 68.5062636,17.195334 C69.8670146,17.1743509 73.1994193,19.2531166 74.2876873,18.4448563 C75.3763713,17.6363902 74.2881033,13.8919376 74.6885077,12.6049748 L74.6885077,12.6049748 Z" id="up-3" transform="translate(68.360000, 9.894679) rotate(1.000000) translate(-68.360000, -9.894679) "></path>
                                <path d="M45.6885077,12.6049748 C46.0887041,11.3186292 49.1172175,8.82678461 48.6762527,7.55319344 C48.2357038,6.27960226 44.2982204,6.14609222 43.1847842,5.37198084 C42.0713479,4.59766373 40.6109638,0.978903864 39.2500048,1.00009267 C37.8890458,1.02128147 36.544103,4.68324182 35.455419,5.49150215 C34.366943,6.29976249 30.4359077,6.55526244 30.0355033,7.84181376 C29.6353069,9.12836508 32.7411971,11.5251686 33.1819539,12.7987598 C33.6227108,14.072351 32.6534201,17.8491012 33.7670644,18.6232125 C34.8807087,19.3973239 38.1453046,17.216317 39.5062636,17.195334 C40.8670146,17.1743509 44.1994193,19.2531166 45.2876873,18.4448563 C46.3763713,17.6363902 45.2881033,13.8919376 45.6885077,12.6049748 L45.6885077,12.6049748 Z" id="up-2" transform="translate(39.360000, 9.894679) rotate(1.000000) translate(-39.360000, -9.894679) "></path>
                                <path d="M16.6885077,12.6049748 C17.0887041,11.3186292 20.1172175,8.82678461 19.6762527,7.55319344 C19.2357038,6.27960226 15.2982204,6.14609222 14.1847842,5.37198084 C13.0713479,4.59766373 11.6109638,0.978903864 10.2500048,1.00009267 C8.88904581,1.02128147 7.54410299,4.68324182 6.45541899,5.49150215 C5.366943,6.29976249 1.43590769,6.55526244 1.03550328,7.84181376 C0.635306869,9.12836508 3.74119709,11.5251686 4.18195395,12.7987598 C4.6227108,14.072351 3.65342012,17.8491012 4.76706439,18.6232125 C5.88070866,19.3973239 9.14530463,17.216317 10.5062636,17.195334 C11.8670146,17.1743509 15.1994193,19.2531166 16.2876873,18.4448563 C17.3763713,17.6363902 16.2881033,13.8919376 16.6885077,12.6049748 L16.6885077,12.6049748 Z" id="up-1" transform="translate(10.360000, 9.894679) rotate(1.000000) translate(-10.360000, -9.894679) "></path>
                            </g>
                        </g>
                        <g id="Star---1" transform="translate(72.540000, 19.475000)">
                            <path d="M15.8585077,12.5248729 C16.2587041,11.2385273 19.2872175,8.74668269 18.8462527,7.47309152 C18.4057038,6.19950034 14.4682204,6.0659903 13.3547842,5.29187891 C12.2413479,4.51756181 10.7809638,0.898801942 9.4200048,0.919990747 C8.05904581,0.941179551 6.71410299,4.6031399 5.62541899,5.41140023 C4.536943,6.21966056 0.60590769,6.47516052 0.205503279,7.76171184 C-0.194693131,9.04826316 2.91119709,11.4450667 3.35195395,12.7186579 C3.7927108,13.9922491 2.82342012,17.7689992 3.93706439,18.5431106 C5.05070866,19.317222 8.31530463,17.1362151 9.67626362,17.115232 C11.0370146,17.0942489 14.3694193,19.1730147 15.4576873,18.3647544 C16.5463713,17.5562883 15.4581033,13.8118356 15.8585077,12.5248729 L15.8585077,12.5248729 Z" id="path5" fill="#34A0CF" transform="translate(9.530000, 9.814577) rotate(1.000000) translate(-9.530000, -9.814577) "></path>
                            <path d="M9.52992855,9.81605316 L9.52992855,17.1167678 C9.53626893,17.1166922 9.54256866,17.11666 9.54882735,17.1166728 C10.8152036,17.1192489 13.7568395,18.9695122 15.0475061,18.5906989 L9.53,9.82799286 L15.7989891,12.6706837 C15.8026209,12.658553 15.8063712,12.6466263 15.8102427,12.6349078 C16.225915,11.376668 19.2045847,8.99660706 18.9034699,7.69982943 L9.56649109,9.81695997 L13.2792379,5.23208319 C12.2047047,4.23760637 10.8736525,0.921873921 9.57525349,0.919425754 C9.56041245,0.919397771 9.54556576,0.919802596 9.53071388,0.920631817 L9.53071388,9.77515717 L9.57523936,9.78492533 L9.53071388,9.80405834 L9.53071388,9.81695976 L9.52992855,9.81605316 Z M9.48600792,9.76534941 L0.211925695,7.73076811 C0.218493469,7.68570327 0.228693299,7.64184838 0.242750885,7.5992896 C0.661896867,6.33096962 4.53274941,6.13637569 5.67367201,5.36423565 L9.48600792,9.76534941 Z M9.52256981,9.80755792 L3.26031485,12.498507 C3.27631895,12.5367096 3.29033134,12.574023 3.30221169,12.6103938 C3.7067619,13.8488919 2.75283457,17.4035188 3.68282108,18.3554011 L9.52359133,9.80873721 L9.52256981,9.80755792 Z" id="path5-copy" fill="#50CAFE"></path>
                        </g>
                        <g id="Star---1" transform="translate(43.460000, 19.475000)">
                            <path d="M15.8585077,12.5248729 C16.2587041,11.2385273 19.2872175,8.74668269 18.8462527,7.47309152 C18.4057038,6.19950034 14.4682204,6.0659903 13.3547842,5.29187891 C12.2413479,4.51756181 10.7809638,0.898801942 9.4200048,0.919990747 C8.05904581,0.941179551 6.71410299,4.6031399 5.62541899,5.41140023 C4.536943,6.21966056 0.60590769,6.47516052 0.205503279,7.76171184 C-0.194693131,9.04826316 2.91119709,11.4450667 3.35195395,12.7186579 C3.7927108,13.9922491 2.82342012,17.7689992 3.93706439,18.5431106 C5.05070866,19.317222 8.31530463,17.1362151 9.67626362,17.115232 C11.0370146,17.0942489 14.3694193,19.1730147 15.4576873,18.3647544 C16.5463713,17.5562883 15.4581033,13.8118356 15.8585077,12.5248729 L15.8585077,12.5248729 Z" id="path5" fill="#34A0CF" transform="translate(9.530000, 9.814577) rotate(1.000000) translate(-9.530000, -9.814577) "></path>
                            <path d="M9.52992855,9.81605316 L9.52992855,17.1167678 C9.53626893,17.1166922 9.54256866,17.11666 9.54882735,17.1166728 C10.8152036,17.1192489 13.7568395,18.9695122 15.0475061,18.5906989 L9.53,9.82799286 L15.7989891,12.6706837 C15.8026209,12.658553 15.8063712,12.6466263 15.8102427,12.6349078 C16.225915,11.376668 19.2045847,8.99660706 18.9034699,7.69982943 L9.56649109,9.81695997 L13.2792379,5.23208319 C12.2047047,4.23760637 10.8736525,0.921873921 9.57525349,0.919425754 C9.56041245,0.919397771 9.54556576,0.919802596 9.53071388,0.920631817 L9.53071388,9.77515717 L9.57523936,9.78492533 L9.53071388,9.80405834 L9.53071388,9.81695976 L9.52992855,9.81605316 Z M9.48600792,9.76534941 L0.211925695,7.73076811 C0.218493469,7.68570327 0.228693299,7.64184838 0.242750885,7.5992896 C0.661896867,6.33096962 4.53274941,6.13637569 5.67367201,5.36423565 L9.48600792,9.76534941 Z M9.52256981,9.80755792 L3.26031485,12.498507 C3.27631895,12.5367096 3.29033134,12.574023 3.30221169,12.6103938 C3.7067619,13.8488919 2.75283457,17.4035188 3.68282108,18.3554011 L9.52359133,9.80873721 L9.52256981,9.80755792 Z" id="path5-copy" fill="#50CAFE"></path>
                        </g>
                        <g id="Star---1" transform="translate(58.560000, -0.000000)">
                            <path d="M15.8585077,12.5248729 C16.2587041,11.2385273 19.2872175,8.74668269 18.8462527,7.47309152 C18.4057038,6.19950034 14.4682204,6.0659903 13.3547842,5.29187891 C12.2413479,4.51756181 10.7809638,0.898801942 9.4200048,0.919990747 C8.05904581,0.941179551 6.71410299,4.6031399 5.62541899,5.41140023 C4.536943,6.21966056 0.60590769,6.47516052 0.205503279,7.76171184 C-0.194693131,9.04826316 2.91119709,11.4450667 3.35195395,12.7186579 C3.7927108,13.9922491 2.82342012,17.7689992 3.93706439,18.5431106 C5.05070866,19.317222 8.31530463,17.1362151 9.67626362,17.115232 C11.0370146,17.0942489 14.3694193,19.1730147 15.4576873,18.3647544 C16.5463713,17.5562883 15.4581033,13.8118356 15.8585077,12.5248729 L15.8585077,12.5248729 Z" id="path5" fill="#34A0CF" transform="translate(9.530000, 9.814577) rotate(1.000000) translate(-9.530000, -9.814577) "></path>
                            <path d="M9.52992855,9.81605316 L9.52992855,17.1167678 C9.53626893,17.1166922 9.54256866,17.11666 9.54882735,17.1166728 C10.8152036,17.1192489 13.7568395,18.9695122 15.0475061,18.5906989 L9.53,9.82799286 L15.7989891,12.6706837 C15.8026209,12.658553 15.8063712,12.6466263 15.8102427,12.6349078 C16.225915,11.376668 19.2045847,8.99660706 18.9034699,7.69982943 L9.56649109,9.81695997 L13.2792379,5.23208319 C12.2047047,4.23760637 10.8736525,0.921873921 9.57525349,0.919425754 C9.56041245,0.919397771 9.54556576,0.919802596 9.53071388,0.920631817 L9.53071388,9.77515717 L9.57523936,9.78492533 L9.53071388,9.80405834 L9.53071388,9.81695976 L9.52992855,9.81605316 Z M9.48600792,9.76534941 L0.211925695,7.73076811 C0.218493469,7.68570327 0.228693299,7.64184838 0.242750885,7.5992896 C0.661896867,6.33096962 4.53274941,6.13637569 5.67367201,5.36423565 L9.48600792,9.76534941 Z M9.52256981,9.80755792 L3.26031485,12.498507 C3.27631895,12.5367096 3.29033134,12.574023 3.30221169,12.6103938 C3.7067619,13.8488919 2.75283457,17.4035188 3.68282108,18.3554011 L9.52359133,9.80873721 L9.52256981,9.80755792 Z" id="path5-copy" fill="#50CAFE"></path>
                        </g>
                    </g>
                </g>
            </g>
            <polyline id="Path-8" stroke="#FE53A9" stroke-width="2" points="187 14 151 14 143.950124 22.0498756"></polyline>
            <path d="M198.5,27 C191.044156,27 185,20.9558441 185,13.5 C185,6.04415588 191.044156,0 198.5,0 C205.955844,0 212,6.04415588 212,13.5 C212,20.9558441 205.955844,27 198.5,27 Z M194.150442,18.9712389 L194.150442,21.0176991 L203,21.0176991 L203,18.9712389 L200.123894,18.9712389 L200.123894,5 L197.878319,5 L193,9.14823009 L193.862832,10.3318584 C193.921829,10.4129798 194.012168,10.4848817 194.13385,10.5475664 C194.255532,10.6102511 194.390117,10.6415929 194.537611,10.6415929 C194.633481,10.6415929 194.731194,10.6268438 194.830752,10.5973451 C194.93031,10.5678465 195.028023,10.5125373 195.123894,10.4314159 L197.424779,8.50663717 C197.402655,8.90486925 197.391593,9.28465896 197.391593,9.6460177 L197.391593,18.9712389 L194.150442,18.9712389 Z" id="Combined-Shape" fill="#FC61B2"></path>
            <polyline id="Path-10" stroke="#FE53A9" stroke-width="2" points="112.966704 285.033296 128 270 187.015621 270"></polyline>
            <path d="M198.5,283 C191.044156,283 185,276.955844 185,269.5 C185,262.044156 191.044156,256 198.5,256 C205.955844,256 212,262.044156 212,269.5 C212,276.955844 205.955844,283 198.5,283 Z M198.79161,262 C198.098779,262 197.451063,262.095624 196.848444,262.286874 C196.245825,262.478125 195.711775,262.763192 195.246279,263.142084 C194.780783,263.520976 194.392875,263.993682 194.082544,264.560217 C193.772213,265.126751 193.562923,265.785292 193.454668,266.535859 L194.861976,266.784844 C194.991882,266.806495 195.114569,266.817321 195.230041,266.817321 C195.475418,266.817321 195.673883,266.757781 195.82544,266.638701 C195.976997,266.519621 196.096075,266.32296 196.182679,266.048714 C196.34867,265.521874 196.640954,265.090665 197.05954,264.755074 C197.478126,264.419484 198.004958,264.251691 198.640054,264.251691 C199.340103,264.251691 199.892195,264.441135 200.296346,264.820027 C200.700498,265.198919 200.902571,265.760032 200.902571,266.503383 C200.902571,266.849799 200.852053,267.167342 200.751015,267.456022 C200.649977,267.744701 200.471359,267.99188 200.215156,268.197564 C199.958952,268.403249 199.614346,268.563824 199.181326,268.679296 C198.748306,268.794768 198.203431,268.856112 197.546685,268.863329 L197.546685,270.768606 C198.340554,270.768606 198.973836,270.82995 199.446549,270.952639 C199.919263,271.075328 200.281911,271.244924 200.534506,271.461434 C200.787101,271.677944 200.953089,271.939556 201.032476,272.246279 C201.111863,272.553001 201.151556,272.893999 201.151556,273.269283 C201.151556,273.56518 201.095625,273.859268 200.983762,274.151556 C200.871898,274.443844 200.702302,274.709065 200.474966,274.947226 C200.247631,275.185387 199.964368,275.378439 199.625169,275.526387 C199.28597,275.674335 198.889042,275.748309 198.434371,275.748309 C198.030219,275.748309 197.682004,275.688769 197.389716,275.569689 C197.097427,275.450608 196.843032,275.295445 196.626522,275.104195 C196.410012,274.912944 196.224178,274.694634 196.069012,274.449256 C195.913847,274.203878 195.771313,273.954895 195.641407,273.7023 C195.56202,273.550743 195.448354,273.435273 195.300406,273.355886 C195.152458,273.276499 194.984665,273.236806 194.797023,273.236806 C194.58773,273.236806 194.382049,273.280108 194.179973,273.366712 L193,273.853857 C193.21651,274.525037 193.476318,275.116822 193.779432,275.629229 C194.082545,276.141635 194.450607,276.574649 194.883627,276.928281 C195.316646,277.281914 195.825437,277.548939 196.410014,277.729364 C196.99459,277.909789 197.680195,278 198.466847,278 C199.188547,278 199.872347,277.895355 200.518268,277.686062 C201.164189,277.476769 201.732519,277.168247 202.223275,276.760487 C202.71403,276.352727 203.103742,275.849349 203.392422,275.250338 C203.681102,274.651328 203.82544,273.962115 203.82544,273.182679 C203.82544,272.266121 203.594499,271.504739 203.132612,270.898512 C202.670724,270.292284 201.970686,269.841228 201.032476,269.545332 C201.422194,269.415426 201.770409,269.253046 202.077131,269.058187 C202.383854,268.863328 202.643662,268.625171 202.856563,268.343708 C203.069464,268.062245 203.231844,267.732072 203.343708,267.35318 C203.455571,266.974288 203.511502,266.535862 203.511502,266.037889 C203.511502,265.467746 203.401444,264.937305 203.181326,264.446549 C202.961208,263.955794 202.645469,263.528193 202.2341,263.163735 C201.822731,262.799276 201.32657,262.514209 200.745602,262.308525 C200.164634,262.102841 199.51331,262 198.79161,262 Z" id="Combined-Shape-Copy" fill="#FC61B2"></path>
        </g>
    </g>
</svg>