<?xml version="1.0" encoding="UTF-8"?>
<svg width="212px" height="322px" viewBox="0 0 212 322" version="1.1" xmlns="http://www.w3.org/2000/svg" xmlns:xlink="http://www.w3.org/1999/xlink">
    <!-- Generator: Sketch 43.2 (39069) - http://www.bohemiancoding.com/sketch -->
    <title>mechanics-negative</title>
    <desc>Created with Sketch.</desc>
    <defs>
        <circle id="path-1" cx="73" cy="73" r="73"></circle>
        <circle id="path-3" cx="73" cy="73" r="73"></circle>
        <path d="M94.9,21.754 L135.634,32.996 C140.306,34.602 143.956,38.106 146,42.632 L146,56.94 L0,56.94 L0,42.632 C1.898,38.106 5.694,34.602 10.366,32.996 L51.1,21.754 L51.1,0 L94.9,0 L94.9,21.754 Z" id="path-5"></path>
        <path d="M94.9,21.754 L135.634,32.996 C140.306,34.602 143.956,38.106 146,42.632 L146,56.94 L0,56.94 L0,42.632 C1.898,38.106 5.694,34.602 10.366,32.996 L51.1,21.754 L51.1,0 L94.9,0 L94.9,21.754 Z" id="path-7"></path>
        <path d="M94.9,21.754 L135.634,32.996 C140.306,34.602 143.956,38.106 146,42.632 L146,56.94 L0,56.94 L0,42.632 C1.898,38.106 5.694,34.602 10.366,32.996 L51.1,21.754 L51.1,0 L94.9,0 L94.9,21.754 Z" id="path-9"></path>
        <rect id="path-11" x="0" y="0" width="45.26" height="7.3"></rect>
        <rect id="path-13" x="0" y="0" width="45.26" height="7.3"></rect>
    </defs>
    <g id="Investors-Web" stroke="none" stroke-width="1" fill="none" fill-rule="evenodd">
        <g id="mechanics-negative">
            <g id="journey-ui" transform="translate(0.000000, 20.000000)">
                <g id="user-ui">
                    <g id="profile-pic" transform="translate(33.000000, 34.000000)">
                        <circle id="Oval" fill="#F5EEE5" fill-rule="nonzero" cx="73" cy="73" r="73"></circle>
                        <g id="Group">
                            <g id="Clipped">
                                <mask id="mask-2" fill="white">
                                    <use xlink:href="#path-1"></use>
                                </mask>
                                <g id="SVGID_1_"></g>
                                <path d="M94.9,110.814 L135.634,122.056 C140.306,123.662 143.956,127.166 146,131.692 L146,146 L0,146 L0,131.692 C1.898,127.166 5.694,123.662 10.366,122.056 L51.1,110.814 L51.1,89.06 L94.9,89.06 L94.9,110.814 Z" id="Shape" fill="#E6C19C" fill-rule="nonzero" mask="url(#mask-2)"></path>
                            </g>
                            <g id="Clipped">
                                <mask id="mask-4" fill="white">
                                    <use xlink:href="#path-3"></use>
                                </mask>
                                <g id="SVGID_1_"></g>
                                <g id="Group" mask="url(#mask-4)">
                                    <g transform="translate(0.000000, 89.060000)" id="Clipped">
                                        <g>
                                            <mask id="mask-6" fill="white">
                                                <use xlink:href="#path-5"></use>
                                            </mask>
                                            <g id="SVGID_3_"></g>
                                            <path d="M0,-4.38 L146,-4.38 L146,56.94 L0,56.94 L0,-4.38 Z M73,39.42 C89.06,39.42 102.2,30.222 102.2,18.98 C102.2,7.738 89.06,-1.46 73,-1.46 C56.94,-1.46 43.8,7.738 43.8,18.98 C43.8,30.222 56.94,39.42 73,39.42 Z" id="Shape" fill="#FF6F6D" fill-rule="nonzero" mask="url(#mask-6)"></path>
                                        </g>
                                        <g>
                                            <mask id="mask-8" fill="white">
                                                <use xlink:href="#path-7"></use>
                                            </mask>
                                            <g id="SVGID_3_"></g>
                                            <path d="M73,24.82 C70.518,24.82 67.306,24.236 65.116,23.214 C62.634,21.9 53.436,14.308 50.224,11.096 C46.136,6.716 44.092,1.168 43.508,-8.322 C42.924,-17.812 40.442,-51.684 40.442,-59.422 C40.442,-70.372 48.764,-87.454 72.708,-87.454 L72.854,-87.454 L72.854,-87.454 L72.854,-87.454 L73,-87.454 C97.09,-87.308 105.266,-70.372 105.266,-59.422 C105.266,-51.684 102.784,-17.812 102.2,-8.322 C101.616,1.168 99.572,6.57 95.484,11.096 C92.418,14.454 83.22,21.9 80.592,23.214 C78.694,24.236 75.482,24.82 73,24.82 L73,24.82 Z" id="Shape" fill="#D4B08C" fill-rule="nonzero" mask="url(#mask-8)"></path>
                                        </g>
                                        <g>
                                            <mask id="mask-10" fill="white">
                                                <use xlink:href="#path-9"></use>
                                            </mask>
                                            <g id="SVGID_3_"></g>
                                            <path d="M73,-4.38 C54.458,-4.38 39.42,6.424 39.42,19.71 C39.42,32.996 54.458,43.8 73,43.8 C91.542,43.8 106.58,32.996 106.58,19.71 C106.58,6.424 91.542,-4.38 73,-4.38 Z M73,37.96 C57.67,37.96 45.26,29.2 45.26,18.25 C45.26,7.3 57.67,-1.46 73,-1.46 C88.33,-1.46 100.74,7.3 100.74,18.25 C100.74,29.2 88.33,37.96 73,37.96 Z" id="Shape" fill="#CF4543" fill-rule="nonzero" mask="url(#mask-10)"></path>
                                        </g>
                                    </g>
                                </g>
                            </g>
                        </g>
                        <path d="M73,108.04 C70.81,108.04 67.89,107.602 65.992,106.726 C63.656,105.704 55.48,100.01 52.706,97.528 C49.056,94.17 47.158,90.082 46.574,82.928 C45.99,75.774 43.8,50.37 43.8,44.53 C43.8,36.208 51.246,23.36 73,23.36 L73,23.36 L73,23.36 L73,23.36 L73,23.36 C94.754,23.36 102.2,36.208 102.2,44.53 C102.2,50.37 100.01,75.92 99.426,83.074 C98.842,90.228 97.09,94.316 93.294,97.674 C90.52,100.156 82.198,105.85 80.008,106.872 C78.11,107.602 75.19,108.04 73,108.04 L73,108.04 Z" id="Shape" fill="#F2CEA5" fill-rule="nonzero"></path>
                        <path d="M83.22,93.79 C80.446,96.71 75.628,98.17 71.394,97.294 C67.452,96.418 64.532,94.374 63.072,91.016 L83.22,93.79 Z" id="Shape" fill="#A3705F" fill-rule="nonzero" transform="translate(73.146000, 94.281239) scale(1, -1) translate(-73.146000, -94.281239) "></path>
                        <path d="M83.22,93.79 C80.446,96.71 75.628,98.17 71.394,97.294 C67.452,96.418 64.532,94.374 63.072,91.016 L83.22,93.79 Z" id="Shape" stroke="#A3705F" stroke-linecap="round" stroke-linejoin="round" transform="translate(73.146000, 94.281239) scale(1, -1) translate(-73.146000, -94.281239) "></path>
                        <g id="Group" transform="translate(49.640000, 59.860000)">
                            <g id="Clipped">
                                <mask id="mask-12" fill="white">
                                    <use xlink:href="#path-11"></use>
                                </mask>
                                <g id="SVGID_5_"></g>
                                <circle id="Oval" fill="#291F21" fill-rule="nonzero" mask="url(#mask-12)" cx="36.5" cy="5.84" r="2.92"></circle>
                            </g>
                            <g id="Clipped">
                                <mask id="mask-14" fill="white">
                                    <use xlink:href="#path-13"></use>
                                </mask>
                                <g id="SVGID_5_"></g>
                                <circle id="Oval" fill="#291F21" fill-rule="nonzero" mask="url(#mask-14)" cx="10.22" cy="5.84" r="2.92"></circle>
                            </g>
                        </g>
                        <path d="M51.1,61.32 C51.1,61.32 52.706,56.94 60.006,56.94 C64.97,56.94 67.89,59.13 69.35,61.32" id="Shape" stroke="#CC9872" stroke-width="2"></path>
                        <path d="M95.046,63.32 C95.046,63.32 93.44,58.94 86.14,58.94 C79.132,58.94 75.92,63.32 75.92,66.24 L75.92,79.38" id="Shape" stroke="#BB8660" stroke-width="2"></path>
                        <path d="M100.448,70.372 C100.448,70.372 101.616,61.174 105.85,59.86 C106.434,57.232 108.04,49.64 108.04,45.406 C108.04,41.172 107.602,37.084 105.266,33.58 C102.638,29.784 97.09,27.594 94.17,27.594 C90.812,29.638 82.928,34.31 80.446,37.084 C79.132,38.544 81.03,39.712 81.03,39.712 C81.03,39.712 82.782,38.982 83.512,38.836 C87.162,37.814 95.192,37.084 97.674,40.734 C100.74,45.114 100.74,57.962 100.74,59.86 C100.74,61.612 100.448,70.372 100.448,70.372 Z" id="Shape" fill="#452228" fill-rule="nonzero"></path>
                        <path d="M40.15,59.86 C44.384,61.32 45.552,70.372 45.552,70.372 C45.552,70.372 45.26,61.612 45.26,59.86 C45.26,57.524 45.552,46.574 50.224,41.318 C55.48,35.478 62.488,33.58 66.43,36.208 C68.474,37.522 75.336,44.238 82.636,38.69 C87.016,35.332 95.046,27.74 95.046,27.74 C95.046,27.74 90.812,14.746 71.54,16.206 C63.364,16.936 54.312,14.892 54.312,14.892 C54.312,14.892 54.166,18.542 55.626,20.44 C43.508,23.944 39.566,32.704 38.398,39.42 C38.106,40.734 37.96,42.048 37.96,43.362 L37.96,45.406 C37.96,49.64 39.566,57.086 40.15,59.86 Z" id="Shape" fill="#6B363E" fill-rule="nonzero"></path>
                    </g>
                    <g id="crown">
                        <path d="M211.678315,109.889273 C211.678315,90.4629229 206.383756,71.1031833 197.158928,55.5143423 L187.368288,61.3427128 C195.367346,74.9812704 199.953288,92.033757 199.953288,108.987348 C199.953288,146.001392 178.093889,176.7399 146.580373,191.337592 L152.169675,203.142706 C187.36771,186.295056 211.678315,151.516187 211.678315,109.889273 Z" id="3" stroke="#FF3330"></path>
                        <path d="M106,208.138846 L95.2917303,197.430577 L93.8611535,196 L91,198.861154 L92.4305768,200.29173 L103.138846,211 L92.4305768,221.70827 L91,223.138846 L93.8611535,226 L95.2917303,224.569423 L106,213.861154 L116.70827,224.569423 L118.138846,226 L121,223.138846 L119.569423,221.70827 L108.861154,211 L119.569423,200.29173 L121,198.861154 L118.138846,196 L116.70827,197.430577 L106,208.138846 Z" id="Line-Copy-2" stroke="#FF3E3E" stroke-width="1.14517419" fill="#FF3E3E" stroke-linecap="square"></path>
                        <path d="M77.891051,4.88428655 C59.217245,10.2389143 42.0668469,20.6646377 29.6245984,33.8289784 L37.9258538,40.633829 C48.8312375,29.185345 63.959083,21.0767527 80.2559203,16.4037098 C115.836103,6.20125645 152.409121,17.741178 175.127625,44.0102453 L183.934808,36.3835326 C158.037914,7.19285109 117.905409,-6.58964608 77.891051,4.88428655 Z" id="2" stroke="#FF3330"></path>
                        <path d="M65.6783145,109.889273 C65.6783145,90.4629229 60.3837564,71.1031833 51.1589283,55.5143423 L41.3682883,61.3427128 C49.3673464,74.9812704 53.9532879,92.033757 53.9532879,108.987348 C53.9532879,146.001392 32.0938892,176.7399 0.580372703,191.337592 L6.16967502,203.142706 C41.3677104,186.295056 65.6783145,151.516187 65.6783145,109.889273 Z" id="1" stroke="#FF3330" transform="translate(33.129344, 129.328524) scale(-1, 1) translate(-33.129344, -129.328524) "></path>
                    </g>
                    <g id="cheat-o-meter" transform="translate(22.230000, 24.230000)"></g>
                </g>
                <g id="cheat-days" transform="translate(38.440000, 260.590000)" stroke="#40AAD1">
                    <g id="Arriba" transform="translate(0.000000, 0.410000)">
                        <g id="star-placeholders" transform="translate(0.000000, 1.000000)">
                            <g id="do" transform="translate(15.000000, 20.000000)">
                                <path d="M102.402316,11.9998729 C102.802512,10.7135273 105.831025,8.22168269 105.390061,6.94809152 C104.949512,5.67450034 101.012028,5.5409903 99.8985921,4.76687891 C98.7851559,3.99256181 97.3247718,0.373801942 95.9638128,0.394990747 C94.6028538,0.416179551 93.257911,4.0781399 92.169227,4.88640023 C91.080751,5.69466056 87.1497157,5.95016052 86.7493113,7.23671184 C86.3491149,8.52326316 89.4550051,10.9200667 89.8957619,12.1936579 C90.3365188,13.4672491 89.3672281,17.2439992 90.4808724,18.0181106 C91.5945166,18.792222 94.8591126,16.6112151 96.2200716,16.590232 C97.5808226,16.5692489 100.913227,18.6480147 102.001495,17.8397544 C103.090179,17.0312883 102.001911,13.2868356 102.402316,11.9998729 L102.402316,11.9998729 Z" id="do-4" transform="translate(96.073808, 9.289577) rotate(1.000000) translate(-96.073808, -9.289577) "></path>
                                <path d="M73.4023157,11.9998729 C73.8025121,10.7135273 76.8310255,8.22168269 76.3900606,6.94809152 C75.9495118,5.67450034 72.0120284,5.5409903 70.8985921,4.76687891 C69.7851559,3.99256181 68.3247718,0.373801942 66.9638128,0.394990747 C65.6028538,0.416179551 64.257911,4.0781399 63.169227,4.88640023 C62.080751,5.69466056 58.1497157,5.95016052 57.7493113,7.23671184 C57.3491149,8.52326316 60.4550051,10.9200667 60.8957619,12.1936579 C61.3365188,13.4672491 60.3672281,17.2439992 61.4808724,18.0181106 C62.5945166,18.792222 65.8591126,16.6112151 67.2200716,16.590232 C68.5808226,16.5692489 71.9132273,18.6480147 73.0014953,17.8397544 C74.0901793,17.0312883 73.0019113,13.2868356 73.4023157,11.9998729 L73.4023157,11.9998729 Z" id="do-3" transform="translate(67.073808, 9.289577) rotate(1.000000) translate(-67.073808, -9.289577) "></path>
                                <path d="M44.4023157,11.9998729 C44.8025121,10.7135273 47.8310255,8.22168269 47.3900606,6.94809152 C46.9495118,5.67450034 43.0120284,5.5409903 41.8985921,4.76687891 C40.7851559,3.99256181 39.3247718,0.373801942 37.9638128,0.394990747 C36.6028538,0.416179551 35.257911,4.0781399 34.169227,4.88640023 C33.080751,5.69466056 29.1497157,5.95016052 28.7493113,7.23671184 C28.3491149,8.52326316 31.4550051,10.9200667 31.8957619,12.1936579 C32.3365188,13.4672491 31.3672281,17.2439992 32.4808724,18.0181106 C33.5945166,18.792222 36.8591126,16.6112151 38.2200716,16.590232 C39.5808226,16.5692489 42.9132273,18.6480147 44.0014953,17.8397544 C45.0901793,17.0312883 44.0019113,13.2868356 44.4023157,11.9998729 L44.4023157,11.9998729 Z" id="do-2" transform="translate(38.073808, 9.289577) rotate(1.000000) translate(-38.073808, -9.289577) "></path>
                                <path d="M16.0685077,11.9998729 C16.4687041,10.7135273 19.4972175,8.22168269 19.0562527,6.94809152 C18.6157038,5.67450034 14.6782204,5.5409903 13.5647842,4.76687891 C12.4513479,3.99256181 10.9909638,0.373801942 9.6300048,0.394990747 C8.26904581,0.416179551 6.92410299,4.0781399 5.83541899,4.88640023 C4.746943,5.69466056 0.81590769,5.95016052 0.415503279,7.23671184 C0.0153068695,8.52326316 3.12119709,10.9200667 3.56195395,12.1936579 C4.0027108,13.4672491 3.03342012,17.2439992 4.14706439,18.0181106 C5.26070866,18.792222 8.52530463,16.6112151 9.88626362,16.590232 C11.2470146,16.5692489 14.5794193,18.6480147 15.6676873,17.8397544 C16.7563713,17.0312883 15.6681033,13.2868356 16.0685077,11.9998729 L16.0685077,11.9998729 Z" id="do-1" transform="translate(9.740000, 9.289577) rotate(1.000000) translate(-9.740000, -9.289577) "></path>
                            </g>
                            <g id="up">
                                <path d="M131.688508,12.6049748 C132.088704,11.3186292 135.117218,8.82678461 134.676253,7.55319344 C134.235704,6.27960226 130.29822,6.14609222 129.184784,5.37198084 C128.071348,4.59766373 126.610964,0.978903864 125.250005,1.00009267 C123.889046,1.02128147 122.544103,4.68324182 121.455419,5.49150215 C120.366943,6.29976249 116.435908,6.55526244 116.035503,7.84181376 C115.635307,9.12836508 118.741197,11.5251686 119.181954,12.7987598 C119.622711,14.072351 118.65342,17.8491012 119.767064,18.6232125 C120.880709,19.3973239 124.145305,17.216317 125.506264,17.195334 C126.867015,17.1743509 130.199419,19.2531166 131.287687,18.4448563 C132.376371,17.6363902 131.288103,13.8919376 131.688508,12.6049748 L131.688508,12.6049748 Z" id="up-5" transform="translate(125.360000, 9.894679) rotate(1.000000) translate(-125.360000, -9.894679) "></path>
                                <path d="M102.688508,12.6049748 C103.088704,11.3186292 106.117218,8.82678461 105.676253,7.55319344 C105.235704,6.27960226 101.29822,6.14609222 100.184784,5.37198084 C99.0713479,4.59766373 97.6109638,0.978903864 96.2500048,1.00009267 C94.8890458,1.02128147 93.544103,4.68324182 92.455419,5.49150215 C91.366943,6.29976249 87.4359077,6.55526244 87.0355033,7.84181376 C86.6353069,9.12836508 89.7411971,11.5251686 90.1819539,12.7987598 C90.6227108,14.072351 89.6534201,17.8491012 90.7670644,18.6232125 C91.8807087,19.3973239 95.1453046,17.216317 96.5062636,17.195334 C97.8670146,17.1743509 101.199419,19.2531166 102.287687,18.4448563 C103.376371,17.6363902 102.288103,13.8919376 102.688508,12.6049748 L102.688508,12.6049748 Z" id="up-4" transform="translate(96.360000, 9.894679) rotate(1.000000) translate(-96.360000, -9.894679) "></path>
                                <path d="M74.6885077,12.6049748 C75.0887041,11.3186292 78.1172175,8.82678461 77.6762527,7.55319344 C77.2357038,6.27960226 73.2982204,6.14609222 72.1847842,5.37198084 C71.0713479,4.59766373 69.6109638,0.978903864 68.2500048,1.00009267 C66.8890458,1.02128147 65.544103,4.68324182 64.455419,5.49150215 C63.366943,6.29976249 59.4359077,6.55526244 59.0355033,7.84181376 C58.6353069,9.12836508 61.7411971,11.5251686 62.1819539,12.7987598 C62.6227108,14.072351 61.6534201,17.8491012 62.7670644,18.6232125 C63.8807087,19.3973239 67.1453046,17.216317 68.5062636,17.195334 C69.8670146,17.1743509 73.1994193,19.2531166 74.2876873,18.4448563 C75.3763713,17.6363902 74.2881033,13.8919376 74.6885077,12.6049748 L74.6885077,12.6049748 Z" id="up-3" transform="translate(68.360000, 9.894679) rotate(1.000000) translate(-68.360000, -9.894679) "></path>
                                <path d="M45.6885077,12.6049748 C46.0887041,11.3186292 49.1172175,8.82678461 48.6762527,7.55319344 C48.2357038,6.27960226 44.2982204,6.14609222 43.1847842,5.37198084 C42.0713479,4.59766373 40.6109638,0.978903864 39.2500048,1.00009267 C37.8890458,1.02128147 36.544103,4.68324182 35.455419,5.49150215 C34.366943,6.29976249 30.4359077,6.55526244 30.0355033,7.84181376 C29.6353069,9.12836508 32.7411971,11.5251686 33.1819539,12.7987598 C33.6227108,14.072351 32.6534201,17.8491012 33.7670644,18.6232125 C34.8807087,19.3973239 38.1453046,17.216317 39.5062636,17.195334 C40.8670146,17.1743509 44.1994193,19.2531166 45.2876873,18.4448563 C46.3763713,17.6363902 45.2881033,13.8919376 45.6885077,12.6049748 L45.6885077,12.6049748 Z" id="up-2" transform="translate(39.360000, 9.894679) rotate(1.000000) translate(-39.360000, -9.894679) "></path>
                                <path d="M16.6885077,12.6049748 C17.0887041,11.3186292 20.1172175,8.82678461 19.6762527,7.55319344 C19.2357038,6.27960226 15.2982204,6.14609222 14.1847842,5.37198084 C13.0713479,4.59766373 11.6109638,0.978903864 10.2500048,1.00009267 C8.88904581,1.02128147 7.54410299,4.68324182 6.45541899,5.49150215 C5.366943,6.29976249 1.43590769,6.55526244 1.03550328,7.84181376 C0.635306869,9.12836508 3.74119709,11.5251686 4.18195395,12.7987598 C4.6227108,14.072351 3.65342012,17.8491012 4.76706439,18.6232125 C5.88070866,19.3973239 9.14530463,17.216317 10.5062636,17.195334 C11.8670146,17.1743509 15.1994193,19.2531166 16.2876873,18.4448563 C17.3763713,17.6363902 16.2881033,13.8919376 16.6885077,12.6049748 L16.6885077,12.6049748 Z" id="up-1" transform="translate(10.360000, 9.894679) rotate(1.000000) translate(-10.360000, -9.894679) "></path>
                            </g>
                        </g>
                    </g>
                </g>
            </g>
            <path d="M25,232 L94,232" id="Path-9" stroke="#FE53A9" stroke-width="2"></path>
            <path d="M13.5,245 C6.04415588,245 0,238.955844 0,231.5 C0,224.044156 6.04415588,218 13.5,218 C20.9558441,218 27,224.044156 27,231.5 C27,238.955844 20.9558441,245 13.5,245 Z M13.3146375,224 C12.6579995,224 12.0441205,224.090628 11.4729822,224.271888 C10.9018439,224.453147 10.395693,224.723322 9.95451436,225.082421 C9.51333569,225.44152 9.14569231,225.889532 8.85157319,226.426471 C8.55745407,226.963409 8.35909764,227.587548 8.25649795,228.298906 L9.59028728,228.534884 C9.71340691,228.555404 9.82626488,228.565663 9.92886457,228.565663 C10.1614239,228.565663 10.3529404,228.509234 10.50342,228.396375 C10.6538995,228.283515 10.7667575,228.097129 10.8419973,227.837209 C10.9993168,227.317371 11.2746218,226.903558 11.6679207,226.595759 C12.0612195,226.28796 12.5622405,226.134063 13.1709986,226.134063 C13.4993176,226.134063 13.7951423,226.180232 14.0584815,226.272572 C14.3218207,226.364912 14.5492466,226.503419 14.7407661,226.688098 C14.9322855,226.872778 15.0793429,227.100204 15.1819425,227.370383 C15.2845422,227.640562 15.3358413,227.953487 15.3358413,228.309166 C15.3358413,228.699044 15.2828323,229.070108 15.1768126,229.422367 C15.0707929,229.774626 14.9168957,230.121749 14.7151163,230.463748 C14.5133369,230.805747 14.2636814,231.151161 13.9661423,231.5 C13.6686032,231.848839 13.3317392,232.214772 12.9555404,232.597811 L8.45143639,237.112175 C8.29411686,237.269495 8.17954892,237.440492 8.10772914,237.625171 C8.03590935,237.80985 8,237.987687 8,238.158687 L8,239 L18.1778386,239 L18.1778386,237.481532 C18.1778386,237.228453 18.09747,237.024967 17.9367305,236.871067 C17.775991,236.717167 17.5588249,236.640219 17.2852257,236.640219 L13.4787962,236.640219 C13.191517,236.640219 12.8905624,236.665868 12.5759234,236.717168 C12.2612843,236.768468 11.9398101,236.841997 11.6114911,236.937756 L14.9562244,233.521204 C15.3529432,233.110805 15.7325563,232.707252 16.0950752,232.310534 C16.4575942,231.913815 16.7739385,231.503422 17.0441176,231.079343 C17.3142968,230.655265 17.529753,230.210673 17.6904925,229.745554 C17.851232,229.280435 17.9316005,228.774285 17.9316005,228.227086 C17.9316005,227.590968 17.8187426,227.012998 17.5930233,226.49316 C17.3673039,225.973322 17.0526696,225.52873 16.6491108,225.159371 C16.245552,224.790012 15.7599208,224.504447 15.1922025,224.302668 C14.6244842,224.100888 13.9986354,224 13.3146375,224 Z" id="Combined-Shape-Copy-2" fill="#FC61B2"></path>
        </g>
    </g>
</svg>