<?xml version="1.0" encoding="UTF-8"?>
<svg width="1237px" height="684px" viewBox="0 0 1237 684" version="1.1" xmlns="http://www.w3.org/2000/svg" xmlns:xlink="http://www.w3.org/1999/xlink">
    <!-- Generator: Sketch 46.2 (44496) - http://www.bohemiancoding.com/sketch -->
    <title>Sources</title>
    <desc>Created with Sketch.</desc>
    <defs>
        <path d="M24.4402174,37.4840203 C23.3527509,38.4136641 21.7616905,39 19.9891304,39 C16.7114405,39 14.0543478,36.9951574 14.0543478,34.5220588 C14.0543478,34.4949797 14.0546664,34.4679566 14.0553008,34.4409918 C13.3967855,34.6311272 12.6819064,34.7352941 11.9347826,34.7352941 C8.65709268,34.7352941 6,32.7304516 6,30.2573529 C6,28.3281509 7.61688544,26.6838906 9.88395511,26.053972 C8.54853512,25.232868 7.69565217,23.9820264 7.69565217,22.5808824 C7.69565217,20.1077837 10.3527449,18.1029412 13.6304348,18.1029412 C13.7799147,18.1029412 13.9281039,18.1071109 14.0748092,18.1153047 C14.3001822,17.8372872 14.5646217,17.5792591 14.8623669,17.345567 C14.614147,16.8519566 14.4782609,16.3166283 14.4782609,15.7573529 C14.4782609,13.2842543 17.1353536,11.2794118 20.4130435,11.2794118 C21.8275937,11.2794118 23.1265565,11.6528178 24.1462369,12.276118 C25.165198,10.9171993 27.0982486,10 29.3152174,10 C32.5929073,10 35.25,12.0048426 35.25,14.4779412 C35.25,14.5851084 35.2450106,14.6913964 35.2351975,14.79668 C35.6494459,14.7275985 36.0799553,14.6911765 36.5217391,14.6911765 C39.7994291,14.6911765 42.4565217,16.696019 42.4565217,19.1691176 C42.4565217,20.0270603 42.1367498,20.8286499 41.5822285,21.5097349 C43.6015504,22.2243008 45,23.7720151 45,25.5661765 C45,27.7009945 43.0200895,29.4868954 40.3701793,29.9355189 C40.6225794,30.4327338 40.7608696,30.9725639 40.7608696,31.5367647 C40.7608696,34.0098633 38.1037769,36.0147059 34.826087,36.0147059 C34.7138539,36.0147059 34.6023484,36.0123552 34.4916523,36.0077156 C33.679554,37.7505871 31.4788065,39 28.8913043,39 C27.1187442,39 25.5276839,38.4136641 24.4402174,37.4840203 Z" id="path-1"></path>
        <path d="M38.2228261,33.1703694 C36.9122895,34.2923532 34.9948578,35 32.8586957,35 C28.9086591,35 25.7065217,32.5803624 25.7065217,29.5955882 C25.7065217,29.5629065 25.7069056,29.5302925 25.7076702,29.4977487 C24.9140748,29.7272225 24.0525539,29.8529412 23.1521739,29.8529412 C19.2021373,29.8529412 16,27.4333036 16,24.4485294 C16,22.1201821 17.9485542,20.13573 20.6806638,19.3754834 C19.0713115,18.3844959 18.0434783,16.8748595 18.0434783,15.1838235 C18.0434783,12.1990493 21.2456156,9.77941176 25.1956522,9.77941176 C25.3757947,9.77941176 25.5543817,9.78444423 25.7311803,9.79433325 C26.0027837,9.45879492 26.3214671,9.14738168 26.6802883,8.86533949 C26.3811515,8.26960284 26.2173913,7.62351693 26.2173913,6.94852941 C26.2173913,3.96375521 29.4195286,1.54411765 33.3695652,1.54411765 C35.0742796,1.54411765 36.6396963,1.99478007 37.8685419,2.74703891 C39.0965207,1.10696466 41.4260944,0 44.0978261,0 C48.0478627,0 51.25,2.41963757 51.25,5.40441176 C51.25,5.53375152 51.2439871,5.66203009 51.2321611,5.78909656 C51.7313835,5.70572233 52.2502025,5.66176471 52.7826087,5.66176471 C56.7326453,5.66176471 59.9347826,8.08140227 59.9347826,11.0661765 C59.9347826,12.1016245 59.5494165,13.0690602 58.8811472,13.8910594 C61.3146889,14.7534664 63,16.6213976 63,18.7867647 C63,21.3632692 60.613954,23.5186669 57.4204725,24.0601091 C57.724647,24.6601959 57.8913043,25.311715 57.8913043,25.9926471 C57.8913043,28.9774213 54.689167,31.3970588 50.7391304,31.3970588 C50.6038752,31.3970588 50.4694968,31.3942218 50.3360939,31.3886223 C49.3574113,33.4920879 46.7052284,35 43.5869565,35 C41.4507943,35 39.5333626,34.2923532 38.2228261,33.1703694 Z" id="path-2"></path>
        <ellipse id="path-3" cx="41.8946612" cy="33.3310251" rx="11.0683161" ry="11.1483827"></ellipse>
        <path d="M25.0335602,10.294321 C24.2700032,11.0615265 23.752755,11.1190255 23.4803226,12.094719 L2.31950008,12.094719 C1.36970138,12.094719 0.599737407,12.86361 0.599737407,13.8166117 L0.599737407,14.1723536 C0.599737407,15.1233286 1.37101901,15.8942463 2.3313042,15.8942463 L23.3885166,15.8942463 C23.6251223,17.0079317 24.1722261,18.0691202 25.0343066,18.93457 C25.7478554,19.6522784 26.5957544,20.1517494 27.4959008,20.4382328 L27.4959008,42.4447162 C27.4959008,43.3978992 28.2611353,44.1706067 29.2316856,44.1706067 L29.5415741,44.1706067 C30.5002216,44.1706067 31.2773589,43.3872512 31.2773589,42.4393503 L31.2773589,20.6264719 C32.4544159,20.4127343 32.7221235,19.8502669 33.6334657,18.9353199 L25.0335602,10.294321 Z" id="path-4"></path>
        <ellipse id="path-5" cx="13.3294671" cy="13.3701652" rx="13.3294671" ry="13.3701652"></ellipse>
    </defs>
    <g id="graphics" stroke="none" stroke-width="1" fill="none" fill-rule="evenodd">
        <g id="Sources">
            <g id="exteriores" transform="translate(459.000000, 69.000000)">
                <rect id="cage" fill="#2D2D2D" x="0" y="0" width="320" height="183" rx="18"></rect>
                <g id="Group-3" transform="translate(53.000000, 21.000000)">
                    <g id="tree" transform="translate(0.000000, 31.000000)">
                        <path d="M25.6666667,59.5680861 L25.6666667,33" id="Path-12" stroke="#8C7763" stroke-width="8"></path>
                        <g id="Combined-Shape">
                            <use fill="#89A86D" fill-rule="evenodd" xlink:href="#path-1"></use>
                            <path stroke="#2D2D2D" stroke-width="4" d="M24.4402174,39.8984683 C23.142266,40.6111754 21.5983098,41 19.9891304,41 C16.6072133,41 13.6149214,39.277353 12.5086498,36.7187972 C12.3183668,36.729772 12.1269817,36.7352941 11.9347826,36.7352941 C7.655475,36.7352941 4,33.9771473 4,30.2573529 C4,28.3525718 4.97375031,26.6692172 6.52964975,25.4959228 C5.99348253,24.6188808 5.69565217,23.6285485 5.69565217,22.5808824 C5.69565217,19.195446 8.72350854,16.6065492 12.4938059,16.16849 C12.4834717,16.0321572 12.4782609,15.8950561 12.4782609,15.7573529 C12.4782609,12.0375586 16.1337359,9.27941176 20.4130435,9.27941176 C21.5717206,9.27941176 22.698002,9.48058421 23.7251024,9.86174181 C25.1934888,8.67731702 27.1939735,8 29.3152174,8 C32.878853,8 36.0098676,9.9127445 36.9574579,12.7007375 C41.0462341,12.8805067 44.4565217,15.5762392 44.4565217,19.1691176 C44.4565217,19.6743213 44.3865929,20.1693162 44.2521909,20.6466205 C45.9388213,21.8274674 47,23.5806333 47,25.5661765 C47,28.1140087 45.2664099,30.2453704 42.7562032,31.311279 C42.7593093,31.3862417 42.7608696,31.4614127 42.7608696,31.5367647 C42.7608696,35.0252278 39.5459195,37.6679325 35.6165006,37.9831365 C34.1784861,39.8582735 31.6437047,41 28.8913043,41 C27.282125,41 25.7381688,40.6111754 24.4402174,39.8984683 Z"></path>
                        </g>
                        <g id="Group-24" transform="translate(108.000000, 30.000000) scale(-1, 1) translate(-108.000000, -30.000000) ">
                            <path d="M39.3333333,59.4881021 L39.3333333,28" id="Path-12-Copy" stroke="#8C7763" stroke-width="9.6"></path>
                            <path d="M0.5,59 L215.509308,59" id="Line" stroke="#89A86D" stroke-width="2" stroke-linecap="square"></path>
                            <g id="Combined-Shape-Copy">
                                <use fill="#89A86D" fill-rule="evenodd" xlink:href="#path-2"></use>
                                <path stroke="#2D2D2D" stroke-width="4.8" d="M38.2228261,36.0695536 C36.6591472,36.9302911 34.7983199,37.4 32.8586957,37.4 C28.7828518,37.4 25.1780399,35.3196247 23.8495339,32.2326847 C23.6183173,32.2461603 23.3857451,32.2529412 23.1521739,32.2529412 C17.9997179,32.2529412 13.6,28.9283733 13.6,24.4485294 C13.6,22.1509287 14.7756675,20.120006 16.6538842,18.7059147 C16.0043516,17.6466436 15.6434783,16.4498776 15.6434783,15.1838235 C15.6434783,11.1036634 19.2931473,7.98183183 23.8371381,7.45726083 C23.8240115,7.28859262 23.8173913,7.1189431 23.8173913,6.94852941 C23.8173913,2.46868549 28.2171092,-0.855882353 33.3695652,-0.855882353 C34.7665911,-0.855882353 36.1244638,-0.612718523 37.3624454,-0.152076115 C39.1305964,-1.58195485 41.5412646,-2.4 44.0978261,-2.4 C48.3924803,-2.4 52.1641706,-0.0902604118 53.3009885,3.27301614 C58.2267039,3.48722773 62.3347826,6.73735331 62.3347826,11.0661765 C62.3347826,11.6782002 62.2496444,12.2778181 62.0860316,12.855859 C64.1201809,14.2788357 65.4,16.3930333 65.4,18.7867647 C65.4,21.8572649 63.310648,24.4269763 60.2852492,25.7106459 C60.2892795,25.8043871 60.2913043,25.8983997 60.2913043,25.9926471 C60.2913043,30.1948923 56.4199594,33.3806015 51.687425,33.7592779 C49.9572033,36.0216133 46.9035105,37.4 43.5869565,37.4 C41.6473323,37.4 39.786505,36.9302911 38.2228261,36.0695536 Z"></path>
                            </g>
                        </g>
                    </g>
                    <g id="MONO" transform="translate(69.000000, 0.000000)">
                        <ellipse id="Oval" fill="#AEAEAE" cx="37.9224244" cy="59.5070425" rx="22.9947135" ry="25.2976324"></ellipse>
                        <path d="M8.22797368,76.9769485 C18.1329449,75.5495706 20.1926901,75.854047 20.1926901,75.854047 C25.1033117,75.7095608 29.9365721,79.4765827 30.9915068,84.283544 L32.9904017,93.3917951" id="Path-8-Copy" stroke="#AEAEAE" stroke-width="9.09090909" stroke-linecap="round" transform="translate(20.609188, 84.609307) rotate(131.000000) translate(-20.609188, -84.609307) "></path>
                        <path d="M37.0481928,78.8398586 C46.953164,77.4124807 49.0129092,77.7169572 49.0129092,77.7169572 C53.9235308,77.5724709 58.7567912,81.3394928 59.8117259,86.1464541 L61.8106208,95.2547052" id="Path-8-Copy-4" stroke="#AEAEAE" stroke-width="9.09090909" stroke-linecap="round"></path>
                        <path d="M2.33039292,42.4325158 C7.10578146,41.7443478 8.87909604,42.7875495 8.87909604,42.7875495 C11.7796452,43.5213331 15.142805,46.3275991 16.3930961,49.0602683 L18.2241951,53.0623664" id="Path-8-Copy-3" stroke="#AEAEAE" stroke-width="9.09090909" stroke-linecap="round" transform="translate(10.277294, 47.630012) rotate(-49.000000) translate(-10.277294, -47.630012) "></path>
                        <path d="M53.9455757,31.6890677 C58.7209642,31.0008997 60.4942788,32.0441014 60.4942788,32.0441014 C63.394828,32.777885 66.7579878,35.584151 68.0082789,38.3168202 L69.8393779,42.3189183" id="Path-8-Copy-5" stroke="#AEAEAE" stroke-width="9.09090909" stroke-linecap="round" transform="translate(61.892477, 36.886564) rotate(-259.000000) translate(-61.892477, -36.886564) "></path>
                        <ellipse id="Oval" fill="#AEAEAE" cx="38.7403258" cy="19.1152045" rx="12.3427355" ry="12.5036343"></ellipse>
                        <path d="M27.2168675,4.91769688 C27.2168675,6.88477563 29.4047221,3.9341575 30.1342933,3.9341575 C31.4770014,3.9341575 33.0517191,3.81683293 33.0517191,2.45884844 C33.0517191,1.10086394 31.9632391,0 30.6205309,0 C29.2778228,0 27.2168675,1.53799253 27.2168675,2.89597702 C27.2168675,3.51608978 27.2168675,2.95061813 27.2168675,4.91769688 Z" id="Oval-3" fill="#8CD3FD" transform="translate(30.134293, 2.796940) scale(-1, 1) translate(-30.134293, -2.796940) "></path>
                        <path d="M46.060241,4.91769688 C46.060241,6.88477563 48.2480955,3.9341575 48.9776668,3.9341575 C50.3203749,3.9341575 51.8950926,3.81683293 51.8950926,2.45884844 C51.8950926,1.10086394 50.8066126,0 49.4639044,0 C48.1211963,0 46.060241,1.53799253 46.060241,2.89597702 C46.060241,3.51608978 46.060241,2.95061813 46.060241,4.91769688 Z" id="Oval-3-Copy-2" fill="#8CD3FD"></path>
                        <path d="M21.6581284,9.32024061 C21.6581284,11.2873194 23.845983,8.33670123 24.5755542,8.33670123 C25.9182624,8.33670123 27.49298,8.21937666 27.49298,6.86139217 C27.49298,5.50340767 26.4045,4.40254373 25.0617918,4.40254373 C23.7190837,4.40254373 21.6581284,5.94053626 21.6581284,7.29852075 C21.6581284,7.91863351 21.6581284,7.35316186 21.6581284,9.32024061 Z" id="Oval-3-Copy" fill="#8CD3FD" transform="translate(24.575554, 7.199484) scale(-1, 1) rotate(30.000000) translate(-24.575554, -7.199484) "></path>
                        <path d="M50.3328272,9.32024061 C50.3328272,11.2873194 52.5206818,8.33670123 53.250253,8.33670123 C54.5929611,8.33670123 56.1676788,8.21937666 56.1676788,6.86139217 C56.1676788,5.50340767 55.0791988,4.40254373 53.7364906,4.40254373 C52.3937825,4.40254373 50.3328272,5.94053626 50.3328272,7.29852075 C50.3328272,7.91863351 50.3328272,7.35316186 50.3328272,9.32024061 Z" id="Oval-3-Copy-3" fill="#8CD3FD" transform="translate(53.250253, 7.199484) rotate(30.000000) translate(-53.250253, -7.199484) "></path>
                        <path d="M37.0918876,19.3635591 C37.0918876,16.7477665 38.3071486,15.4398702 39.5224096,15.4398702 C40.7376707,15.4398702 41.9529317,16.7477665 41.9529317,19.3635591" id="Path-3" stroke="#1A1A1A" stroke-width="0.826446281"></path>
                        <path d="M43.8973494,19.3635591 C43.8973494,16.7477665 45.1126104,15.4398702 46.3278715,15.4398702 C47.5431325,15.4398702 48.7583936,16.7477665 48.7583936,19.3635591" id="Path-3-Copy" stroke="#1A1A1A" stroke-width="0.826446281"></path>
                    </g>
                </g>
                <text id="OUTDOORS" font-family="ProximaNova-Bold, Proxima Nova" font-size="26" font-weight="bold" letter-spacing="1.39999998" fill="#EAEAEA">
                    <tspan x="84.4770001" y="159">OUTDOORS</tspan>
                </text>
            </g>
            <g id="apps" transform="translate(459.000000, 321.000000)">
                <rect id="Rectangle" fill="#2D2D2D" x="0" y="0" width="320" height="112" rx="18"></rect>
                <g id="Group-21" transform="translate(93.000000, 21.000000)" fill="#EAEAEA">
                    <g id="Group-17">
                        <path d="M4.00988005,0 C1.80431824,0 0,1.78457831 0,3.96975904 L0,65.4677108 C0,67.6478313 1.80517013,69.4374699 4.00988005,69.4374699 L31.7868397,69.4374699 C33.9915496,69.4374699 35.7967197,67.6486747 35.7967197,65.4677108 L35.7967197,3.96975904 C35.7967197,1.78457831 33.9915496,0 31.7868397,0 L4.00988005,0 Z M17.8962558,68.4414458 C15.8439536,68.4414458 14.1710582,66.7815696 14.1710582,64.7522811 C14.1710582,62.7180341 15.8439536,61.0593976 17.8962558,61.0593976 C19.9510623,61.0593976 21.6239577,62.7180341 21.6239577,64.7522811 C21.6239577,66.78033 19.9510623,68.4414458 17.8962558,68.4414458 L17.8962558,68.4414458 Z M34.6669911,60.066747 L1.13046756,60.066747 L1.13046756,9.36987952 L34.6679559,9.36987952 L34.6679559,60.066747 L34.6669911,60.066747 Z" id="Shape"></path>
                        <path d="M18.1667075,25.3890137 C21.3486363,25.3890137 23.9371248,27.951603 23.9371248,31.1016949 C23.9371248,31.6193588 23.8665803,32.1333469 23.7285854,32.6289565 C23.6722735,32.8305085 23.6035854,33.0314478 23.5336597,33.2060445 L23.3690559,33.576067 L18.1667075,43.0931182 L12.9724036,33.5907699 L12.7978988,33.1999183 C12.7242602,33.0161323 12.6599038,32.8237697 12.6054484,32.6295691 C12.4668346,32.1339596 12.3969089,31.6199714 12.3969089,31.1023075 C12.3962901,27.951603 14.9847787,25.3890137 18.1667075,25.3890137 L18.1667075,25.3890137 Z M18.1667075,24.7763937 C21.6951707,24.7763937 24.5559364,27.6079232 24.5559364,31.1016949 C24.5559364,31.6873596 24.474872,32.2540331 24.3245008,32.792526 C24.2613821,33.0179702 24.1858871,33.2385134 24.0992535,33.4529304 L23.9247486,33.8456198 L18.1667075,44.3802328 L12.4160921,33.8603226 L12.2224041,33.4247498 C12.1401021,33.2189095 12.0689388,33.0081683 12.0089141,32.792526 C11.8585429,32.2546457 11.7774786,31.6873596 11.7774786,31.1016949 C11.7774786,27.6079232 14.6382442,24.7763937 18.1667075,24.7763937 Z M18.1667075,28.8582806 C19.3839097,28.8582806 20.3746269,29.8390852 20.3746269,31.0441086 C20.3746269,32.2491321 19.3839097,33.2299367 18.1667075,33.2299367 C16.9495052,33.2299367 15.958788,32.2491321 15.958788,31.0441086 C15.958788,29.8390852 16.9495052,28.8582806 18.1667075,28.8582806 Z M18.1667075,28.2456606 C16.605446,28.2456606 15.3399765,29.4984685 15.3399765,31.0441086 C15.3399765,32.5897488 16.605446,33.8425567 18.1667075,33.8425567 C19.7279689,33.8425567 20.9934385,32.5897488 20.9934385,31.0441086 C20.9934385,29.4984685 19.7279689,28.2456606 18.1667075,28.2456606 Z" id="Combined-Shape"></path>
                    </g>
                    <text id="APPS" font-family="ProximaNova-Bold, Proxima Nova" font-size="26" font-weight="bold" letter-spacing="1.39999998">
                        <tspan x="62" y="45">APPS</tspan>
                    </text>
                </g>
            </g>
            <g id="gyms" transform="translate(69.000000, 69.000000)">
                <g id="Group-15" transform="translate(73.000000, 21.000000)"></g>
                <rect id="cage" fill="#2D2D2D" x="0" y="0" width="320" height="183" rx="18"></rect>
                <g id="illustr" transform="translate(52.000000, 21.000000)">
                    <g id="context" transform="translate(0.000000, 37.000000)">
                        <path d="M0.5,54.4698163 L215.509308,54.4698163" id="Line" stroke="#424242" stroke-width="2" stroke-linecap="square"></path>
                        <g id="context-copy" transform="translate(113.000000, 0.000000)">
                            <g id="rack" transform="translate(0.000000, 0.469816)">
                                <g id="Group-4" transform="translate(0.000000, 0.879265)">
                                    <g id="Group-7">
                                        <g id="Group-8">
                                            <path d="M4,38.6509186 L10,53.2344249" id="Line-Copy-5" stroke="#B6B6B6" stroke-width="4" transform="translate(7.000000, 46.120735) scale(-1, 1) translate(-7.000000, -46.120735) "></path>
                                            <path d="M0.167346939,37.5 L73.0001526,37.5" id="Line-Copy-2" stroke="#3A6CA7" stroke-width="5" stroke-linecap="round"></path>
                                            <path d="M6.4968144,45.5 L65.5010338,45.5" id="Line-Copy-3" stroke="#B6B6B6" stroke-width="3"></path>
                                            <path d="M65,14.5991178 L65,53.2344249" id="Line" stroke="#B6B6B6" stroke-width="4"></path>
                                            <g id="Group-10" transform="translate(52.000000, 0.650919)">
                                                <circle id="Oval-7" fill="#626262" cx="13" cy="13" r="13"></circle>
                                                <circle id="Oval-7-Copy" fill="#B6B6B6" cx="13" cy="13" r="2"></circle>
                                            </g>
                                        </g>
                                    </g>
                                </g>
                            </g>
                        </g>
                    </g>
                    <g id="mono" transform="translate(63.578556, 49.000000) scale(-1, 1) translate(-63.578556, -49.000000) translate(19.578556, 0.000000)">
                        <g id="Group">
                            <g>
                                <g id="Group-5" transform="translate(30.826345, 22.182642)"></g>
                                <g id="Group-18">
                                    <path d="M42.3437134,87.3668486 C54.1708661,87.3668486 63.7586673,75.7275418 63.7586673,62.7904234 C63.7586673,49.8533051 54.1708657,39.3656985 42.343713,39.3656985 C30.5165604,39.3656985 20.9287587,49.8533051 20.9287587,62.7904234 C20.9287587,75.7275418 30.5165607,87.3668486 42.3437134,87.3668486 Z" id="Oval" fill="#AEAEAE"></path>
                                    <g id="Oval">
                                        <use fill="#AEAEAE" fill-rule="evenodd" xlink:href="#path-3"></use>
                                        <ellipse stroke="#2D2D2D" stroke-width="2.20472441" cx="41.8946612" cy="33.3310251" rx="12.1706783" ry="12.2507449"></ellipse>
                                    </g>
                                    <path d="M33.071595,32.8175528 C33.071595,30.4852823 34.1613772,29.3191471 35.2511594,29.3191471 C36.3409416,29.3191471 37.4307238,30.4852823 37.4307238,32.8175528" id="Path-3" stroke="#1A1A1A" stroke-width="0.734908136"></path>
                                    <path d="M39.1743753,32.8175528 C39.1743753,30.4852823 40.2641575,29.3191471 41.3539397,29.3191471 C42.4437219,29.3191471 43.5335041,30.4852823 43.5335041,32.8175528" id="Path-3-Copy" stroke="#1A1A1A" stroke-width="0.734908136"></path>
                                    <path d="M60.185986,81.6409044 C51.1935868,86.0139115 47.5966273,90.3869186 60.185986,96.5091285" id="Path-6-Copy" stroke="#AEAEAE" stroke-width="8.0839895" stroke-linecap="round" transform="translate(56.111684, 89.075016) scale(-1, 1) rotate(20.000000) translate(-56.111684, -89.075016) "></path>
                                    <path d="M32.2875619,81.6409044 C23.2951627,86.0139115 19.6982031,90.3869186 32.2875619,96.5091285" id="Path-6-Copy-2" stroke="#AEAEAE" stroke-width="8.0839895" stroke-linecap="round" transform="translate(28.213260, 89.075016) rotate(20.000000) translate(-28.213260, -89.075016) "></path>
                                    <path d="M57.8828006,52.7086627 C74.7759175,59.3228346 73.3069508,40.2152231 73.3069508,40.2152231" id="Path-6" stroke="#AEAEAE" stroke-width="5.87926509" stroke-linecap="round"></path>
                                    <g id="pesa" transform="translate(58.820734, 31.396325)">
                                        <rect id="Rectangle-4-Copy-3" fill="#626262" x="21.8310502" y="0" width="7.14138339" height="11.7585302" rx="1.32283465"></rect>
                                        <rect id="Rectangle-4-Copy-4" fill="#626262" x="8.66862138e-13" y="0" width="7.14138339" height="11.7585302" rx="1.32283465"></rect>
                                        <path d="M8.13818221,6.07524064 L20.7430276,6.07524064" id="Line" stroke="#737373" stroke-width="2.93963255"></path>
                                    </g>
                                    <path d="M15.8277934,51.2388465 C26.8450435,38.7454081 24.6535363,9.06362118 24.6535363,9.06362118" id="Path-6-Copy-3" stroke="#AEAEAE" stroke-width="5.87926509" stroke-linecap="round" transform="translate(20.329422, 30.151234) scale(-1, 1) translate(-20.329422, -30.151234) "></path>
                                    <g id="pesa" transform="translate(0.820734, 0.396325)">
                                        <rect id="Rectangle-4-Copy-3" fill="#626262" x="21.8310502" y="0" width="7.14138339" height="11.7585302" rx="1.32283465"></rect>
                                        <rect id="Rectangle-4-Copy-4" fill="#626262" x="8.66862138e-13" y="0" width="7.14138339" height="11.7585302" rx="1.32283465"></rect>
                                        <path d="M8.13818221,6.07524064 L20.7430276,6.07524064" id="Line" stroke="#737373" stroke-width="2.93963255"></path>
                                    </g>
                                    <path d="M46.7938936,19.5588382 C46.7938936,21.308041 48.755309,18.6842368 49.4093708,18.6842368 C50.613111,18.6842368 52.0248481,18.5799072 52.0248481,17.3723347 C52.0248481,16.1647621 51.0490239,15.1858311 49.8452837,15.1858311 C48.6415435,15.1858311 46.7938936,16.5534738 46.7938936,17.7610464 C46.7938936,18.3124747 46.7938936,17.8096354 46.7938936,19.5588382 Z" id="Oval-3" fill="#8CD3FD"></path>
                                    <path d="M52.621989,23.9318453 C52.621989,25.6810481 54.5834044,23.0572439 55.2374663,23.0572439 C56.4412065,23.0572439 57.8529436,22.9529143 57.8529436,21.7453417 C57.8529436,20.5377692 56.8771193,19.5588382 55.6733792,19.5588382 C54.469639,19.5588382 52.621989,20.9264809 52.621989,22.1340535 C52.621989,22.6854818 52.621989,22.1826425 52.621989,23.9318453 Z" id="Oval-3-Copy" fill="#8CD3FD" transform="translate(55.237466, 22.045986) rotate(30.000000) translate(-55.237466, -22.045986) "></path>
                                    <path d="M30.7161522,19.6013535 C30.7161522,21.3505564 32.6775676,18.7267521 33.3316295,18.7267521 C34.5353696,18.7267521 35.9471067,18.6224226 35.9471067,17.41485 C35.9471067,16.2072774 34.9712825,15.2283465 33.7675423,15.2283465 C32.5638022,15.2283465 30.7161522,16.5959892 30.7161522,17.8035617 C30.7161522,18.3549901 30.7161522,17.8521507 30.7161522,19.6013535 Z" id="Oval-3" fill="#8CD3FD" transform="translate(33.331629, 17.715494) scale(-1, 1) translate(-33.331629, -17.715494) "></path>
                                    <path d="M26.4672164,24.2511746 C26.4672164,26.0003774 28.4286318,23.3765732 29.0826936,23.3765732 C30.2864338,23.3765732 31.6981709,23.2722436 31.6981709,22.064671 C31.6981709,20.8570985 30.7223467,19.8781675 29.5186065,19.8781675 C28.3148663,19.8781675 26.4672164,21.2458102 26.4672164,22.4533828 C26.4672164,23.0048111 26.4672164,22.5019718 26.4672164,24.2511746 Z" id="Oval-3-Copy" fill="#8CD3FD" transform="translate(29.082694, 22.365315) scale(-1, 1) rotate(30.000000) translate(-29.082694, -22.365315) "></path>
                                </g>
                            </g>
                        </g>
                    </g>
                </g>
                <text id="GYMS" font-family="ProximaNova-Bold, Proxima Nova" font-size="26" font-weight="bold" letter-spacing="1.39999998" fill="#EAEAEA">
                    <tspan x="120.787" y="159">GYMS</tspan>
                </text>
            </g>
            <g id="Group-14" transform="translate(69.000000, 321.000000)">
                <rect id="Rectangle" fill="#2D2D2D" x="0" y="0" width="320" height="112" rx="18"></rect>
                <g id="Group-20" transform="translate(56.000000, 21.000000)">
                    <g id="Group-23">
                        <g id="noun_80101_cc-copy-2">
                            <g id="Group">
                                <path d="M25.6240307,4.75136439 C25.2864377,4.4191716 25.0129238,3.76690417 25.0131221,3.29001912 L25.0141329,0.859857019 C25.0143304,0.3849711 25.4035371,0 25.8835962,0 L50.8140047,0 C51.7647998,0 52.5355713,0.774160342 52.535571,1.73034668 L52.5355521,69.1401958 C52.535552,69.6150525 52.15194,70 51.6631015,70 L40.1110469,70 C39.6292058,70 39.2385965,69.6124435 39.2385965,69.1432756 L39.2385965,19.0048725 C39.2385965,18.5317167 38.9671195,17.8810138 38.6273303,17.5466599 L25.6240307,4.75136439 Z" id="Combined-Shape" fill="#EAEAEA"></path>
                                <rect id="Rectangle-13" stroke="#EAEAEA" stroke-width="0.864197531" transform="translate(18.564584, 25.532959) rotate(-45.000000) translate(-18.564584, -25.532959) " x="3.32391235" y="23.3724654" width="30.481343" height="4.32098765" rx="1.72839506"></rect>
                                <g id="Shape">
                                    <use fill="#2D2D2D" fill-rule="evenodd" xlink:href="#path-4"></use>
                                    <path stroke="#EAEAEA" stroke-width="0.864197531" d="M31.7094577,20.9717232 L31.7094577,42.4393503 C31.7094577,43.6286756 30.7360823,44.6027055 29.5415741,44.6027055 L29.2316856,44.6027055 C28.0266982,44.6027055 27.063802,43.6407415 27.063802,42.4447162 L27.063802,20.7460415 C26.1922191,20.4211567 25.3973932,19.9126368 24.7281713,19.2395135 C23.9130188,18.421175 23.3419198,17.419278 23.0481454,16.326345 L2.3313042,16.326345 C1.13413549,16.326345 0.167638642,15.3637245 0.167638642,14.1723536 L0.167638642,13.8166117 C0.167638642,12.6257094 1.13031912,11.6626202 2.31950008,11.6626202 L23.1692504,11.6626202 C23.3271012,11.264179 23.5493744,10.9871918 23.8985233,10.6960853 C23.9732187,10.6338072 24.2460017,10.4178341 24.296253,10.3768556 C24.4567346,10.2459873 24.5907505,10.126705 24.7272928,9.98951014 L25.0335602,9.68177933 L34.2432186,18.9354448 L33.9396081,19.2402562 C33.7636475,19.4169128 33.1689918,20.0598469 33.0218584,20.2021488 C32.6212742,20.5895785 32.2353396,20.8272286 31.7094577,20.9717232 Z"></path>
                                </g>
                            </g>
                        </g>
                        <text id="CHECK-IN-SYSTEMS" font-family="ProximaNova-Bold, Proxima Nova" font-size="26" font-weight="bold" letter-spacing="1.39999998" fill="#EAEAEA">
                            <tspan x="77" y="28">CHECK-IN</tspan>
                            <tspan x="77" y="60">SYSTEMS</tspan>
                        </text>
                    </g>
                </g>
            </g>
            <g id="casa" transform="translate(848.000000, 69.000000)">
                <rect id="cage" fill="#2D2D2D" x="0" y="0" width="320" height="183" rx="18"></rect>
                <g id="3-mono-copy-3" transform="translate(46.000000, 32.000000)">
                    <g id="Group">
                        <g>
                            <path d="M184.837501,41.1970105 L184.837501,41.1970105 L184.837501,48.53207 L159.030184,48.53207 C159.015824,48.4048832 159.005054,48.276768 159.005054,48.1449393 L159.005054,25.975439 C159.005054,24.2746633 160.337827,22.8960323 161.982028,22.8960323 L190.198207,22.8960323 C191.842408,22.8960323 193.17518,24.2746633 193.17518,25.975439 L193.17518,37.3563395 L190.16141,37.3563395 C187.175461,37.3563395 184.837501,39.0431897 184.837501,41.1970105 Z M131.412631,41.1970105 C131.412631,39.0441181 129.07467,37.3572679 126.090517,37.3563395 L123.076746,37.3563395 L123.076746,25.975439 C123.076746,24.2746633 124.408621,22.8960323 126.05372,22.8960323 L154.269001,22.8960323 C155.913202,22.8960323 157.246872,24.2746633 157.245974,25.975439 L157.245974,48.1449393 C157.245974,48.276768 157.235205,48.4048832 157.219947,48.53207 L131.412631,48.53207 L131.412631,41.1970105 Z M126.089619,39.1026055 C128.231927,39.1026055 129.724452,40.2064386 129.724452,41.1970105 L129.724452,48.53207 L124.983014,48.53207 C124.339514,48.53207 123.750761,48.7864437 123.267014,49.2237065 C122.484403,49.9301968 121.980014,51.1147983 121.980014,52.4850739 L121.980014,62.699012 C121.980014,63.5224771 122.163102,64.2790995 122.478121,64.9057499 L116.885862,64.9057499 C114.744452,64.9057499 113.251029,63.8009884 113.251029,62.8113449 L113.251029,41.1970105 C113.251029,40.2064386 114.743554,39.1026055 116.885862,39.1026055 L123.075849,39.1026055 L126.089619,39.1026055 Z M199.365167,39.1026055 C201.506577,39.1026055 203,40.2064386 203,41.1970105 L203,62.8113449 C203,63.8019168 201.506577,64.9057499 199.364269,64.9057499 L192.013828,64.9057499 C192.328847,64.2790995 192.511935,63.5224771 192.511935,62.699012 L192.511935,52.4850739 C192.511935,51.7563026 192.366542,51.0795202 192.115245,50.4992883 C191.601881,49.3165436 190.639772,48.53207 189.509832,48.53207 L186.526576,48.53207 L186.526576,41.1970105 C186.526576,40.2064386 188.019999,39.1026055 190.162307,39.1026055 L193.176078,39.1026055 L199.365167,39.1026055 Z M190.563485,51.1983516 C190.723238,51.552061 190.823757,51.9893238 190.825552,52.4850739 L190.825552,62.699012 C190.825552,63.8882553 190.246671,64.7460701 189.672278,64.8843974 C189.617531,64.8964662 189.564579,64.9057499 189.51073,64.9057499 L186.989681,64.9057499 L185.677551,64.9057499 L130.575273,64.9057499 L129.263143,64.9057499 L126.090517,64.9057499 L124.983912,64.9057499 C124.361951,64.9057499 123.669089,63.9996598 123.669089,62.699012 L123.669089,52.4850739 C123.669089,51.6690358 123.941926,51.0080356 124.299127,50.6292602 C124.510935,50.4045944 124.752359,50.278336 124.983912,50.278336 L129.72535,50.278336 L130.56899,50.278336 L131.412631,50.278336 L156.413104,50.278336 L159.838822,50.278336 L184.838398,50.278336 L185.682039,50.278336 L186.525679,50.278336 L189.508935,50.278336 C189.893958,50.278336 190.305906,50.6264751 190.563485,51.1983516 Z" id="Combined-Shape" fill="#83694F"></path>
                            <path d="M6.5,68 L221.509308,68" id="Line" stroke="#836A4F" stroke-width="2" stroke-linecap="square"></path>
                            <g id="Group-13">
                                <g id="Group-11" transform="translate(19.465021, 8.837209)">
                                    <path d="M69.5221801,54.7157606 C76.3796266,42.8524471 71.4377023,27.1797996 58.4840834,19.7099228 C45.5304645,12.2400459 29.4704228,15.80163 22.6129764,27.6649434 C15.7555299,39.5282569 20.6974541,55.2009044 33.6510731,62.6707813 C46.604692,70.1406581 62.6647337,66.5790741 69.5221801,54.7157606 L69.5221801,54.7157606 Z" id="Oval" fill="#AEAEAE"></path>
                                    <path d="M28.3886594,9.85221805 C45.8680981,-6.31545857 49.001987,16.3602758 49.001987,16.3602758" id="Path-8-Copy-3" stroke="#AEAEAE" stroke-width="9.72093023" stroke-linecap="round" transform="translate(38.695323, 10.198676) scale(-1, -1) rotate(-159.000000) translate(-38.695323, -10.198676) "></path>
                                    <path d="M1.52618611,47.9787953 C19.0056249,31.8111187 22.1395137,54.486853 22.1395137,54.486853" id="Path-8-Copy-6" stroke="#AEAEAE" stroke-width="9.72093023" stroke-linecap="round" transform="translate(11.832850, 48.325253) rotate(-159.000000) translate(-11.832850, -48.325253) "></path>
                                    <path d="M79.7387139,44.1060879 C73.5397803,45.6142899 60.616978,58.827439 75.7823771,66.1893456" id="Path-6-Copy" stroke="#AEAEAE" stroke-width="9.72093023" stroke-linecap="round" transform="translate(74.212373, 55.147717) scale(-1, 1) rotate(70.000000) translate(-74.212373, -55.147717) "></path>
                                    <path d="M88.6868029,35.5507161 C72.9663278,27.0144308 61.8530812,55.9323994 77.0184803,63.294306" id="Path-6-Copy-4" stroke="#AEAEAE" stroke-width="9.72093023" stroke-linecap="round" transform="translate(79.248336, 48.642052) scale(-1, 1) rotate(70.000000) translate(-79.248336, -48.642052) "></path>
                                </g>
                                <g id="Group-5" transform="translate(27.752049, 28.272990) rotate(-20.000000) translate(-27.752049, -28.272990) translate(6.252049, 6.772990)">
                                    <g id="Group-9" transform="translate(0.000000, 0.000000)">
                                        <g id="Group-6" transform="translate(21.819039, 12.930665) rotate(-19.000000) translate(-21.819039, -12.930665) translate(1.819039, 6.430665)" fill="#8CD3FD">
                                            <path d="M7.56640752,5.99905744 C7.56640753,8.10245933 9.92916866,4.9473565 10.717065,4.9473565 C12.167115,4.9473565 13.8677224,4.82190107 13.8677224,3.36980509 C13.8677224,1.91770911 12.6922246,0.740552736 11.2421745,0.740552736 C9.79212449,0.740552736 7.56640752,2.38513172 7.56640752,3.8372277 C7.56640752,4.50031571 7.56640752,3.89565556 7.56640752,5.99905744 Z" id="Oval-3" transform="translate(10.717065, 3.731327) scale(-1, 1) translate(-10.717065, -3.731327) "></path>
                                            <path d="M27.9162018,5.99905744 C27.9162018,8.10245933 30.2789629,4.9473565 31.0668592,4.9473565 C32.5169092,4.9473565 34.2175166,4.82190107 34.2175166,3.36980509 C34.2175166,1.91770911 33.0420188,0.740552736 31.5919688,0.740552736 C30.1419187,0.740552736 27.9162018,2.38513172 27.9162018,3.8372277 C27.9162018,4.50031571 27.9162018,3.89565556 27.9162018,5.99905744 Z" id="Oval-3-Copy-2"></path>
                                            <path d="M1.56327882,10.7067077 C1.56327883,12.8101096 3.92603996,9.65500675 4.71393625,9.65500675 C6.16398629,9.65500675 7.86459369,9.52955132 7.86459369,8.07745534 C7.86459369,6.62535936 6.68909587,5.44820298 5.23904583,5.44820298 C3.78899579,5.44820298 1.56327882,7.09278197 1.56327882,8.54487795 C1.56327882,9.20796596 1.56327881,8.60330581 1.56327882,10.7067077 Z" id="Oval-3-Copy" transform="translate(4.713936, 8.438978) scale(-1, 1) rotate(30.000000) translate(-4.713936, -8.438978) "></path>
                                            <path d="M32.530357,10.7067077 C32.530357,12.8101096 34.8931181,9.65500675 35.6810144,9.65500675 C37.1310645,9.65500675 38.8316719,9.52955132 38.8316719,8.07745534 C38.8316719,6.62535936 37.6561741,5.44820298 36.206124,5.44820298 C34.756074,5.44820298 32.530357,7.09278197 32.530357,8.54487795 C32.530357,9.20796596 32.530357,8.60330581 32.530357,10.7067077 Z" id="Oval-3-Copy-3" transform="translate(35.681014, 8.438978) rotate(30.000000) translate(-35.681014, -8.438978) "></path>
                                        </g>
                                        <g id="Group-2" transform="translate(15.041152, 15.023256)">
                                            <g id="Oval">
                                                <use fill="#AEAEAE" fill-rule="evenodd" xlink:href="#path-5"></use>
                                                <ellipse stroke="#2D2D2D" stroke-width="2.65116279" cx="13.3294671" cy="13.3701652" rx="14.6550485" ry="14.6957466"></ellipse>
                                            </g>
                                            <path d="M11.5492455,13.6357314 C11.5492455,10.8386583 12.8616598,9.44012171 14.1740741,9.44012171 C15.4864883,9.44012171 16.7989026,10.8386583 16.7989026,13.6357314" id="Path-3" stroke="#1A1A1A" stroke-width="0.88372093"></path>
                                            <path d="M18.8987654,13.6357314 C18.8987654,10.8386583 20.2111797,9.44012171 21.523594,9.44012171 C22.8360082,9.44012171 24.1484225,10.8386583 24.1484225,13.6357314" id="Path-3-Copy" stroke="#1A1A1A" stroke-width="0.88372093"></path>
                                        </g>
                                    </g>
                                </g>
                            </g>
                        </g>
                    </g>
                </g>
                <text id="HOME" font-family="ProximaNova-Bold, Proxima Nova" font-size="26" font-weight="bold" letter-spacing="1.39999998" fill="#EAEAEA">
                    <tspan x="119.558" y="159">HOME</tspan>
                </text>
            </g>
            <g id="dispositivos" transform="translate(848.000000, 321.000000)">
                <rect id="Rectangle" fill="#2D2D2D" x="0" y="0" width="320" height="112" rx="18"></rect>
                <g id="Group-16" transform="translate(68.000000, 21.000000)">
                    <g id="noun_545925_cc">
                        <g id="wearable">
                            <path d="M36.465,24.5007778 L36.465,23.3341111 C36.465,18.1875556 32.26626,14.0007778 27.105,14.0007778 L9.555,14.0007778 C4.39452,14.0007778 0.195,18.1875556 0.195,23.3341111 L0.195,46.6658889 C0.195,51.8124444 4.39452,55.9992222 9.555,55.9992222 L27.105,55.9992222 C32.26626,55.9992222 36.465,51.8124444 36.465,46.6658889 L36.465,45.4992222 C37.1124,45.4992222 37.635,44.9781111 37.635,44.3325556 L37.635,37.3325556 C37.635,36.6885556 37.1124,36.1658889 36.465,36.1658889 L36.465,31.5 C37.75746,31.5 38.805,30.4546667 38.805,29.1666667 L38.805,26.8333333 C38.805,25.5461111 37.75746,24.5007778 36.465,24.5007778 L36.465,24.5007778 Z M34.1111172,46.7769683 C34.1111172,49.7200969 30.8710926,53.6658889 27.842033,53.6658889 L8.81796705,53.6658889 C5.78982224,53.6658889 2.5488828,49.7200969 2.5488828,46.7769683 L2.5488828,23.2230317 C2.5488828,20.280792 5.78982224,16.3341111 8.81796705,16.3341111 L27.842033,16.3341111 C30.8710926,16.3341111 34.1111172,20.280792 34.1111172,23.2230317 L34.1111172,48.3325238 L34.1111172,46.7769683 Z M27.16428,11.6674444 C28.28436,11.6674444 29.35218,11.8766667 30.34668,12.2336667 C30.0612,10.7908889 29.8545,9.37377778 29.67198,8.08655556 C29.26638,5.24455556 28.97388,3.18888889 28.01838,2.19566667 C26.05512,0.158666667 20.10606,0.000777777778 18.33,0.000777777778 C16.55472,0.000777777778 10.60566,0.158666667 8.6424,2.19333333 C7.68456,3.18655556 7.39206,5.243 6.98958,8.08422222 C6.80784,9.37222222 6.59958,10.7893333 6.3141,12.2313333 C7.30938,11.8758889 8.37564,11.6666667 9.49572,11.6666667 L27.16428,11.6666667 L27.16428,11.6674444 Z M9.49572,58.3325556 C8.37486,58.3325556 7.30938,58.1241111 6.3141,57.7671111 C6.59958,59.2098889 6.80784,60.6262222 6.98958,61.9142222 C7.3944,64.7562222 7.6869,66.8118889 8.6424,67.8051111 C10.60566,69.8405556 16.55472,69.9984444 18.33,69.9984444 C20.10606,69.9984444 26.05512,69.8405556 28.01838,67.8051111 C28.97466,66.8118889 29.26716,64.7562222 29.67198,61.9142222 C29.8545,60.6262222 30.0612,59.2098889 30.34668,57.7671111 C29.35218,58.1241111 28.28358,58.3325556 27.16428,58.3325556 L9.49572,58.3325556 L9.49572,58.3325556 Z" id="Shape" fill="#EAEAEA"></path>
                            <path d="M17.3624987,30.9872356 C18.1300313,30.2990423 18.904493,29.9444444 19.9219059,29.9444444 C21.9686004,29.9444444 23.4989137,31.5909877 23.4994222,33.6906371 C23.4994222,35.0839422 22.9119532,36.0758671 21.6232242,37.2274542 C21.4569391,37.3760438 19.5854007,38.916389 19.0055931,39.466541 C18.5084072,39.9382973 18.0694882,40.4138562 17.6682706,40.9268995 L17.3619333,41.318618 L17.055596,40.9268995 C16.6543785,40.4138562 16.2154595,39.9382973 15.7182735,39.466541 C15.1384659,38.916389 13.2669275,37.3760438 13.1006425,37.2274542 C11.8119135,36.0758671 11.2244444,35.0839422 11.2244444,33.6906371 C11.2244444,31.5911196 12.7551847,29.9444444 14.8024098,29.9444444 C15.8444729,29.9444444 16.5862575,30.2852818 17.3624987,30.9872356 Z" id="Path" stroke="#EAEAEA" stroke-width="0.777777778"></path>
                        </g>
                    </g>
                    <text id="DEVICES" font-family="ProximaNova-Bold, Proxima Nova" font-size="26" font-weight="bold" letter-spacing="1.39999998" fill="#EAEAEA">
                        <tspan x="66" y="45">DEVICES</tspan>
                    </text>
                </g>
            </g>
            <g id="noun_326424_cc" transform="translate(140.000000, 366.000000)">
                <g id="Group">
                    <g></g>
                </g>
            </g>
            <g id="lgo-dark-copy" transform="translate(419.000000, 502.000000)">
                <rect id="Rectangle" fill="#2D2D2D" x="0" y="0" width="400" height="112" rx="18"></rect>
                <g id="Group-22" transform="translate(41.000000, 32.000000)">
                    <g id="rolando-copy" fill="#FFCC00">
                        <path d="M23.9794354,43.0924831 C23.2028075,41.8976589 23.3820293,40.2846463 22.7248827,38.9703396 C21.8885142,37.1781034 20.8729239,36.8196561 19.3196681,36.7599149 C17.7664123,36.7001737 16.0339347,37.5365506 15.4962693,37.8949979 C14.9586038,38.3131863 12.8676826,39.7469754 13.2261262,43.331448 C13.5845699,46.9159205 18.3638184,48.1704859 19.4391493,48.1107447 C18.7820026,47.7522975 18.124856,46.9159205 18.2443372,46.1392848 C21.3508487,48.5886744 23.8599542,47.6925563 23.8599542,47.6925563 C22.4261796,46.3185084 22.2469578,43.7496364 22.3066984,41.6586941 C22.8443639,42.3755886 23.2028075,42.7340359 23.9794354,43.0924831 L23.9794354,43.0924831 Z M20.2755178,44.765237 C17.5871905,44.8847194 14.1222353,41.6586941 14.3014572,40.3443875 C14.480679,39.0300809 15.5560099,38.3131863 15.6754911,38.2534451 C15.7949723,38.1937039 17.1690063,37.1781034 18.3040778,37.7157742 C19.5586305,38.5521512 19.7378523,39.5080105 19.797593,40.5236111 C19.8573336,41.7781765 20.3352584,42.6742946 20.3352584,42.6742946 C20.3352584,42.6742946 19.4391493,42.4353298 18.9612245,41.4197292 C18.9014839,42.7937771 19.797593,44.2873073 20.2755178,44.765237 L20.2755178,44.765237 Z M24.337879,15.8504915 L24.337879,15.8504915 C22.8443639,16.6271272 21.1716269,17.1050569 19.3794087,17.1050569 C16.2131566,17.1050569 13.3456075,15.6712679 11.433908,13.4608431 L11.433908,13.4608431 C9.40272743,16.8660921 5.87803165,27.0818389 12.5689796,38.0742215 C14.0027541,36.6404325 15.4365287,35.3858671 17.5871905,35.0274198 C17.5871905,24.7519317 20.1560366,21.2869416 24.337879,15.8504915 L24.337879,15.8504915 Z M19.2001869,14.5361849 C23.1430669,14.5361849 26.3093191,11.3101596 26.3093191,7.30749852 C26.3093191,3.30483748 23.1430669,0.0788121543 19.2001869,0.0788121543 C15.2573069,0.0788121543 12.0910547,3.30483748 12.0910547,7.30749852 C12.0910547,11.3101596 15.2573069,14.5361849 19.2001869,14.5361849 L19.2001869,14.5361849 Z M23.8002136,19.3752229 C24.4573603,21.8843537 27.0859469,23.4376251 28.8781651,22.8999542 C28.6392027,24.1545197 28.2807591,27.679251 29.2963494,29.5312285 C29.7145336,26.0662384 30.5509021,24.3934845 33.4781918,20.5700471 C27.0859469,21.7648713 26.4288003,20.5103059 23.8002136,19.3752229 L23.8002136,19.3752229 Z M3.78711042,12.8036898 C4.20529466,10.1750766 3.54814799,7.60620457 2.11437344,6.35163917 C2.35333586,9.69714691 2.35333586,12.6842074 0.262414637,15.7907503 C3.24944496,14.1179964 5.51958801,14.2374788 8.26765591,15.8504915 C7.61050923,13.1621371 5.81829104,12.4452426 3.78711042,12.8036898 L3.78711042,12.8036898 Z" id="rolando"></path>
                    </g>
                    <path d="M60.8635756,22.5394567 C61.2585099,22.5394567 61.5406059,22.2548512 61.5406059,21.8564036 L61.5406059,17.3596378 C61.5406059,16.9611902 61.2585099,16.6765847 60.8635756,16.6765847 L59.1709998,16.6765847 C57.1963281,16.7904269 55.2216565,17.3027167 52.8520504,19.5226391 L52.5135353,17.6442432 C52.3442777,17.1888745 52.1186009,16.9611902 51.7236666,16.9611902 L48.6770303,16.9611902 C48.282096,16.9611902 48,17.2457956 48,17.6442432 L48,39.0465718 C48,39.4450194 48.282096,39.7296248 48.6770303,39.7296248 L53.6983383,39.7296248 C54.0932726,39.7296248 54.3753686,39.4450194 54.3753686,39.0465718 L54.3753686,27.6623545 C54.3753686,25.0439845 55.1652373,22.767141 59.1709998,22.5394567 L60.8635756,22.5394567 Z M73.6546121,16.6765847 C67.2228243,16.6765847 61.8630012,21.8564036 61.8630012,28.2315653 C61.8630012,34.606727 67.2228243,40.0142303 73.6546121,40.0142303 C79.804304,40.0142303 84.9948695,34.606727 84.9948695,28.2315653 C84.9948695,21.8564036 79.804304,16.6765847 73.6546121,16.6765847 L73.6546121,16.6765847 Z M73.5981929,34.3221216 C70.664395,34.3221216 68.2383698,31.7606727 68.2383698,28.2884864 C68.2383698,24.759379 70.664395,22.6532988 73.5981929,22.6532988 C76.3063141,22.6532988 78.6195009,24.8163001 78.6195009,28.2884864 C78.6195009,31.7606727 76.3063141,34.3221216 73.5981929,34.3221216 L73.5981929,34.3221216 Z M98.4629364,34.3221216 C95.5291385,34.3221216 93.1031132,31.7606727 93.1031132,28.2884864 C93.1031132,24.759379 95.5291385,22.6532988 98.4629364,22.6532988 C99.7041586,22.6532988 101.848088,22.7102199 102.976472,23.6209573 C103.314987,23.8486417 103.597083,23.9624838 103.82276,23.9624838 C103.992017,23.9624838 104.104855,23.9055627 104.217694,23.7917206 L106.700138,20.4902975 C106.812977,20.3764554 106.925815,20.2056921 106.925815,19.9780078 C106.925815,19.8072445 106.869396,19.5226391 106.756557,19.3518758 C104.725467,17.3596378 101.509573,16.6765847 98.5193556,16.6765847 C92.0875678,16.6765847 86.7277446,21.8564036 86.7277446,28.2315653 C86.7277446,34.606727 92.0875678,40.0142303 98.5193556,40.0142303 C101.509573,40.0142303 104.556209,39.5019405 106.700138,37.1112549 C106.812977,36.9404916 106.869396,36.6558862 106.869396,36.4851229 C106.869396,36.2574386 106.756557,36.0866753 106.643719,35.9728331 L104.217694,32.8990944 C104.104855,32.7852523 103.992017,32.7283312 103.82276,32.7283312 C103.597083,32.7283312 103.314987,32.8421734 102.976472,33.0698577 C101.509573,34.3221216 99.7041586,34.3221216 98.4629364,34.3221216 L98.4629364,34.3221216 Z M130.336889,17.6442432 C130.336889,17.2457956 130.054794,16.9611902 129.659859,16.9611902 L123.623006,16.9611902 C123.171652,16.9611902 122.945975,17.3027167 122.720299,17.6442432 L115.949996,26.7516171 L115.949996,8.08150065 C115.949996,7.68305304 115.6679,7.39844761 115.272965,7.39844761 L110.251657,7.39844761 C109.856723,7.39844761 109.574627,7.68305304 109.574627,8.08150065 L109.574627,39.0465718 C109.574627,39.4450194 109.856723,39.7296248 110.251657,39.7296248 L115.272965,39.7296248 C115.6679,39.7296248 115.949996,39.4450194 115.949996,39.0465718 L115.949996,29.4838292 L122.720299,39.0465718 C122.889556,39.3880983 123.34091,39.7296248 123.792263,39.7296248 L129.659859,39.7296248 C130.054794,39.7296248 130.336889,39.4450194 130.336889,39.0465718 L122.551041,27.8900388 L130.336889,17.6442432 Z M152.224646,29.5976714 C152.224646,28.6300129 152.281065,28.8007762 152.281065,28.003881 C152.281065,20.7179819 147.541853,16.6765847 141.335742,16.6765847 C133.719151,16.6765847 130.446838,22.1979301 130.446838,28.5161708 C130.446838,36.542044 135.806661,40.0142303 142.238449,40.0142303 C145.228666,40.0142303 148.500979,39.5019405 150.475651,36.9974127 C150.588489,36.8266494 150.644908,36.542044 150.644908,36.3712807 C150.644908,36.1435964 150.588489,35.915912 150.475651,35.8020699 L148.783075,32.9560155 C148.670237,32.8421734 148.557398,32.7852523 148.388141,32.7852523 C148.162464,32.7852523 147.880368,32.8990944 147.541853,33.1267788 C146.35705,34.2082794 143.818186,34.6636481 142.18203,34.6636481 C140.545873,34.6636481 136.878626,34.0944373 136.878626,30.2807245 L151.547615,30.2807245 C151.94255,30.2807245 152.224646,29.996119 152.224646,29.5976714 L152.224646,29.5976714 Z M141.44858,22.6532988 C143.141156,22.6532988 146.074954,23.5071151 146.074954,26.2393273 L136.878626,26.2393273 C136.878626,23.5640362 139.699585,22.6532988 141.44858,22.6532988 L141.44858,22.6532988 Z M168.996543,22.5394567 C169.391477,22.5394567 169.673573,22.2548512 169.673573,21.8564036 L169.673573,17.3596378 C169.673573,16.9611902 169.391477,16.6765847 168.996543,16.6765847 L164.144492,16.6765847 L164.144492,8.08150065 C164.144492,7.68305304 163.862396,7.39844761 163.467462,7.39844761 L158.446154,7.39844761 C158.05122,7.39844761 157.769124,7.68305304 157.769124,8.08150065 L157.769124,16.6765847 L153.932619,16.6765847 C153.537684,16.6765847 153.255588,16.9611902 153.255588,17.3596378 L153.255588,21.8564036 C153.255588,22.2548512 153.537684,22.5394567 153.932619,22.5394567 L157.769124,22.5394567 L157.769124,30.3376455 C157.769124,37.9081501 160.590083,40.0142303 165.442134,40.0142303 C167.416805,40.0142303 168.037417,40.0142303 169.673573,39.4450194 C169.729992,39.4450194 170.012088,39.160414 170.012088,38.8758085 C170.012088,38.7619664 170.012088,38.5912031 169.955669,38.4773609 L169.052962,34.606727 C168.996543,34.3790427 168.658028,34.1513583 168.432351,34.1513583 C168.263093,34.1513583 168.150255,34.1513583 168.037417,34.2082794 C167.303967,34.3221216 166.852614,34.3221216 166.288422,34.3221216 C164.370169,34.3221216 164.144492,33.4113842 164.144492,29.0853816 L164.144492,22.5394567 L168.996543,22.5394567 Z M173.970214,40.0711514 C173.970214,44.3971539 173.57528,45.3078913 172.1648,45.3078913 C171.092835,45.3078913 170.133709,45.3078913 169.287421,44.9663648 C169.174583,44.9094437 169.061744,44.9094437 168.892487,44.9094437 C168.66681,44.9094437 168.441133,44.9663648 168.328295,45.1371281 L167.143492,48.6093144 C167.087073,48.7231565 167.087073,48.8939198 167.087073,49.007762 C167.087073,49.2923674 167.369169,49.5200517 167.425588,49.5769728 C169.569517,51 170.697901,51 172.672572,51 C177.524623,51 180.345582,49.1216041 180.345582,40.6972833 L180.345582,17.6442432 C180.345582,17.2457956 180.063487,16.9611902 179.668552,16.9611902 L174.647244,16.9611902 C174.25231,16.9611902 173.970214,17.2457956 173.970214,17.6442432 L173.970214,40.0711514 Z M173.462441,10.8137128 C173.462441,12.8628719 175.098598,14.5135834 177.129689,14.5135834 C179.217199,14.5135834 180.909774,12.8628719 180.909774,10.8137128 C180.909774,8.7076326 179.217199,7 177.129689,7 C175.098598,7 173.462441,8.7076326 173.462441,10.8137128 L173.462441,10.8137128 Z M194.873942,16.6765847 C188.442154,16.6765847 183.082331,21.8564036 183.082331,28.2315653 C183.082331,34.606727 188.442154,40.0142303 194.873942,40.0142303 C201.023634,40.0142303 206.214199,34.606727 206.214199,28.2315653 C206.214199,21.8564036 201.023634,16.6765847 194.873942,16.6765847 L194.873942,16.6765847 Z M194.817523,34.3221216 C191.883725,34.3221216 189.457699,31.7606727 189.457699,28.2884864 C189.457699,24.759379 191.883725,22.6532988 194.817523,22.6532988 C197.525644,22.6532988 199.838831,24.8163001 199.838831,28.2884864 C199.838831,31.7606727 197.525644,34.3221216 194.817523,34.3221216 L194.817523,34.3221216 Z M225.443639,39.0465718 C225.612896,39.5019405 225.838573,39.7296248 226.233507,39.7296248 L229.392982,39.7296248 C229.787916,39.7296248 230.070012,39.4450194 230.070012,39.0465718 L230.070012,17.6442432 C230.070012,17.2457956 229.787916,16.9611902 229.392982,16.9611902 L224.371674,16.9611902 C223.97674,16.9611902 223.694644,17.2457956 223.694644,17.6442432 L223.694644,29.1992238 C223.694644,31.9883571 222.509841,34.3221216 219.688881,34.3221216 C215.683118,34.3221216 215.344603,31.9883571 215.344603,29.1992238 L215.344603,17.6442432 C215.344603,17.2457956 215.062507,16.9611902 214.667573,16.9611902 L209.646265,16.9611902 C209.251331,16.9611902 208.969235,17.2457956 208.969235,17.6442432 L208.969235,29.8253558 C208.969235,35.232859 211.790194,40.0142303 218.165563,40.0142303 C220.365911,40.0142303 222.56626,39.6727038 225.217962,37.1681759 L225.443639,39.0465718 Z M246.09173,22.5394567 C246.486665,22.5394567 246.768761,22.2548512 246.768761,21.8564036 L246.768761,17.3596378 C246.768761,16.9611902 246.486665,16.6765847 246.09173,16.6765847 L244.399155,16.6765847 C242.424483,16.7904269 240.449811,17.3027167 238.080205,19.5226391 L237.74169,17.6442432 C237.572433,17.1888745 237.346756,16.9611902 236.951821,16.9611902 L233.905185,16.9611902 C233.510251,16.9611902 233.228155,17.2457956 233.228155,17.6442432 L233.228155,39.0465718 C233.228155,39.4450194 233.510251,39.7296248 233.905185,39.7296248 L238.926493,39.7296248 C239.321427,39.7296248 239.603523,39.4450194 239.603523,39.0465718 L239.603523,27.6623545 C239.603523,25.0439845 240.393392,22.767141 244.399155,22.5394567 L246.09173,22.5394567 Z M253.829942,17.6442432 C253.660684,17.1888745 253.435008,16.9611902 253.040073,16.9611902 L249.937018,16.9611902 C249.542083,16.9611902 249.259987,17.2457956 249.259987,17.6442432 L249.259987,39.0465718 C249.259987,39.4450194 249.542083,39.7296248 249.937018,39.7296248 L254.958326,39.7296248 C255.35326,39.7296248 255.635356,39.4450194 255.635356,39.0465718 L255.635356,27.6623545 C255.635356,24.8732212 256.820159,22.5394567 259.641119,22.5394567 C263.646881,22.5394567 263.985396,24.8732212 263.985396,27.6623545 L263.985396,39.0465718 C263.985396,39.4450194 264.267492,39.7296248 264.662427,39.7296248 L269.683735,39.7296248 C270.078669,39.7296248 270.360765,39.4450194 270.360765,39.0465718 L270.360765,26.8654592 C270.360765,21.457956 267.539805,16.6765847 261.164437,16.6765847 C258.964088,16.6765847 256.76374,17.0181113 254.112038,19.5226391 L253.829942,17.6442432 Z M294.893608,29.5976714 C294.893608,28.6300129 294.950027,28.8007762 294.950027,28.003881 C294.950027,20.7179819 290.210815,16.6765847 284.004704,16.6765847 C276.388113,16.6765847 273.1158,22.1979301 273.1158,28.5161708 C273.1158,36.542044 278.475624,40.0142303 284.907411,40.0142303 C287.897628,40.0142303 291.169942,39.5019405 293.144613,36.9974127 C293.257452,36.8266494 293.313871,36.542044 293.313871,36.3712807 C293.313871,36.1435964 293.257452,35.915912 293.144613,35.8020699 L291.452037,32.9560155 C291.339199,32.8421734 291.226361,32.7852523 291.057103,32.7852523 C290.831426,32.7852523 290.54933,32.8990944 290.210815,33.1267788 C289.026012,34.2082794 286.487149,34.6636481 284.850992,34.6636481 C283.214836,34.6636481 279.547588,34.0944373 279.547588,30.2807245 L294.216578,30.2807245 C294.611512,30.2807245 294.893608,29.996119 294.893608,29.5976714 L294.893608,29.5976714 Z M284.117543,22.6532988 C285.810118,22.6532988 288.743916,23.5071151 288.743916,26.2393273 L279.547588,26.2393273 C279.547588,23.5640362 282.368548,22.6532988 284.117543,22.6532988 L284.117543,22.6532988 Z M296.883677,16.9611902 C296.488743,16.9611902 296.206647,17.2457956 296.206647,17.6442432 L304.105334,34.1513583 L297.052935,48.7800776 C297.052935,49.1785252 297.335031,49.4631307 297.729965,49.4631307 L303.202626,49.4631307 C303.65398,49.4631307 303.936076,49.1216041 304.105334,48.7800776 L319,17.6442432 C319,17.2457956 318.717904,16.9611902 318.32297,16.9611902 L312.963147,16.9611902 C312.511793,16.9611902 312.229697,17.3027167 312.060439,17.6442432 L307.603323,27.1500647 L303.146207,17.6442432 C302.97695,17.3027167 302.694854,16.9611902 302.2435,16.9611902 L296.883677,16.9611902 Z" id="rocketjourney-copy" fill="#EAEAEA"></path>
                </g>
            </g>
            <g id="noun_565365_cc" transform="translate(91.000000, 315.000000)">
                <g id="Group-19">
                    <g id="Group"></g>
                </g>
            </g>
            <g id="Group-12" transform="translate(227.000000, 273.000000)">
                <path d="M622,179 L622,258.018009 C622,274.591137 635.432621,288.026311 651.999723,288.026312 L783,288.026314" id="Path-10-Copy" stroke="#FFCC00" stroke-width="4" transform="translate(702.500000, 233.513157) scale(-1, 1) translate(-702.500000, -233.513157) "></path>
                <path d="M0,179 L0,258.018009 C0,274.591137 13.4326213,288.026311 29.999723,288.026312 L161,288.026314" id="Path-10-Copy-2" stroke="#FFCC00" stroke-width="4"></path>
                <path id="Path-10-Copy-2-decoration-1" d="M161,288.026314 L150.2,285.026314 L150.2,291.026314 L161,288.026314 Z" stroke="#FFCC00" stroke-width="4"></path>
                <path d="M2,0 L2,24" id="Path-11" stroke="#FFCC00" stroke-width="4"></path>
                <path id="Path-11-decoration-1" d="M2,24 L5,13.2 L-1,13.2 L2,24 Z" stroke="#FFCC00" stroke-width="4"></path>
                <path d="M392,0 L392,24" id="Path-11-Copy" stroke="#FFCC00" stroke-width="4"></path>
                <path id="Path-11-Copy-decoration-1" d="M392,24 L395,13.2 L389,13.2 L392,24 Z" stroke="#FFCC00" stroke-width="4"></path>
                <path d="M392,179 L392,203" id="Path-11-Copy-3" stroke="#FFCC00" stroke-width="4"></path>
                <path id="Path-11-Copy-3-decoration-1" d="M392,203 L395,192.2 L389,192.2 L392,203 Z" stroke="#FFCC00" stroke-width="4"></path>
                <path d="M781,0 L781,24" id="Path-11-Copy-2" stroke="#FFCC00" stroke-width="4"></path>
                <path id="Path-11-Copy-2-decoration-1" d="M781,24 L784,13.2 L778,13.2 L781,24 Z" stroke="#FFCC00" stroke-width="4"></path>
                <polygon id="Path-2" fill="#FFCC00" points="614 288 634.5 282 634.5 293.5"></polygon>
            </g>
        </g>
    </g>
</svg>