<?xml version="1.0" encoding="UTF-8"?>
<svg width="370px" height="714px" viewBox="0 0 370 714" version="1.1" xmlns="http://www.w3.org/2000/svg" xmlns:xlink="http://www.w3.org/1999/xlink">
    <!-- Generator: Sketch 43.2 (39069) - http://www.bohemiancoding.com/sketch -->
    <title>teams-1</title>
    <desc>Created with Sketch.</desc>
    <defs>
        <ellipse id="path-1" cx="40.5409666" cy="39.5622837" rx="30.4694686" ry="30.4995645"></ellipse>
        <ellipse id="path-3" cx="40.8448532" cy="40.39918" rx="30.4694686" ry="30.4995645"></ellipse>
        <ellipse id="path-5" cx="40.5409666" cy="40.4266261" rx="30.4694686" ry="30.4995645"></ellipse>
        <ellipse id="path-7" cx="40.5409666" cy="40.4266261" rx="30.4694686" ry="30.4995645"></ellipse>
        <ellipse id="path-9" cx="40.5409666" cy="40.4266261" rx="30.4694686" ry="30.4995645"></ellipse>
        <ellipse id="path-11" cx="40.5409666" cy="40.4266261" rx="30.4694686" ry="30.4995645"></ellipse>
        <ellipse id="path-13" cx="40.5409666" cy="40.4266261" rx="30.4694686" ry="30.4995645"></ellipse>
        <ellipse id="path-15" cx="29.9733333" cy="30" rx="29.9733333" ry="30"></ellipse>
        <ellipse id="path-17" cx="29.9733333" cy="30" rx="29.9733333" ry="30"></ellipse>
        <path d="M38.9653333,8.94 L55.6904533,13.56 C57.6087467,14.22 59.1074133,15.66 59.9466667,17.52 L59.9466667,23.4 L0,23.4 L0,17.52 C0.779306667,15.66 2.33792,14.22 4.25621333,13.56 L20.9813333,8.94 L20.9813333,0 L38.9653333,0 L38.9653333,8.94 Z" id="path-19"></path>
        <path d="M38.9653333,8.94 L55.6904533,13.56 C57.6087467,14.22 59.1074133,15.66 59.9466667,17.52 L59.9466667,23.4 L0,23.4 L0,17.52 C0.779306667,15.66 2.33792,14.22 4.25621333,13.56 L20.9813333,8.94 L20.9813333,0 L38.9653333,0 L38.9653333,8.94 Z" id="path-21"></path>
        <path d="M38.9653333,8.94 L55.6904533,13.56 C57.6087467,14.22 59.1074133,15.66 59.9466667,17.52 L59.9466667,23.4 L0,23.4 L0,17.52 C0.779306667,15.66 2.33792,14.22 4.25621333,13.56 L20.9813333,8.94 L20.9813333,0 L38.9653333,0 L38.9653333,8.94 Z" id="path-23"></path>
        <rect id="path-25" x="0" y="0" width="18.5834667" height="3"></rect>
        <rect id="path-27" x="0" y="0" width="18.5834667" height="3"></rect>
    </defs>
    <g id="graphics" stroke="none" stroke-width="1" fill="none" fill-rule="evenodd">
        <g id="teams-1">
            <g id="Teammates" transform="translate(45.000000, 172.000000)">
                <g id="9" transform="translate(99.430769, 205.713512)">
                    <g id="Profile-Area" transform="translate(0.254975, 0.408362)">
                        <mask id="mask-2" fill="white">
                            <use xlink:href="#path-1"></use>
                        </mask>
                        <use id="Mask" fill="#F5EEE5" xlink:href="#path-1"></use>
                        <path d="M23.2922532,76.8988417 C9.53534311,70.4831374 0,56.5191099 0,40.325784 C0,32.830288 2.04298398,25.8124278 5.60196943,19.7997064 L5.60196943,19.7997064 L9.88803355,22.3537217 C6.91138468,27.5454492 5.20939551,33.5628418 5.20939551,39.9781479 C5.20939551,54.1631852 13.5305386,66.4027957 25.5532483,72.0728401 L23.2922532,76.8988417 L23.2922532,76.8988417 Z M57.6577359,76.7201477 C71.2110034,70.2264259 80.5719839,56.3703718 80.5719839,40.325784 C80.5719839,32.8381337 78.5332745,25.8271198 74.9811853,19.8185907 L74.9811853,19.8185907 L71.2112259,22.0650652 C74.2913232,27.3218813 76.0571744,33.4435926 76.0571744,39.9781479 C76.0571744,54.2447611 67.640049,66.5435075 55.5055331,72.17001 L57.6577359,76.7201477 L57.6577359,76.7201477 Z M9.23507184,14.6315887 C16.6244075,5.69417159 27.7908833,0 40.2859919,0 C52.7909445,0 63.9651701,5.70314717 71.3543695,14.6527182 L67.9906475,17.4504082 C61.493598,9.5540153 51.6508253,4.51926889 40.633285,4.51926889 C29.4660786,4.51926889 19.5057735,9.69173181 13.0130056,17.7737889 L9.23507184,14.6315887 L9.23507184,14.6315887 L9.23507184,14.6315887 Z" id="Halo-Copy" stroke="#FF3E3E" stroke-width="0.5"></path>
                        <path d="M40.6369231,84.2509639 L35.6990379,79.3146373 L35.0393586,78.6551662 L33.72,79.9741084 L34.3796793,80.6335794 L39.3175645,85.5699061 L34.3796793,90.5062327 L33.72,91.1657038 L35.0393586,92.484646 L35.6990379,91.8251749 L40.6369231,86.8888482 L45.5748083,91.8251749 L46.2344876,92.484646 L47.5538462,91.1657038 L46.8941669,90.5062327 L41.9562817,85.5699061 L46.8941669,80.6335794 L47.5538462,79.9741084 L46.2344876,78.6551662 L45.5748083,79.3146373 L40.6369231,84.2509639 Z" id="Line-Copy-3" stroke="#FF3E3E" stroke-width="1.0125" fill="#FF3E3E" stroke-linecap="square"></path>
                    </g>
                </g>
                <g id="7" transform="translate(0.000000, 204.849169)">
                    <g id="Profile-Area" transform="translate(0.254975, 0.408362)">
                        <mask id="mask-4" fill="white">
                            <use xlink:href="#path-3"></use>
                        </mask>
                        <use id="Mask" fill="#F5EEE5" xlink:href="#path-3"></use>
                        <path d="M23.5472279,77.3446881 C9.79031774,70.9289838 0.254974632,56.9649564 0.254974632,40.7716304 C0.254974632,33.2761344 2.29795861,26.2582742 5.85694406,20.2455528 L5.85694406,20.2455528 L10.1430082,22.7995681 C7.16635932,27.9912956 5.46437014,34.0086882 5.46437014,40.4239943 C5.46437014,54.6090316 13.7855132,66.8486421 25.8082229,72.5186865 L23.5472279,77.3446881 L23.5472279,77.3446881 Z M57.9127105,77.1659941 C71.465978,70.6722724 80.8269585,56.8162182 80.8269585,40.7716304 C80.8269585,33.2839801 78.7882492,26.2729663 75.2361599,20.2644371 L75.2361599,20.2644371 L71.4662006,22.5109116 C74.5462979,27.7677277 76.312149,33.889439 76.312149,40.4239943 C76.312149,54.6906075 67.8950236,66.9893539 55.7605078,72.6158564 L57.9127105,77.1659941 L57.9127105,77.1659941 Z M9.49004647,15.0774351 C16.8793821,6.14001802 28.045858,0.445846427 40.5409666,0.445846427 C53.0459191,0.445846427 64.2201447,6.14899359 71.6093442,15.0985646 L68.2456221,17.8962546 C61.7485727,9.99986172 51.9058,4.96511532 40.8882596,4.96511532 C29.7210532,4.96511532 19.7607481,10.1375782 13.2679803,18.2196353 L9.49004647,15.0774351 L9.49004647,15.0774351 L9.49004647,15.0774351 Z" id="Halo-Copy" stroke="#FFFFFF" stroke-width="0.508108749" opacity="0.2"></path>
                    </g>
                    <path d="M46.014759,86.4342486 C46.014759,87.620185 45.8872006,88.6467059 45.63208,89.5138423 C45.3769594,90.3809786 45.0293628,91.0982681 44.5892797,91.6657323 C44.1491967,92.2331965 43.6341796,92.6556003 43.0442132,92.9329564 C42.4542468,93.2103125 41.8244272,93.3489884 41.1547356,93.3489884 C40.485044,93.3489884 39.8568189,93.2103125 39.2700415,92.9329564 C38.6832641,92.6556003 38.1698415,92.2331965 37.7297585,91.6657323 C37.2896754,91.0982681 36.9436733,90.3809786 36.6917417,89.5138423 C36.4398101,88.6467059 36.3138462,87.620185 36.3138462,86.4342486 C36.3138462,85.2483121 36.4398101,84.2217912 36.6917417,83.3546549 C36.9436733,82.4875185 37.2896754,81.7702291 37.7297585,81.2027649 C38.1698415,80.6353007 38.6832641,80.2128968 39.2700415,79.9355407 C39.8568189,79.6581846 40.485044,79.5195087 41.1547356,79.5195087 C41.8244272,79.5195087 42.4542468,79.6581846 43.0442132,79.9355407 C43.6341796,80.2128968 44.1491967,80.6353007 44.5892797,81.2027649 C45.0293628,81.7702291 45.3769594,82.4875185 45.63208,83.3546549 C45.8872006,84.2217912 46.014759,85.2483121 46.014759,86.4342486 L46.014759,86.4342486 Z M45.0580615,86.4342486 C45.0580615,85.3375762 44.9528258,84.4003179 44.7423513,83.6224456 C44.5318768,82.8445733 44.2496539,82.2085767 43.895674,81.7144365 C43.5416942,81.2202963 43.1271294,80.8584636 42.6519672,80.6289275 C42.1768051,80.3993914 41.6777329,80.2846251 41.1547356,80.2846251 C40.6317384,80.2846251 40.1342606,80.3993914 39.6622875,80.6289275 C39.1903143,80.8584636 38.7757496,81.2202963 38.4185807,81.7144365 C38.0614118,82.2085767 37.7775944,82.8445733 37.5671199,83.6224456 C37.3566454,84.4003179 37.2514097,85.3375762 37.2514097,86.4342486 C37.2514097,87.5372969 37.3566454,88.4761492 37.5671199,89.2508335 C37.7775944,90.0255177 38.0614118,90.6599205 38.4185807,91.1540606 C38.7757496,91.6482008 39.1903143,92.0084395 39.6622875,92.2347876 C40.1342606,92.4611357 40.6317384,92.574308 41.1547356,92.574308 C41.6777329,92.574308 42.1768051,92.4611357 42.6519672,92.2347876 C43.1271294,92.0084395 43.5416942,91.6482008 43.895674,91.1540606 C44.2496539,90.6599205 44.5318768,90.0255177 44.7423513,89.2508335 C44.9528258,88.4761492 45.0580615,87.5372969 45.0580615,86.4342486 L45.0580615,86.4342486 Z" id="15" fill="#FFFFFF"></path>
                </g>
                <g id="6" transform="translate(198.032954, 102.341435)">
                    <g id="Profile-Area" transform="translate(0.254975, 0.408362)">
                        <mask id="mask-6" fill="white">
                            <use xlink:href="#path-5"></use>
                        </mask>
                        <use id="Mask" fill="#F5EEE5" xlink:href="#path-5"></use>
                        <path d="M23.5472279,77.3446881 C9.79031774,70.9289838 0.254974632,56.9649564 0.254974632,40.7716304 C0.254974632,33.2761344 2.29795861,26.2582742 5.85694406,20.2455528 L5.85694406,20.2455528 L10.1430082,22.7995681 C7.16635932,27.9912956 5.46437014,34.0086882 5.46437014,40.4239943 C5.46437014,54.6090316 13.7855132,66.8486421 25.8082229,72.5186865 L23.5472279,77.3446881 L23.5472279,77.3446881 Z M57.9127105,77.1659941 C71.465978,70.6722724 80.8269585,56.8162182 80.8269585,40.7716304 C80.8269585,33.2839801 78.7882492,26.2729663 75.2361599,20.2644371 L75.2361599,20.2644371 L71.4662006,22.5109116 C74.5462979,27.7677277 76.312149,33.889439 76.312149,40.4239943 C76.312149,54.6906075 67.8950236,66.9893539 55.7605078,72.6158564 L57.9127105,77.1659941 L57.9127105,77.1659941 Z M9.49004647,15.0774351 C16.8793821,6.14001802 28.045858,0.445846427 40.5409666,0.445846427 C53.0459191,0.445846427 64.2201447,6.14899359 71.6093442,15.0985646 L68.2456221,17.8962546 C61.7485727,9.99986172 51.9058,4.96511532 40.8882596,4.96511532 C29.7210532,4.96511532 19.7607481,10.1375782 13.2679803,18.2196353 L9.49004647,15.0774351 L9.49004647,15.0774351 L9.49004647,15.0774351 Z" id="Halo-Copy" stroke="" stroke-width="0.508108749" fill=""></path>
                    </g>
                    <text id="15" font-family="Lato-Light, Lato" font-size="19.0384615" font-weight="300" fill="#FFFFFF">
                        <tspan x="29.7536335" y="93.589939">11</tspan>
                    </text>
                </g>
                <g id="5" transform="translate(99.430769, 101.992413)">
                    <g id="Profile-Area" transform="translate(0.254975, 0.408362)">
                        <mask id="mask-8" fill="white">
                            <use xlink:href="#path-7"></use>
                        </mask>
                        <use id="Mask" fill="#F5EEE5" xlink:href="#path-7"></use>
                        <path d="M23.5472279,77.3446881 C9.79031774,70.9289838 0.254974632,56.9649564 0.254974632,40.7716304 C0.254974632,33.2761344 2.29795861,26.2582742 5.85694406,20.2455528 L5.85694406,20.2455528 L10.1430082,22.7995681 C7.16635932,27.9912956 5.46437014,34.0086882 5.46437014,40.4239943 C5.46437014,54.6090316 13.7855132,66.8486421 25.8082229,72.5186865 L23.5472279,77.3446881 L23.5472279,77.3446881 Z M57.9127105,77.1659941 C71.465978,70.6722724 80.8269585,56.8162182 80.8269585,40.7716304 C80.8269585,33.2839801 78.7882492,26.2729663 75.2361599,20.2644371 L75.2361599,20.2644371 L71.4662006,22.5109116 C74.5462979,27.7677277 76.312149,33.889439 76.312149,40.4239943 C76.312149,54.6906075 67.8950236,66.9893539 55.7605078,72.6158564 L57.9127105,77.1659941 L57.9127105,77.1659941 Z M9.49004647,15.0774351 C16.8793821,6.14001802 28.045858,0.445846427 40.5409666,0.445846427 C53.0459191,0.445846427 64.2201447,6.14899359 71.6093442,15.0985646 L68.2456221,17.8962546 C61.7485727,9.99986172 51.9058,4.96511532 40.8882596,4.96511532 C29.7210532,4.96511532 19.7607481,10.1375782 13.2679803,18.2196353 L9.49004647,15.0774351 L9.49004647,15.0774351 L9.49004647,15.0774351 Z" id="Halo-Copy" stroke="" stroke-width="0.508108749" fill=""></path>
                    </g>
                    <text id="15" font-family="Lato-Light, Lato" font-size="19.0384615" font-weight="300" fill="#FFFFFF">
                        <tspan x="35.2747873" y="93.589939">4</tspan>
                    </text>
                </g>
                <g id="4" transform="translate(0.013908, 102.341435)">
                    <g id="Profile-Area" transform="translate(0.254975, 0.408362)">
                        <mask id="mask-10" fill="white">
                            <use xlink:href="#path-9"></use>
                        </mask>
                        <use id="Mask" fill="#F5EEE5" xlink:href="#path-9"></use>
                        <path d="M23.5472279,77.3446881 C9.79031774,70.9289838 0.254974632,56.9649564 0.254974632,40.7716304 C0.254974632,33.2761344 2.29795861,26.2582742 5.85694406,20.2455528 L5.85694406,20.2455528 L10.1430082,22.7995681 C7.16635932,27.9912956 5.46437014,34.0086882 5.46437014,40.4239943 C5.46437014,54.6090316 13.7855132,66.8486421 25.8082229,72.5186865 L23.5472279,77.3446881 L23.5472279,77.3446881 Z M57.9127105,77.1659941 C71.465978,70.6722724 80.8269585,56.8162182 80.8269585,40.7716304 C80.8269585,33.2839801 78.7882492,26.2729663 75.2361599,20.2644371 L75.2361599,20.2644371 L71.4662006,22.5109116 C74.5462979,27.7677277 76.312149,33.889439 76.312149,40.4239943 C76.312149,54.6906075 67.8950236,66.9893539 55.7605078,72.6158564 L57.9127105,77.1659941 L57.9127105,77.1659941 Z M9.49004647,15.0774351 C16.8793821,6.14001802 28.045858,0.445846427 40.5409666,0.445846427 C53.0459191,0.445846427 64.2201447,6.14899359 71.6093442,15.0985646 L68.2456221,17.8962546 C61.7485727,9.99986172 51.9058,4.96511532 40.8882596,4.96511532 C29.7210532,4.96511532 19.7607481,10.1375782 13.2679803,18.2196353 L9.49004647,15.0774351 L9.49004647,15.0774351 L9.49004647,15.0774351 Z" id="Halo-Copy" stroke="" stroke-width="0.5" fill=""></path>
                    </g>
                    <text id="15" font-family="Lato-Light, Lato" font-size="19.0384615" font-weight="300" fill="#FFFFFF">
                        <tspan x="35.2747873" y="93.589939">6</tspan>
                    </text>
                </g>
                <g id="3" transform="translate(198.032954, 0.038154)">
                    <g id="Profile-Area" transform="translate(0.254975, 0.408362)">
                        <mask id="mask-12" fill="white">
                            <use xlink:href="#path-11"></use>
                        </mask>
                        <use id="Mask" fill="#F5EEE5" xlink:href="#path-11"></use>
                        <path d="M23.5472279,77.3446881 C9.79031774,70.9289838 0.254974632,56.9649564 0.254974632,40.7716304 C0.254974632,33.2761344 2.29795861,26.2582742 5.85694406,20.2455528 L5.85694406,20.2455528 L10.1430082,22.7995681 C7.16635932,27.9912956 5.46437014,34.0086882 5.46437014,40.4239943 C5.46437014,54.6090316 13.7855132,66.8486421 25.8082229,72.5186865 L23.5472279,77.3446881 L23.5472279,77.3446881 Z M57.9127105,77.1659941 C71.465978,70.6722724 80.8269585,56.8162182 80.8269585,40.7716304 C80.8269585,33.2839801 78.7882492,26.2729663 75.2361599,20.2644371 L75.2361599,20.2644371 L71.4662006,22.5109116 C74.5462979,27.7677277 76.312149,33.889439 76.312149,40.4239943 C76.312149,54.6906075 67.8950236,66.9893539 55.7605078,72.6158564 L57.9127105,77.1659941 L57.9127105,77.1659941 Z M9.49004647,15.0774351 C16.8793821,6.14001802 28.045858,0.445846427 40.5409666,0.445846427 C53.0459191,0.445846427 64.2201447,6.14899359 71.6093442,15.0985646 L68.2456221,17.8962546 C61.7485727,9.99986172 51.9058,4.96511532 40.8882596,4.96511532 C29.7210532,4.96511532 19.7607481,10.1375782 13.2679803,18.2196353 L9.49004647,15.0774351 L9.49004647,15.0774351 L9.49004647,15.0774351 Z" id="Halo-Copy" stroke="" stroke-width="0.508108749" fill=""></path>
                    </g>
                    <text id="15" font-family="Lato-Light, Lato" font-size="19.0384615" font-weight="300" fill="#FFFFFF">
                        <tspan x="35.2747873" y="92.5530814">2</tspan>
                    </text>
                </g>
                <g id="2" transform="translate(99.023431, 0.038154)">
                    <g id="Profile-Area" transform="translate(0.254975, 0.408362)">
                        <mask id="mask-14" fill="white">
                            <use xlink:href="#path-13"></use>
                        </mask>
                        <use id="Mask" fill="#F5EEE5" xlink:href="#path-13"></use>
                        <path d="M23.5472279,77.3446881 C9.79031774,70.9289838 0.254974632,56.9649564 0.254974632,40.7716304 C0.254974632,33.2761344 2.29795861,26.2582742 5.85694406,20.2455528 L5.85694406,20.2455528 L10.1430082,22.7995681 C7.16635932,27.9912956 5.46437014,34.0086882 5.46437014,40.4239943 C5.46437014,54.6090316 13.7855132,66.8486421 25.8082229,72.5186865 L23.5472279,77.3446881 L23.5472279,77.3446881 Z M57.9127105,77.1659941 C71.465978,70.6722724 80.8269585,56.8162182 80.8269585,40.7716304 C80.8269585,33.2839801 78.7882492,26.2729663 75.2361599,20.2644371 L75.2361599,20.2644371 L71.4662006,22.5109116 C74.5462979,27.7677277 76.312149,33.889439 76.312149,40.4239943 C76.312149,54.6906075 67.8950236,66.9893539 55.7605078,72.6158564 L57.9127105,77.1659941 L57.9127105,77.1659941 Z M9.49004647,15.0774351 C16.8793821,6.14001802 28.045858,0.445846427 40.5409666,0.445846427 C53.0459191,0.445846427 64.2201447,6.14899359 71.6093442,15.0985646 L68.2456221,17.8962546 C61.7485727,9.99986172 51.9058,4.96511532 40.8882596,4.96511532 C29.7210532,4.96511532 19.7607481,10.1375782 13.2679803,18.2196353 L9.49004647,15.0774351 L9.49004647,15.0774351 L9.49004647,15.0774351 Z" id="Halo-Copy" stroke="" stroke-width="0.508108749" fill=""></path>
                    </g>
                    <text id="15" font-family="Lato-Light, Lato" font-size="19.0384615" font-weight="300" fill="#FFFFFF">
                        <tspan x="29.7536335" y="92.5530814">10</tspan>
                    </text>
                </g>
                <g id="1" transform="translate(0.013908, 0.975654)">
                    <g id="Profile-Area" transform="translate(0.254975, 0.408362)">
                        <g id="profile-pic" transform="translate(10.303333, 9.375000)">
                            <ellipse id="Oval" fill="#F5EEE5" fill-rule="nonzero" cx="29.9733333" cy="30" rx="29.9733333" ry="30"></ellipse>
                            <g id="Group">
                                <g id="Clipped">
                                    <mask id="mask-16" fill="white">
                                        <use xlink:href="#path-15"></use>
                                    </mask>
                                    <g id="SVGID_1_"></g>
                                    <path d="M38.9653333,45.54 L55.6904533,50.16 C57.6087467,50.82 59.1074133,52.26 59.9466667,54.12 L59.9466667,60 L0,60 L0,54.12 C0.779306667,52.26 2.33792,50.82 4.25621333,50.16 L20.9813333,45.54 L20.9813333,36.6 L38.9653333,36.6 L38.9653333,45.54 Z" id="Shape" fill="#E6C19C" fill-rule="nonzero" mask="url(#mask-16)"></path>
                                </g>
                                <g id="Clipped">
                                    <mask id="mask-18" fill="white">
                                        <use xlink:href="#path-17"></use>
                                    </mask>
                                    <g id="SVGID_1_"></g>
                                    <g id="Group" mask="url(#mask-18)">
                                        <g transform="translate(0.000000, 36.600000)" id="Clipped">
                                            <g>
                                                <mask id="mask-20" fill="white">
                                                    <use xlink:href="#path-19"></use>
                                                </mask>
                                                <g id="SVGID_3_"></g>
                                                <path d="M0,-1.8 L59.9466667,-1.8 L59.9466667,23.4 L0,23.4 L0,-1.8 Z M29.9733333,16.2 C36.5674667,16.2 41.9626667,12.42 41.9626667,7.8 C41.9626667,3.18 36.5674667,-0.6 29.9733333,-0.6 C23.3792,-0.6 17.984,3.18 17.984,7.8 C17.984,12.42 23.3792,16.2 29.9733333,16.2 Z" id="Shape" fill="#A2D16F" fill-rule="nonzero" mask="url(#mask-20)"></path>
                                            </g>
                                            <g>
                                                <mask id="mask-22" fill="white">
                                                    <use xlink:href="#path-21"></use>
                                                </mask>
                                                <g id="SVGID_3_"></g>
                                                <path d="M29.9733333,10.2 C28.95424,10.2 27.6354133,9.96 26.7362133,9.54 C25.71712,9 21.94048,5.88 20.6216533,4.56 C18.9431467,2.76 18.1038933,0.48 17.8641067,-3.42 C17.62432,-7.32 16.6052267,-21.24 16.6052267,-24.42 C16.6052267,-28.92 20.0221867,-35.94 29.85344,-35.94 L29.9133867,-35.94 L29.9133867,-35.94 L29.9133867,-35.94 L29.9733333,-35.94 C39.8645333,-35.88 43.2215467,-28.92 43.2215467,-24.42 C43.2215467,-21.24 42.2024533,-7.32 41.9626667,-3.42 C41.72288,0.48 40.8836267,2.7 39.20512,4.56 C37.94624,5.94 34.1696,9 33.09056,9.54 C32.3112533,9.96 30.9924267,10.2 29.9733333,10.2 L29.9733333,10.2 Z" id="Shape" fill="#D4B08C" fill-rule="nonzero" mask="url(#mask-22)"></path>
                                            </g>
                                            <g>
                                                <mask id="mask-24" fill="white">
                                                    <use xlink:href="#path-23"></use>
                                                </mask>
                                                <g id="SVGID_3_"></g>
                                                <path d="M29.9733333,-1.8 C22.3601067,-1.8 16.1856,2.64 16.1856,8.1 C16.1856,13.56 22.3601067,18 29.9733333,18 C37.58656,18 43.7610667,13.56 43.7610667,8.1 C43.7610667,2.64 37.58656,-1.8 29.9733333,-1.8 Z M29.9733333,15.6 C23.6789333,15.6 18.5834667,12 18.5834667,7.5 C18.5834667,3 23.6789333,-0.6 29.9733333,-0.6 C36.2677333,-0.6 41.3632,3 41.3632,7.5 C41.3632,12 36.2677333,15.6 29.9733333,15.6 Z" id="Shape" fill="#77A545" fill-rule="nonzero" mask="url(#mask-24)"></path>
                                            </g>
                                        </g>
                                    </g>
                                </g>
                            </g>
                            <path d="M29.9733333,44.4 C29.0741333,44.4 27.8752,44.22 27.0958933,43.86 C26.1367467,43.44 22.7797333,41.1 21.6407467,40.08 C20.14208,38.7 19.3627733,37.02 19.1229867,34.08 C18.8832,31.14 17.984,20.7 17.984,18.3 C17.984,14.88 21.04128,9.6 29.9733333,9.6 L29.9733333,9.6 L29.9733333,9.6 L29.9733333,9.6 L29.9733333,9.6 C38.9053867,9.6 41.9626667,14.88 41.9626667,18.3 C41.9626667,20.7 41.0634667,31.2 40.82368,34.14 C40.5838933,37.08 39.8645333,38.76 38.30592,40.14 C37.1669333,41.16 33.7499733,43.5 32.8507733,43.92 C32.0714667,44.22 30.8725333,44.4 29.9733333,44.4 L29.9733333,44.4 Z" id="Shape" fill="#F2CEA5" fill-rule="nonzero"></path>
                            <path d="M34.1696,36.9 C33.0306133,38.1 31.0523733,38.7 29.31392,38.34 C27.69536,37.98 26.4964267,37.14 25.89696,35.76 L34.1696,36.9 Z" id="Shape" fill="#A3705F" fill-rule="nonzero"></path>
                            <path d="M34.1696,36.9 C33.0306133,38.1 31.0523733,38.7 29.31392,38.34 C27.69536,37.98 26.4964267,37.14 25.89696,35.76 L34.1696,36.9 Z" id="Shape" stroke="#A3705F" stroke-width="0.9375" stroke-linecap="round" stroke-linejoin="round"></path>
                            <g id="Group" transform="translate(20.381867, 24.600000)">
                                <g id="Clipped">
                                    <mask id="mask-26" fill="white">
                                        <use xlink:href="#path-25"></use>
                                    </mask>
                                    <g id="SVGID_5_"></g>
                                    <ellipse id="Oval" fill="#291F21" fill-rule="nonzero" mask="url(#mask-26)" cx="14.9866667" cy="2.4" rx="1.19893333" ry="1.2"></ellipse>
                                </g>
                                <g id="Clipped">
                                    <mask id="mask-28" fill="white">
                                        <use xlink:href="#path-27"></use>
                                    </mask>
                                    <g id="SVGID_5_"></g>
                                    <ellipse id="Oval" fill="#291F21" fill-rule="nonzero" mask="url(#mask-28)" cx="4.19626667" cy="2.4" rx="1.19893333" ry="1.2"></ellipse>
                                </g>
                            </g>
                            <path d="M20.9813333,25.2 C20.9813333,25.2 21.6407467,23.4 24.63808,23.4 C26.6762667,23.4 27.8752,24.3 28.4746667,25.2" id="Shape" stroke="#CC9872" stroke-width="1.875"></path>
                            <path d="M39.02528,25.2 C39.02528,25.2 38.3658667,23.4 35.3685333,23.4 C32.4910933,23.4 31.1722667,25.2 31.1722667,26.4 L31.1722667,31.8" id="Shape" stroke="#BB8660" stroke-width="1.875"></path>
                            <path d="M41.2433067,28.92 C41.2433067,28.92 41.72288,25.14 43.4613333,24.6 C43.70112,23.52 44.3605333,20.4 44.3605333,18.66 C44.3605333,16.92 44.1806933,15.24 43.2215467,13.8 C42.1425067,12.24 39.8645333,11.34 38.6656,11.34 C37.2868267,12.18 34.0497067,14.1 33.0306133,15.24 C32.4910933,15.84 33.2704,16.32 33.2704,16.32 C33.2704,16.32 33.98976,16.02 34.2894933,15.96 C35.78816,15.54 39.0852267,15.24 40.10432,16.74 C41.3632,18.54 41.3632,23.82 41.3632,24.6 C41.3632,25.32 41.2433067,28.92 41.2433067,28.92 Z" id="Shape" fill="#452228" fill-rule="nonzero"></path>
                            <path d="M16.4853333,24.6 C18.2237867,25.2 18.70336,28.92 18.70336,28.92 C18.70336,28.92 18.5834667,25.32 18.5834667,24.6 C18.5834667,23.64 18.70336,19.14 20.6216533,16.98 C22.7797333,14.58 25.6571733,13.8 27.2757333,14.88 C28.1149867,15.42 30.93248,18.18 33.9298133,15.9 C35.7282133,14.52 39.02528,11.4 39.02528,11.4 C39.02528,11.4 37.2868267,6.06 29.3738667,6.66 C26.0168533,6.96 22.30016,6.12 22.30016,6.12 C22.30016,6.12 22.2402133,7.62 22.83968,8.4 C17.8641067,9.84 16.2455467,13.44 15.7659733,16.2 C15.64608,16.74 15.5861333,17.28 15.5861333,17.82 L15.5861333,18.66 C15.5861333,20.4 16.2455467,23.46 16.4853333,24.6 Z" id="Shape" fill="#6B363E" fill-rule="nonzero"></path>
                        </g>
                        <path d="M23.2922532,76.8988417 C9.53534311,70.4831374 0,56.5191099 0,40.325784 C0,32.830288 2.04298398,25.8124278 5.60196943,19.7997064 L5.60196943,19.7997064 L9.88803355,22.3537217 C6.91138468,27.5454492 5.20939551,33.5628418 5.20939551,39.9781479 C5.20939551,54.1631852 13.5305386,66.4027957 25.5532483,72.0728401 L23.2922532,76.8988417 L23.2922532,76.8988417 Z M57.6577359,76.7201477 C71.2110034,70.2264259 80.5719839,56.3703718 80.5719839,40.325784 C80.5719839,32.8381337 78.5332745,25.8271198 74.9811853,19.8185907 L74.9811853,19.8185907 L71.2112259,22.0650652 C74.2913232,27.3218813 76.0571744,33.4435926 76.0571744,39.9781479 C76.0571744,54.2447611 67.640049,66.5435075 55.5055331,72.17001 L57.6577359,76.7201477 L57.6577359,76.7201477 Z M9.23507184,14.6315887 C16.6244075,5.69417159 27.7908833,3.55271368e-14 40.2859919,3.55271368e-14 C52.7909445,3.55271368e-14 63.9651701,5.70314717 71.3543695,14.6527182 L67.9906475,17.4504082 C61.493598,9.5540153 51.6508253,4.51926889 40.633285,4.51926889 C29.4660786,4.51926889 19.5057735,9.69173181 13.0130056,17.7737889 L9.23507184,14.6315887 L9.23507184,14.6315887 L9.23507184,14.6315887 Z" id="Halo-Copy" stroke="" stroke-width="0.508108749" fill="#FFCC00"></path>
                    </g>
                    <text id="15" font-family="Lato-Bold, Lato" font-size="20.7692308" font-weight="bold" fill="#FFFFFF">
                        <tspan x="34.7219231" y="92.1875">8</tspan>
                    </text>
                </g>
            </g>
            <g id="Team-Nav-Bar-" transform="translate(15.000000, 93.000000)">
                <path d="M0.992182421,61.8636364 L338.000132,61.8636364" id="Line" stroke="#383838" stroke-width="0.864" stroke-linecap="square"></path>
                <g id="Status-Bar-White" transform="translate(8.000000, 0.000000)" fill="#808080">
                    <g id="Group-2" transform="translate(0.000000, 5.000000)">
                        <path d="M2.91981818,8.69259259 C1.33917923,8.69259259 0.0578181818,7.30633352 0.0578181818,5.5962963 C0.0578181818,3.88625907 1.33917923,2.5 2.91981818,2.5 C4.50045714,2.5 5.78181818,3.88625907 5.78181818,5.5962963 C5.78181818,7.30633352 4.50045714,8.69259259 2.91981818,8.69259259 Z M10.2049091,8.69259259 C8.62427014,8.69259259 7.34290909,7.30633352 7.34290909,5.5962963 C7.34290909,3.88625907 8.62427014,2.5 10.2049091,2.5 C11.785548,2.5 13.0669091,3.88625907 13.0669091,5.5962963 C13.0669091,7.30633352 11.785548,8.69259259 10.2049091,8.69259259 Z M17.49,8.69259259 C15.909361,8.69259259 14.628,7.30633352 14.628,5.5962963 C14.628,3.88625907 15.909361,2.5 17.49,2.5 C19.070639,2.5 20.352,3.88625907 20.352,5.5962963 C20.352,7.30633352 19.070639,8.69259259 17.49,8.69259259 Z M24.7750909,8.69259259 C23.194452,8.69259259 21.9130909,7.30633352 21.9130909,5.5962963 C21.9130909,3.88625907 23.194452,2.5 24.7750909,2.5 C26.3557299,2.5 27.6370909,3.88625907 27.6370909,5.5962963 C27.6370909,7.30633352 26.3557299,8.69259259 24.7750909,8.69259259 Z M24.7750909,8.12962963 C26.068341,8.12962963 27.1167273,6.99541766 27.1167273,5.5962963 C27.1167273,4.19717493 26.068341,3.06296296 24.7750909,3.06296296 C23.4818409,3.06296296 22.4334545,4.19717493 22.4334545,5.5962963 C22.4334545,6.99541766 23.4818409,8.12962963 24.7750909,8.12962963 Z M32.0601818,8.69259259 C30.4795429,8.69259259 29.1981818,7.30633352 29.1981818,5.5962963 C29.1981818,3.88625907 30.4795429,2.5 32.0601818,2.5 C33.6408208,2.5 34.9221818,3.88625907 34.9221818,5.5962963 C34.9221818,7.30633352 33.6408208,8.69259259 32.0601818,8.69259259 Z M32.0601818,8.12962963 C33.3534319,8.12962963 34.4018182,6.99541766 34.4018182,5.5962963 C34.4018182,4.19717493 33.3534319,3.06296296 32.0601818,3.06296296 C30.7669318,3.06296296 29.7185455,4.19717493 29.7185455,5.5962963 C29.7185455,6.99541766 30.7669318,8.12962963 32.0601818,8.12962963 Z" id="Mobile-Signal"></path>
                        <path d="M47.5612118,8.20113078 L45.3529116,10.5222222 L43.1024701,8.16376511 C43.6412486,7.51761472 44.4333959,7.10944157 45.3165111,7.10944157 C46.2165305,7.10944157 47.0220663,7.53339055 47.5612118,8.20113078 Z M49.8290351,5.81747595 L49.8290351,5.81747595 L48.6958134,7.00857819 C47.8642817,6.03904982 46.6583421,5.4293034 45.3165111,5.4293034 C43.990713,5.4293034 42.7975784,6.02456565 41.9671756,6.97397921 L40.8327527,5.78510686 C41.9539872,4.53202487 43.5480128,3.74916523 45.3165111,3.74916523 C47.1001882,3.74916523 48.7063849,4.54552101 49.8290351,5.81747595 Z M52.0941818,3.4366345 L50.9617351,4.62692218 C49.548439,3.05229604 47.5420434,2.06902706 45.3165111,2.06902706 C43.1053081,2.06902706 41.1104292,3.03967493 39.6986599,4.59658037 L38.5647273,3.40822174 C40.2668884,1.54741718 42.6626016,0.388888889 45.3165111,0.388888889 C47.9839022,0.388888889 50.3904673,1.55921764 52.0941818,3.4366345 Z" id="Wi-Fi"></path>
                    </g>
                    <path d="M299.814295,5 L320.063256,5 C321.055632,5 321.877551,5.81324175 321.877551,6.81642628 L321.877551,14.1835737 C321.877551,15.1911437 321.065263,16 320.063256,16 L299.814295,16 C298.821919,16 298,15.1867583 298,14.1835737 L298,6.81642628 C298,5.80885626 298.812288,5 299.814295,5 Z M322.408163,8.47368421 L323.204082,8.47368421 C323.64672,8.47368421 324,8.8321562 324,9.2743538 L324,11.7256462 C324,12.1666718 323.643655,12.5263158 323.204082,12.5263158 L322.408163,12.5263158 L322.408163,8.47368421 Z" id="Battery"></path>
                </g>
                <g id="Pager" transform="translate(126.000000, 31.000000)">
                    <path d="M6.55455748,7.60580913 C6.6568789,7.79760354 6.75167527,7.99688693 6.83894943,8.20366528 C6.92622359,8.41044363 7.01199174,8.61871725 7.09625644,8.82849239 C7.18052115,8.61272368 7.26779399,8.39995494 7.35807761,8.19017981 C7.44836122,7.98040467 7.54466229,7.7796229 7.64698372,7.58782849 L11.511103,0.386583679 C11.5592543,0.296680048 11.6089095,0.224758223 11.6600702,0.170816044 C11.7112309,0.116873866 11.7684097,0.0779162102 11.8316082,0.0539419087 C11.8948068,0.0299676072 11.9655279,0.0149838935 12.0437737,0.00899031812 C12.1220195,0.00299674274 12.2153111,0 12.3236515,0 L14.1563996,0 L14.1563996,13 L12.0166887,13 L12.0166887,4.60304288 C12.0166887,4.44720992 12.0212028,4.27639558 12.0302312,4.09059474 C12.0392595,3.90479391 12.0528019,3.71599911 12.0708586,3.5242047 L8.12548447,10.8962656 C8.03520086,11.0640857 7.91783393,11.194444 7.77338015,11.2873444 C7.62892637,11.3802448 7.46039949,11.4266943 7.26779445,11.4266943 L6.93374675,11.4266943 C6.74114171,11.4266943 6.57261483,11.3802448 6.42816105,11.2873444 C6.28370727,11.194444 6.16634034,11.0640857 6.07605672,10.8962656 L2.0765127,3.49723375 C2.10058833,3.69502174 2.11714008,3.88831164 2.12616844,4.07710927 C2.1351968,4.26590689 2.13971091,4.44121634 2.13971091,4.60304288 L2.13971091,13 L0,13 L0,0 L1.83274816,0 C1.9410885,0 2.03438017,0.00299674274 2.11262596,0.00899031812 C2.19087176,0.0149838935 2.26159286,0.0299676072 2.32479139,0.0539419087 C2.38798992,0.0779162102 2.44667339,0.116873866 2.50084355,0.170816044 C2.55501372,0.224758223 2.60617367,0.296680048 2.65432493,0.386583679 L6.55455748,7.60580913 Z M26.8321554,0 L26.8321554,1.92392808 L21.0450048,1.92392808 L21.0450048,5.52904564 L25.6043044,5.52904564 L25.6043044,7.39004149 L21.0450048,7.39004149 L21.0450048,11.0670816 L26.8321554,11.0670816 L26.8321554,13 L18.5983312,13 L18.5983312,0 L26.8321554,0 Z" id="ME" fill="#FFFFFF" opacity="0.2"></path>
                    <ellipse id="Oval-8-Copy-2" fill="#FFCC00" cx="44.6043956" cy="6.5" rx="6.52747253" ry="6.5"></ellipse>
                    <ellipse id="Oval-8-Copy-3" fill="#FFFFFF" opacity="0.2" cx="68.5384615" cy="6.5" rx="6.52747253" ry="6.5"></ellipse>
                    <ellipse id="Oval-8-Copy-4" fill="#FFFFFF" opacity="0.2" cx="92.4725275" cy="6.5" rx="6.52747253" ry="6.5"></ellipse>
                </g>
            </g>
            <g id="iphone">
                <g id="Timeline-Handle" transform="translate(16.000000, 519.000000)">
                    <path d="M151.021277,6.28747826 L0.52587766,6.28747826 L0,102.122261 L337.08758,102.122261 L337.613457,6.28747826 L186.780957,6.28747826 L186.780957,3.66769565 C186.780957,1.64620499 185.142829,0 183.122096,0 L154.680138,0 C152.662501,0 151.021277,1.64208328 151.021277,3.66769565 L151.021277,6.28747826 Z" id="Calendar" stroke="#383838" fill="#262626" stroke-linecap="square"></path>
                    <text id="“Cereal-Killers”" font-family="Lato-Black, Lato" font-size="24.2712766" font-weight="700" letter-spacing="0.661943758" fill="#C7C7C7">
                        <tspan x="78.90016" y="63.4086957">“Cereal Killers”</tspan>
                    </text>
                </g>
                <path d="M56.5977998,0 L313.4022,0 C344.659458,0 370,25.3343303 370,56.5858104 L370,657.41419 C370,688.667101 344.660302,714 313.4022,714 L56.5977998,714 C25.3405421,714 0,688.66567 0,657.41419 L0,56.5858104 C0,25.3328993 25.3396981,0 56.5977998,0 Z M16.6145825,92.6660736 L16.6145825,619.827161 L353.385418,619.827161 L353.385418,92.6660736 L16.6145825,92.6660736 Z M184.623218,690.645136 C200.438134,690.645136 213.258656,677.827701 213.258656,662.016593 C213.258656,646.205485 200.438134,633.38805 184.623218,633.38805 C168.808302,633.38805 155.98778,646.205485 155.98778,662.016593 C155.98778,677.827701 168.808302,690.645136 184.623218,690.645136 Z M125.845214,54.2435553 C129.17467,54.2435553 131.873727,51.5451478 131.873727,48.2164936 C131.873727,44.8878393 129.17467,42.1894319 125.845214,42.1894319 C122.515758,42.1894319 119.816701,44.8878393 119.816701,48.2164936 C119.816701,51.5451478 122.515758,54.2435553 125.845214,54.2435553 Z M158.244391,45.2029627 C156.581917,45.2029627 155.234216,46.555553 155.234216,48.2164936 C155.234216,49.8808207 156.577881,51.2300244 158.244391,51.2300244 L212.509174,51.2300244 C214.171647,51.2300244 215.519348,49.8774341 215.519348,48.2164936 C215.519348,46.5521664 214.175683,45.2029627 212.509174,45.2029627 L158.244391,45.2029627 Z" id="iphone-no_buttons_no_homebtn" fill="#464646"></path>
            </g>
        </g>
    </g>
</svg>